<ttFont>
    <TTGlyph name=".notdef" xMin="68" yMin="0" xMax="750" yMax="1365">
      <contour>
        <pt x="68" y="0" on="1"/>
        <pt x="68" y="1365" on="1"/>
        <pt x="750" y="1365" on="1"/>
        <pt x="750" y="0" on="1"/>
      </contour>
      <contour>
        <pt x="136" y="68" on="1"/>
        <pt x="682" y="68" on="1"/>
        <pt x="682" y="1297" on="1"/>
        <pt x="136" y="1297" on="1"/>
      </contour>
    </TTGlyph>
    <TTGlyph name=".ttfautohint" xMin="0" yMin="0" xMax="0" yMax="0">
      <contour>
        <pt x="0" y="0" on="1"/>
      </contour>
    </TTGlyph>
    <TTGlyph name="A" xMin="67" yMin="0" xMax="1261" yMax="1391">
      <contour>
        <pt x="933" y="404" on="1"/>
        <pt x="385" y="404" on="1"/>
        <pt x="235" y="0" on="1"/>
        <pt x="67" y="0" on="1"/>
        <pt x="589" y="1391" on="1"/>
        <pt x="739" y="1391" on="1"/>
        <pt x="1261" y="0" on="1"/>
        <pt x="1083" y="0" on="1"/>
      </contour>
      <contour>
        <pt x="881" y="544" on="1"/>
        <pt x="659" y="1144" on="1"/>
        <pt x="436" y="544" on="1"/>
      </contour>
    </TTGlyph>
    <TTGlyph name="AE" xMin="67" yMin="0" xMax="1716" yMax="1391">
      <contour>
        <pt x="1102" y="644" on="1"/>
        <pt x="1102" y="139" on="1"/>
        <pt x="1716" y="140" on="1"/>
        <pt x="1716" y="0" on="1"/>
        <pt x="921" y="0" on="1"/>
        <pt x="921" y="404" on="1"/>
        <pt x="489" y="404" on="1"/>
        <pt x="255" y="0" on="1"/>
        <pt x="67" y="0" on="1"/>
        <pt x="871" y="1391" on="1"/>
        <pt x="1716" y="1391" on="1"/>
        <pt x="1716" y="1252" on="1"/>
        <pt x="1102" y="1252" on="1"/>
        <pt x="1102" y="784" on="1"/>
        <pt x="1520" y="784" on="1"/>
        <pt x="1520" y="644" on="1"/>
      </contour>
      <contour>
        <pt x="921" y="544" on="1"/>
        <pt x="921" y="1152" on="1"/>
        <pt x="569" y="543" on="1"/>
      </contour>
    </TTGlyph>
    <TTGlyph name="Aacute" xMin="67" yMin="0" xMax="1261" yMax="1928">
      <component glyphName=".ttfautohint" x="67" y="0" flags="0x0"/>
      <component glyphName="A" x="0" y="0" flags="0x1204"/>
      <component glyphName="acutecomb" x="664" y="453" flags="0x1004"/>
    </TTGlyph>
    <TTGlyph name="Abreve" xMin="67" yMin="0" xMax="1261" yMax="1893">
      <component glyphName=".ttfautohint" x="67" y="0" flags="0x0"/>
      <component glyphName="A" x="0" y="0" flags="0x1204"/>
      <component glyphName="uni0306" x="664" y="453" flags="0x1004"/>
    </TTGlyph>
    <TTGlyph name="Acircumflex" xMin="67" yMin="0" xMax="1261" yMax="1902">
      <component glyphName=".ttfautohint" x="67" y="0" flags="0x0"/>
      <component glyphName="A" x="0" y="0" flags="0x1204"/>
      <component glyphName="uni0302" x="664" y="453" flags="0x1004"/>
    </TTGlyph>
    <TTGlyph name="Adieresis" xMin="67" yMin="0" xMax="1261" yMax="1883">
      <component glyphName=".ttfautohint" x="67" y="0" flags="0x0"/>
      <component glyphName="A" x="0" y="0" flags="0x1204"/>
      <component glyphName="dieresis" x="192" y="453" flags="0x1004"/>
    </TTGlyph>
    <TTGlyph name="Agrave" xMin="67" yMin="0" xMax="1261" yMax="1928">
      <component glyphName=".ttfautohint" x="67" y="0" flags="0x0"/>
      <component glyphName="A" x="0" y="0" flags="0x1204"/>
      <component glyphName="gravecomb" x="664" y="453" flags="0x1004"/>
    </TTGlyph>
    <TTGlyph name="Amacron" xMin="67" yMin="0" xMax="1261" yMax="1812">
      <component glyphName=".ttfautohint" x="67" y="0" flags="0x0"/>
      <component glyphName="A" x="0" y="0" flags="0x1204"/>
      <component glyphName="uni0304" x="664" y="453" flags="0x1004"/>
    </TTGlyph>
    <TTGlyph name="Aring" xMin="67" yMin="0" xMax="1261" yMax="1853">
      <component glyphName=".ttfautohint" x="67" y="0" flags="0x0"/>
      <component glyphName="A" x="0" y="0" flags="0x1204"/>
      <component glyphName="uni030A" x="664" y="453" flags="0x1004"/>
    </TTGlyph>
    <TTGlyph name="Atilde" xMin="67" yMin="0" xMax="1261" yMax="1809">
      <component glyphName=".ttfautohint" x="67" y="0" flags="0x0"/>
      <component glyphName="A" x="0" y="0" flags="0x1204"/>
      <component glyphName="tildecomb" x="664" y="453" flags="0x1004"/>
    </TTGlyph>
    <TTGlyph name="B" xMin="180" yMin="-18" xMax="1068" yMax="1409">
      <contour>
        <pt x="361" y="1252" on="1"/>
        <pt x="361" y="795" on="1"/>
        <pt x="427" y="795" on="1"/>
        <pt x="594" y="795" on="0"/>
        <pt x="771" y="921" on="0"/>
        <pt x="771" y="1040" on="1"/>
        <pt x="771" y="1187" on="0"/>
        <pt x="626" y="1244" on="1"/>
        <pt x="559" y="1270" on="0"/>
        <pt x="418" y="1270" on="0"/>
      </contour>
      <contour>
        <pt x="883" y="390" on="1"/>
        <pt x="883" y="655" on="0"/>
        <pt x="421" y="655" on="1"/>
        <pt x="361" y="655" on="1"/>
        <pt x="361" y="140" on="1"/>
        <pt x="415" y="122" on="0"/>
        <pt x="499" y="122" on="1"/>
        <pt x="687" y="122" on="0"/>
        <pt x="883" y="261" on="0"/>
      </contour>
      <contour>
        <pt x="992" y="172" on="1"/>
        <pt x="848" y="-18" on="0"/>
        <pt x="492" y="-18" on="1"/>
        <pt x="316" y="-18" on="0"/>
        <pt x="180" y="13" on="1"/>
        <pt x="180" y="1372" on="1"/>
        <pt x="346" y="1409" on="0"/>
        <pt x="702" y="1409" on="0"/>
        <pt x="963" y="1235" on="0"/>
        <pt x="963" y="953" on="0"/>
        <pt x="825" y="781" on="0"/>
        <pt x="717" y="752" on="1"/>
        <pt x="980" y="717" on="0"/>
        <pt x="1046" y="538" on="1"/>
        <pt x="1068" y="482" on="0"/>
        <pt x="1068" y="413" on="1"/>
        <pt x="1068" y="271" on="0"/>
      </contour>
    </TTGlyph>
    <TTGlyph name="C" xMin="49" yMin="-18" xMax="1166" yMax="1409">
      <contour>
        <pt x="740" y="122" on="1"/>
        <pt x="915" y="122" on="0"/>
        <pt x="1078" y="245" on="1"/>
        <pt x="1166" y="126" on="1"/>
        <pt x="1060" y="49" on="0"/>
        <pt x="991" y="23" on="1"/>
        <pt x="881" y="-18" on="0"/>
        <pt x="497" y="-18" on="0"/>
        <pt x="350" y="72" on="1"/>
        <pt x="203" y="162" on="0"/>
        <pt x="49" y="485" on="0"/>
        <pt x="49" y="696" on="1"/>
        <pt x="49" y="907" on="0"/>
        <pt x="126" y="1068" on="1"/>
        <pt x="203" y="1229" on="0"/>
        <pt x="350" y="1319" on="1"/>
        <pt x="497" y="1409" on="0"/>
        <pt x="693" y="1409" on="1"/>
        <pt x="880" y="1409" on="0"/>
        <pt x="1031" y="1353" on="0"/>
        <pt x="1107" y="1308" on="0"/>
        <pt x="1166" y="1265" on="1"/>
        <pt x="1078" y="1146" on="1"/>
        <pt x="915" y="1269" on="0"/>
        <pt x="740" y="1269" on="1"/>
        <pt x="728" y="1269" on="1"/>
        <pt x="616" y="1269" on="0"/>
        <pt x="518" y="1221" on="1"/>
        <pt x="337" y="1133" on="0"/>
        <pt x="265" y="909" on="1"/>
        <pt x="231" y="806" on="0"/>
        <pt x="231" y="695" on="1"/>
        <pt x="231" y="584" on="0"/>
        <pt x="298" y="379" on="0"/>
        <pt x="358" y="298" on="1"/>
        <pt x="491" y="122" on="0"/>
        <pt x="728" y="122" on="1"/>
      </contour>
    </TTGlyph>
    <TTGlyph name="Cacute" xMin="49" yMin="-18" xMax="1166" yMax="1928">
      <component glyphName=".ttfautohint" x="49" y="0" flags="0x0"/>
      <component glyphName="C" x="0" y="0" flags="0x1204"/>
      <component glyphName="acutecomb" x="660" y="453" flags="0x1004"/>
    </TTGlyph>
    <TTGlyph name="Ccaron" xMin="49" yMin="-18" xMax="1166" yMax="1902">
      <component glyphName=".ttfautohint" x="49" y="0" flags="0x0"/>
      <component glyphName="C" x="0" y="0" flags="0x1204"/>
      <component glyphName="uni030C" x="660" y="453" flags="0x1004"/>
    </TTGlyph>
    <TTGlyph name="Ccedilla" xMin="49" yMin="-494" xMax="1166" yMax="1409">
      <contour>
        <pt x="740" y="122" on="1"/>
        <pt x="915" y="122" on="0"/>
        <pt x="1078" y="245" on="1"/>
        <pt x="1166" y="126" on="1"/>
        <pt x="1060" y="49" on="0"/>
        <pt x="991" y="23" on="1"/>
        <pt x="881" y="-18" on="0"/>
        <pt x="693" y="-18" on="1"/>
        <pt x="679" y="-18" on="1"/>
        <pt x="663" y="-62" on="0"/>
        <pt x="663" y="-106" on="1"/>
        <pt x="713" y="-119" on="0"/>
        <pt x="785" y="-221" on="0"/>
        <pt x="785" y="-370" on="0"/>
        <pt x="700" y="-459" on="0"/>
        <pt x="614" y="-494" on="1"/>
        <pt x="535" y="-419" on="1"/>
        <pt x="597" y="-393" on="0"/>
        <pt x="664" y="-335" on="0"/>
        <pt x="664" y="-235" on="0"/>
        <pt x="597" y="-172" on="0"/>
        <pt x="539" y="-172" on="1"/>
        <pt x="539" y="-79" on="0"/>
        <pt x="579" y="-10" on="1"/>
        <pt x="453" y="9" on="0"/>
        <pt x="350" y="72" on="1"/>
        <pt x="203" y="162" on="0"/>
        <pt x="49" y="485" on="0"/>
        <pt x="49" y="696" on="1"/>
        <pt x="49" y="907" on="0"/>
        <pt x="126" y="1068" on="1"/>
        <pt x="203" y="1229" on="0"/>
        <pt x="350" y="1319" on="1"/>
        <pt x="497" y="1409" on="0"/>
        <pt x="693" y="1409" on="1"/>
        <pt x="880" y="1409" on="0"/>
        <pt x="1031" y="1353" on="0"/>
        <pt x="1107" y="1308" on="0"/>
        <pt x="1166" y="1265" on="1"/>
        <pt x="1078" y="1146" on="1"/>
        <pt x="915" y="1269" on="0"/>
        <pt x="740" y="1269" on="1"/>
        <pt x="728" y="1269" on="1"/>
        <pt x="616" y="1269" on="0"/>
        <pt x="522" y="1221" on="1"/>
        <pt x="346" y="1130" on="0"/>
        <pt x="275" y="909" on="1"/>
        <pt x="241" y="806" on="0"/>
        <pt x="241" y="695" on="1"/>
        <pt x="241" y="584" on="0"/>
        <pt x="308" y="379" on="0"/>
        <pt x="429" y="218" on="0"/>
        <pt x="616" y="122" on="0"/>
        <pt x="728" y="122" on="1"/>
      </contour>
    </TTGlyph>
    <TTGlyph name="D" xMin="180" yMin="-18" xMax="1330" yMax="1409">
      <contour>
        <pt x="1101" y="163" on="1"/>
        <pt x="883" y="-18" on="0"/>
        <pt x="548" y="-18" on="1"/>
        <pt x="367" y="-18" on="0"/>
        <pt x="180" y="13" on="1"/>
        <pt x="180" y="1372" on="1"/>
        <pt x="391" y="1409" on="0"/>
        <pt x="527" y="1409" on="1"/>
        <pt x="927" y="1409" on="0"/>
        <pt x="1167" y="1144" on="1"/>
        <pt x="1242" y="1059" on="0"/>
        <pt x="1330" y="825" on="0"/>
        <pt x="1330" y="524" on="0"/>
        <pt x="1205" y="250" on="0"/>
      </contour>
      <contour>
        <pt x="361" y="1252" on="1"/>
        <pt x="360" y="140" on="1"/>
        <pt x="452" y="122" on="0"/>
        <pt x="558" y="122" on="1"/>
        <pt x="781" y="122" on="0"/>
        <pt x="955" y="265" on="1"/>
        <pt x="1039" y="333" on="0"/>
        <pt x="1142" y="554" on="0"/>
        <pt x="1142" y="676" on="1"/>
        <pt x="1142" y="1003" on="0"/>
        <pt x="872" y="1175" on="1"/>
        <pt x="721" y="1270" on="0"/>
        <pt x="546" y="1270" on="1"/>
        <pt x="439" y="1270" on="0"/>
      </contour>
    </TTGlyph>
    <TTGlyph name="E" xMin="180" yMin="0" xMax="975" yMax="1391">
      <contour>
        <pt x="361" y="644" on="1"/>
        <pt x="361" y="140" on="1"/>
        <pt x="975" y="140" on="1"/>
        <pt x="975" y="0" on="1"/>
        <pt x="180" y="0" on="1"/>
        <pt x="180" y="1391" on="1"/>
        <pt x="975" y="1391" on="1"/>
        <pt x="975" y="1252" on="1"/>
        <pt x="361" y="1252" on="1"/>
        <pt x="361" y="784" on="1"/>
        <pt x="779" y="784" on="1"/>
        <pt x="779" y="644" on="1"/>
      </contour>
    </TTGlyph>
    <TTGlyph name="Eacute" xMin="180" yMin="0" xMax="975" yMax="1928">
      <component glyphName=".ttfautohint" x="180" y="0" flags="0x0"/>
      <component glyphName="E" x="0" y="0" flags="0x1204"/>
      <component glyphName="acutecomb" x="568" y="453" flags="0x1004"/>
    </TTGlyph>
    <TTGlyph name="Ecaron" xMin="180" yMin="0" xMax="975" yMax="1902">
      <component glyphName=".ttfautohint" x="180" y="0" flags="0x0"/>
      <component glyphName="E" x="0" y="0" flags="0x1204"/>
      <component glyphName="uni030C" x="568" y="453" flags="0x1004"/>
    </TTGlyph>
    <TTGlyph name="Ecircumflex" xMin="180" yMin="0" xMax="975" yMax="1902">
      <component glyphName=".ttfautohint" x="180" y="0" flags="0x0"/>
      <component glyphName="E" x="0" y="0" flags="0x1204"/>
      <component glyphName="uni0302" x="568" y="453" flags="0x1004"/>
    </TTGlyph>
    <TTGlyph name="Edieresis" xMin="180" yMin="0" xMax="975" yMax="1883">
      <component glyphName=".ttfautohint" x="180" y="0" flags="0x0"/>
      <component glyphName="E" x="0" y="0" flags="0x1204"/>
      <component glyphName="dieresis" x="96" y="453" flags="0x1004"/>
    </TTGlyph>
    <TTGlyph name="Edotaccent" xMin="180" yMin="0" xMax="975" yMax="1883">
      <component glyphName=".ttfautohint" x="180" y="0" flags="0x0"/>
      <component glyphName="E" x="0" y="0" flags="0x1204"/>
      <component glyphName="uni0307" x="568" y="453" flags="0x1004"/>
    </TTGlyph>
    <TTGlyph name="Egrave" xMin="180" yMin="0" xMax="975" yMax="1928">
      <component glyphName=".ttfautohint" x="180" y="0" flags="0x0"/>
      <component glyphName="E" x="0" y="0" flags="0x1204"/>
      <component glyphName="gravecomb" x="568" y="453" flags="0x1004"/>
    </TTGlyph>
    <TTGlyph name="Emacron" xMin="180" yMin="0" xMax="975" yMax="1812">
      <component glyphName=".ttfautohint" x="180" y="0" flags="0x0"/>
      <component glyphName="E" x="0" y="0" flags="0x1204"/>
      <component glyphName="uni0304" x="568" y="453" flags="0x1004"/>
    </TTGlyph>
    <TTGlyph name="Eng" xMin="180" yMin="-492" xMax="1310" yMax="1409">
      <contour>
        <pt x="1127" y="684" on="1"/>
        <pt x="1127" y="985" on="0"/>
        <pt x="929" y="1271" on="0"/>
        <pt x="753" y="1271" on="1"/>
        <pt x="557" y="1271" on="0"/>
        <pt x="422" y="1118" on="1"/>
        <pt x="359" y="1046" on="0"/>
        <pt x="359" y="1012" on="1"/>
        <pt x="361" y="0" on="1"/>
        <pt x="180" y="0" on="1"/>
        <pt x="180" y="1391" on="1"/>
        <pt x="361" y="1391" on="1"/>
        <pt x="361" y="1219" on="1"/>
        <pt x="454" y="1345" on="0"/>
        <pt x="638" y="1392" on="1"/>
        <pt x="702" y="1409" on="0"/>
        <pt x="822" y="1409" on="0"/>
        <pt x="915" y="1396" on="0"/>
        <pt x="1026" y="1356" on="0"/>
        <pt x="1119" y="1292" on="0"/>
        <pt x="1209" y="1181" on="0"/>
        <pt x="1240" y="1108" on="1"/>
        <pt x="1310" y="947" on="0"/>
        <pt x="1310" y="693" on="1"/>
        <pt x="1310" y="28" on="1"/>
        <pt x="1310" y="-379" on="0"/>
        <pt x="940" y="-465" on="1"/>
        <pt x="826" y="-492" on="0"/>
        <pt x="631" y="-492" on="1"/>
        <pt x="600" y="-354" on="1"/>
        <pt x="901" y="-346" on="0"/>
        <pt x="999" y="-281" on="1"/>
        <pt x="1060" y="-240" on="0"/>
        <pt x="1099" y="-154" on="0"/>
        <pt x="1115" y="-92" on="0"/>
        <pt x="1120" y="-42" on="1"/>
        <pt x="1127" y="40" on="0"/>
        <pt x="1127" y="166" on="1"/>
      </contour>
    </TTGlyph>
    <TTGlyph name="Eth" xMin="61" yMin="-18" xMax="1330" yMax="1409">
      <contour>
        <pt x="996" y="76" on="0"/>
        <pt x="730" y="-18" on="0"/>
        <pt x="367" y="-18" on="0"/>
        <pt x="180" y="13" on="1"/>
        <pt x="180" y="656" on="1"/>
        <pt x="61" y="656" on="1"/>
        <pt x="61" y="795" on="1"/>
        <pt x="180" y="795" on="1"/>
        <pt x="180" y="1372" on="1"/>
        <pt x="391" y="1409" on="0"/>
        <pt x="663" y="1409" on="0"/>
        <pt x="891" y="1349" on="0"/>
        <pt x="1091" y="1228" on="0"/>
        <pt x="1242" y="1059" on="0"/>
        <pt x="1330" y="825" on="0"/>
        <pt x="1330" y="524" on="0"/>
        <pt x="1205" y="250" on="0"/>
      </contour>
      <contour>
        <pt x="360" y="655" on="1"/>
        <pt x="360" y="140" on="1"/>
        <pt x="452" y="122" on="0"/>
        <pt x="665" y="122" on="0"/>
        <pt x="871" y="196" on="0"/>
        <pt x="1039" y="333" on="0"/>
        <pt x="1142" y="554" on="0"/>
        <pt x="1142" y="799" on="0"/>
        <pt x="1069" y="991" on="0"/>
        <pt x="949" y="1126" on="0"/>
        <pt x="872" y="1175" on="1"/>
        <pt x="721" y="1270" on="0"/>
        <pt x="546" y="1270" on="1"/>
        <pt x="439" y="1270" on="0"/>
        <pt x="361" y="1252" on="1"/>
        <pt x="361" y="795" on="1"/>
        <pt x="504" y="795" on="1"/>
        <pt x="504" y="655" on="1"/>
      </contour>
    </TTGlyph>
    <TTGlyph name="Euro" xMin="61" yMin="-18" xMax="1326" yMax="1305">
      <contour>
        <pt x="1326" y="115" on="1"/>
        <pt x="1149" y="-18" on="0"/>
        <pt x="855" y="-18" on="1"/>
        <pt x="635" y="-18" on="0"/>
        <pt x="472" y="102" on="1"/>
        <pt x="300" y="228" on="0"/>
        <pt x="254" y="476" on="1"/>
        <pt x="61" y="476" on="1"/>
        <pt x="61" y="585" on="1"/>
        <pt x="242" y="585" on="1"/>
        <pt x="240" y="613" on="0"/>
        <pt x="240" y="666" on="0"/>
        <pt x="241" y="689" on="1"/>
        <pt x="114" y="689" on="1"/>
        <pt x="114" y="798" on="1"/>
        <pt x="255" y="798" on="1"/>
        <pt x="286" y="950" on="0"/>
        <pt x="462" y="1180" on="0"/>
        <pt x="723" y="1305" on="0"/>
        <pt x="877" y="1305" on="1"/>
        <pt x="1133" y="1305" on="0"/>
        <pt x="1276" y="1206" on="1"/>
        <pt x="1296" y="1192" on="0"/>
        <pt x="1326" y="1170" on="1"/>
        <pt x="1238" y="1064" on="1"/>
        <pt x="1110" y="1176" on="0"/>
        <pt x="720" y="1176" on="0"/>
        <pt x="460" y="975" on="0"/>
        <pt x="418" y="798" on="1"/>
        <pt x="1002" y="798" on="1"/>
        <pt x="1002" y="689" on="1"/>
        <pt x="402" y="689" on="1"/>
        <pt x="401" y="666" on="0"/>
        <pt x="401" y="613" on="0"/>
        <pt x="403" y="585" on="1"/>
        <pt x="948" y="585" on="1"/>
        <pt x="948" y="476" on="1"/>
        <pt x="417" y="476" on="1"/>
        <pt x="472" y="213" on="0"/>
        <pt x="698" y="138" on="1"/>
        <pt x="780" y="111" on="0"/>
        <pt x="883" y="111" on="1"/>
        <pt x="1066" y="111" on="0"/>
        <pt x="1248" y="217" on="1"/>
      </contour>
    </TTGlyph>
    <TTGlyph name="F" xMin="180" yMin="0" xMax="975" yMax="1391">
      <contour>
        <pt x="361" y="644" on="1"/>
        <pt x="361" y="0" on="1"/>
        <pt x="180" y="0" on="1"/>
        <pt x="180" y="1391" on="1"/>
        <pt x="975" y="1391" on="1"/>
        <pt x="975" y="1252" on="1"/>
        <pt x="361" y="1252" on="1"/>
        <pt x="361" y="784" on="1"/>
        <pt x="779" y="784" on="1"/>
        <pt x="779" y="644" on="1"/>
      </contour>
    </TTGlyph>
    <TTGlyph name="G" xMin="49" yMin="-18" xMax="1276" yMax="1409">
      <contour>
        <pt x="49" y="696" on="1"/>
        <pt x="49" y="907" on="0"/>
        <pt x="136" y="1068" on="1"/>
        <pt x="222" y="1229" on="0"/>
        <pt x="386" y="1319" on="1"/>
        <pt x="550" y="1409" on="0"/>
        <pt x="770" y="1409" on="1"/>
        <pt x="959" y="1409" on="0"/>
        <pt x="1131" y="1348" on="0"/>
        <pt x="1212" y="1305" on="0"/>
        <pt x="1276" y="1264" on="1"/>
        <pt x="1206" y="1131" on="1"/>
        <pt x="992" y="1269" on="0"/>
        <pt x="774" y="1269" on="1"/>
        <pt x="652" y="1269" on="0"/>
        <pt x="550" y="1221" on="1"/>
        <pt x="355" y="1130" on="0"/>
        <pt x="278" y="911" on="1"/>
        <pt x="241" y="808" on="0"/>
        <pt x="241" y="708" on="1"/>
        <pt x="241" y="411" on="0"/>
        <pt x="425" y="240" on="1"/>
        <pt x="547" y="122" on="0"/>
        <pt x="730" y="122" on="1"/>
        <pt x="742" y="122" on="1"/>
        <pt x="904" y="122" on="0"/>
        <pt x="1071" y="197" on="1"/>
        <pt x="1071" y="526" on="1"/>
        <pt x="774" y="526" on="1"/>
        <pt x="774" y="665" on="1"/>
        <pt x="1252" y="666" on="1"/>
        <pt x="1251" y="126" on="1"/>
        <pt x="1038" y="-18" on="0"/>
        <pt x="424" y="-18" on="0"/>
        <pt x="49" y="376" on="0"/>
      </contour>
    </TTGlyph>
    <TTGlyph name="Gcircumflex" xMin="49" yMin="-18" xMax="1276" yMax="1902">
      <component glyphName=".ttfautohint" x="49" y="0" flags="0x0"/>
      <component glyphName="G" x="0" y="0" flags="0x1204"/>
      <component glyphName="uni0302" x="740" y="453" flags="0x1004"/>
    </TTGlyph>
    <TTGlyph name="H" xMin="180" yMin="0" xMax="1184" yMax="1391">
      <contour>
        <pt x="1184" y="1390" on="1"/>
        <pt x="1184" y="0" on="1"/>
        <pt x="1003" y="0" on="1"/>
        <pt x="1003" y="664" on="1"/>
        <pt x="361" y="664" on="1"/>
        <pt x="361" y="0" on="1"/>
        <pt x="180" y="0" on="1"/>
        <pt x="180" y="1391" on="1"/>
        <pt x="361" y="1391" on="1"/>
        <pt x="361" y="804" on="1"/>
        <pt x="1003" y="804" on="1"/>
        <pt x="1003" y="1390" on="1"/>
      </contour>
    </TTGlyph>
    <TTGlyph name="I" xMin="180" yMin="0" xMax="361" yMax="1391">
      <contour>
        <pt x="361" y="1391" on="1"/>
        <pt x="361" y="0" on="1"/>
        <pt x="180" y="0" on="1"/>
        <pt x="180" y="1391" on="1"/>
      </contour>
    </TTGlyph>
    <TTGlyph name="Iacute" xMin="180" yMin="0" xMax="519" yMax="1928">
      <component glyphName=".ttfautohint" x="180" y="0" flags="0x0"/>
      <component glyphName="I" x="0" y="0" flags="0x1204"/>
      <component glyphName="acutecomb" x="270" y="453" flags="0x1004"/>
    </TTGlyph>
    <TTGlyph name="Icircumflex" xMin="-39" yMin="0" xMax="579" yMax="1902">
      <component glyphName=".ttfautohint" x="0" y="0" flags="0x0"/>
      <component glyphName="I" x="0" y="0" flags="0x1204"/>
      <component glyphName="uni0302" x="270" y="453" flags="0x1004"/>
    </TTGlyph>
    <TTGlyph name="Idieresis" xMin="-84" yMin="0" xMax="624" yMax="1883">
      <component glyphName=".ttfautohint" x="0" y="0" flags="0x0"/>
      <component glyphName="I" x="0" y="0" flags="0x1204"/>
      <component glyphName="dieresis" x="-202" y="453" flags="0x1004"/>
    </TTGlyph>
    <TTGlyph name="Idotaccent" xMin="152" yMin="0" xMax="388" yMax="1883">
      <component glyphName=".ttfautohint" x="152" y="0" flags="0x0"/>
      <component glyphName="I" x="0" y="0" flags="0x1204"/>
      <component glyphName="uni0307" x="270" y="453" flags="0x1004"/>
    </TTGlyph>
    <TTGlyph name="Igrave" xMin="21" yMin="0" xMax="361" yMax="1928">
      <component glyphName=".ttfautohint" x="21" y="0" flags="0x0"/>
      <component glyphName="I" x="0" y="0" flags="0x1204"/>
      <component glyphName="gravecomb" x="270" y="453" flags="0x1004"/>
    </TTGlyph>
    <TTGlyph name="Itilde" xMin="-72" yMin="0" xMax="591" yMax="1809">
      <component glyphName=".ttfautohint" x="0" y="0" flags="0x0"/>
      <component glyphName="I" x="0" y="0" flags="0x1204"/>
      <component glyphName="tildecomb" x="270" y="453" flags="0x1004"/>
    </TTGlyph>
    <TTGlyph name="J" xMin="-41" yMin="-495" xMax="361" yMax="1391">
      <contour>
        <pt x="361" y="1391" on="1"/>
        <pt x="361" y="140" on="1"/>
        <pt x="359" y="74" on="0"/>
        <pt x="359" y="-9" on="0"/>
        <pt x="344" y="-126" on="0"/>
        <pt x="319" y="-207" on="0"/>
        <pt x="271" y="-307" on="0"/>
        <pt x="238" y="-344" on="1"/>
        <pt x="158" y="-434" on="0"/>
        <pt x="37" y="-495" on="1"/>
        <pt x="-41" y="-396" on="1"/>
        <pt x="76" y="-306" on="0"/>
        <pt x="180" y="-95" on="0"/>
        <pt x="180" y="69" on="1"/>
        <pt x="180" y="1391" on="1"/>
      </contour>
    </TTGlyph>
    <TTGlyph name="K" xMin="180" yMin="0" xMax="1103" yMax="1391">
      <contour>
        <pt x="361" y="0" on="1"/>
        <pt x="180" y="0" on="1"/>
        <pt x="180" y="1391" on="1"/>
        <pt x="361" y="1391" on="1"/>
        <pt x="361" y="693" on="1"/>
        <pt x="871" y="1391" on="1"/>
        <pt x="1059" y="1391" on="1"/>
        <pt x="555" y="701" on="1"/>
        <pt x="1103" y="0" on="1"/>
        <pt x="892" y="0" on="1"/>
        <pt x="361" y="679" on="1"/>
      </contour>
    </TTGlyph>
    <TTGlyph name="L" xMin="180" yMin="0" xMax="975" yMax="1391">
      <contour>
        <pt x="180" y="0" on="1"/>
        <pt x="180" y="1391" on="1"/>
        <pt x="361" y="1391" on="1"/>
        <pt x="361" y="140" on="1"/>
        <pt x="975" y="140" on="1"/>
        <pt x="975" y="0" on="1"/>
      </contour>
    </TTGlyph>
    <TTGlyph name="M" xMin="109" yMin="0" xMax="1664" yMax="1392">
      <contour>
        <pt x="893" y="249" on="1"/>
        <pt x="1323" y="1392" on="1"/>
        <pt x="1491" y="1392" on="1"/>
        <pt x="1664" y="0" on="1"/>
        <pt x="1486" y="0" on="1"/>
        <pt x="1362" y="1039" on="1"/>
        <pt x="981" y="0" on="1"/>
        <pt x="816" y="0" on="1"/>
        <pt x="399" y="1087" on="1"/>
        <pt x="269" y="0" on="1"/>
        <pt x="109" y="0" on="1"/>
        <pt x="282" y="1392" on="1"/>
        <pt x="460" y="1392" on="1"/>
      </contour>
    </TTGlyph>
    <TTGlyph name="N" xMin="180" yMin="0" xMax="1205" yMax="1391">
      <contour>
        <pt x="1205" y="1391" on="1"/>
        <pt x="1205" y="0" on="1"/>
        <pt x="1024" y="0" on="1"/>
        <pt x="361" y="1042" on="1"/>
        <pt x="361" y="0" on="1"/>
        <pt x="180" y="0" on="1"/>
        <pt x="180" y="1391" on="1"/>
        <pt x="361" y="1391" on="1"/>
        <pt x="1024" y="348" on="1"/>
        <pt x="1024" y="1391" on="1"/>
      </contour>
    </TTGlyph>
    <TTGlyph name="Ntilde" xMin="180" yMin="0" xMax="1205" yMax="1809">
      <component glyphName=".ttfautohint" x="180" y="0" flags="0x0"/>
      <component glyphName="N" x="0" y="0" flags="0x1204"/>
      <component glyphName="tildecomb" x="692" y="453" flags="0x1004"/>
    </TTGlyph>
    <TTGlyph name="O" xMin="45" yMin="-18" xMax="1399" yMax="1409">
      <contour>
        <pt x="305" y="1302" on="0"/>
        <pt x="565" y="1409" on="0"/>
        <pt x="710" y="1409" on="1"/>
        <pt x="1105" y="1409" on="0"/>
        <pt x="1290" y="1119" on="1"/>
        <pt x="1399" y="943" on="0"/>
        <pt x="1399" y="703" on="1"/>
        <pt x="1399" y="460" on="0"/>
        <pt x="1286" y="282" on="1"/>
        <pt x="1166" y="90" on="0"/>
        <pt x="962" y="20" on="1"/>
        <pt x="853" y="-18" on="0"/>
        <pt x="562" y="-18" on="0"/>
        <pt x="300" y="93" on="0"/>
        <pt x="216" y="190" on="1"/>
        <pt x="45" y="391" on="0"/>
        <pt x="45" y="703" on="1"/>
        <pt x="45" y="1011" on="0"/>
        <pt x="221" y="1208" on="1"/>
      </contour>
      <contour>
        <pt x="992" y="1193" on="1"/>
        <pt x="880" y="1271" on="0"/>
        <pt x="573" y="1271" on="0"/>
        <pt x="460" y="1196" on="1"/>
        <pt x="237" y="1047" on="0"/>
        <pt x="237" y="703" on="1"/>
        <pt x="237" y="354" on="0"/>
        <pt x="458" y="201" on="1"/>
        <pt x="570" y="123" on="0"/>
        <pt x="705" y="123" on="1"/>
        <pt x="954" y="123" on="0"/>
        <pt x="1085" y="297" on="1"/>
        <pt x="1210" y="464" on="0"/>
        <pt x="1210" y="703" on="1"/>
        <pt x="1210" y="1040" on="0"/>
      </contour>
    </TTGlyph>
    <TTGlyph name="OE" xMin="45" yMin="-18" xMax="1786" yMax="1409">
      <contour>
        <pt x="655" y="1271" on="1"/>
        <pt x="535" y="1271" on="0"/>
        <pt x="436" y="1196" on="1"/>
        <pt x="237" y="1046" on="0"/>
        <pt x="237" y="703" on="1"/>
        <pt x="237" y="453" on="0"/>
        <pt x="346" y="291" on="1"/>
        <pt x="399" y="212" on="0"/>
        <pt x="567" y="123" on="0"/>
        <pt x="804" y="123" on="0"/>
        <pt x="904" y="204" on="1"/>
        <pt x="1101" y="365" on="0"/>
        <pt x="1101" y="703" on="1"/>
        <pt x="1101" y="942" on="0"/>
        <pt x="992" y="1103" on="1"/>
        <pt x="879" y="1271" on="0"/>
      </contour>
      <contour>
        <pt x="1288" y="644" on="1"/>
        <pt x="1288" y="139" on="1"/>
        <pt x="1786" y="140" on="1"/>
        <pt x="1786" y="0" on="1"/>
        <pt x="1107" y="0" on="1"/>
        <pt x="1107" y="171" on="1"/>
        <pt x="939" y="-18" on="0"/>
        <pt x="673" y="-18" on="1"/>
        <pt x="521" y="-18" on="0"/>
        <pt x="280" y="93" on="0"/>
        <pt x="203" y="190" on="1"/>
        <pt x="45" y="391" on="0"/>
        <pt x="45" y="703" on="1"/>
        <pt x="45" y="907" on="0"/>
        <pt x="188" y="1224" on="0"/>
        <pt x="475" y="1409" on="0"/>
        <pt x="673" y="1409" on="1"/>
        <pt x="943" y="1409" on="0"/>
        <pt x="1107" y="1231" on="1"/>
        <pt x="1107" y="1391" on="1"/>
        <pt x="1786" y="1391" on="1"/>
        <pt x="1786" y="1252" on="1"/>
        <pt x="1288" y="1252" on="1"/>
        <pt x="1288" y="784" on="1"/>
        <pt x="1590" y="784" on="1"/>
        <pt x="1590" y="644" on="1"/>
      </contour>
    </TTGlyph>
    <TTGlyph name="Oacute" xMin="45" yMin="-18" xMax="1399" yMax="1928">
      <component glyphName=".ttfautohint" x="45" y="0" flags="0x0"/>
      <component glyphName="O" x="0" y="0" flags="0x1204"/>
      <component glyphName="acutecomb" x="727" y="453" flags="0x1004"/>
    </TTGlyph>
    <TTGlyph name="Ocircumflex" xMin="45" yMin="-18" xMax="1399" yMax="1902">
      <component glyphName=".ttfautohint" x="45" y="0" flags="0x0"/>
      <component glyphName="O" x="0" y="0" flags="0x1204"/>
      <component glyphName="uni0302" x="727" y="453" flags="0x1004"/>
    </TTGlyph>
    <TTGlyph name="Odieresis" xMin="45" yMin="-18" xMax="1399" yMax="1883">
      <component glyphName=".ttfautohint" x="45" y="0" flags="0x0"/>
      <component glyphName="O" x="0" y="0" flags="0x1204"/>
      <component glyphName="dieresis" x="255" y="453" flags="0x1004"/>
    </TTGlyph>
    <TTGlyph name="Ograve" xMin="45" yMin="-18" xMax="1399" yMax="1928">
      <component glyphName=".ttfautohint" x="45" y="0" flags="0x0"/>
      <component glyphName="O" x="0" y="0" flags="0x1204"/>
      <component glyphName="gravecomb" x="727" y="453" flags="0x1004"/>
    </TTGlyph>
    <TTGlyph name="Omacron" xMin="45" yMin="-18" xMax="1399" yMax="1812">
      <component glyphName=".ttfautohint" x="45" y="0" flags="0x0"/>
      <component glyphName="O" x="0" y="0" flags="0x1204"/>
      <component glyphName="uni0304" x="727" y="453" flags="0x1004"/>
    </TTGlyph>
    <TTGlyph name="Oslash" xMin="45" yMin="-18" xMax="1399" yMax="1409">
      <contour>
        <pt x="1003" y="1186" on="1"/>
        <pt x="887" y="1271" on="0"/>
        <pt x="573" y="1271" on="0"/>
        <pt x="460" y="1196" on="1"/>
        <pt x="237" y="1047" on="0"/>
        <pt x="237" y="703" on="1"/>
        <pt x="237" y="501" on="0"/>
        <pt x="317" y="356" on="1"/>
      </contour>
      <contour>
        <pt x="1210" y="1221" on="1"/>
        <pt x="1399" y="1026" on="0"/>
        <pt x="1399" y="703" on="1"/>
        <pt x="1399" y="334" on="0"/>
        <pt x="1150" y="124" on="1"/>
        <pt x="981" y="-18" on="0"/>
        <pt x="469" y="-18" on="0"/>
        <pt x="297" y="115" on="1"/>
        <pt x="202" y="0" on="1"/>
        <pt x="102" y="96" on="1"/>
        <pt x="198" y="212" on="1"/>
        <pt x="45" y="404" on="0"/>
        <pt x="45" y="703" on="1"/>
        <pt x="45" y="1011" on="0"/>
        <pt x="220" y="1208" on="1"/>
        <pt x="305" y="1302" on="0"/>
        <pt x="565" y="1409" on="0"/>
        <pt x="727" y="1409" on="1"/>
        <pt x="945" y="1409" on="0"/>
        <pt x="1103" y="1308" on="1"/>
        <pt x="1172" y="1391" on="1"/>
        <pt x="1272" y="1295" on="1"/>
      </contour>
      <contour>
        <pt x="1100" y="1087" on="1"/>
        <pt x="403" y="244" on="1"/>
        <pt x="530" y="123" on="0"/>
        <pt x="727" y="123" on="1"/>
        <pt x="840" y="123" on="0"/>
        <pt x="1025" y="217" on="0"/>
        <pt x="1085" y="297" on="1"/>
        <pt x="1210" y="464" on="0"/>
        <pt x="1210" y="933" on="0"/>
      </contour>
    </TTGlyph>
    <TTGlyph name="Otilde" xMin="45" yMin="-18" xMax="1399" yMax="1809">
      <component glyphName=".ttfautohint" x="45" y="0" flags="0x0"/>
      <component glyphName="O" x="0" y="0" flags="0x1204"/>
      <component glyphName="tildecomb" x="727" y="453" flags="0x1004"/>
    </TTGlyph>
    <TTGlyph name="P" xMin="180" yMin="0" xMax="1035" yMax="1409">
      <contour>
        <pt x="180" y="1372" on="1"/>
        <pt x="374" y="1409" on="0"/>
        <pt x="631" y="1409" on="0"/>
        <pt x="814" y="1362" on="0"/>
        <pt x="929" y="1284" on="0"/>
        <pt x="966" y="1230" on="1"/>
        <pt x="1035" y="1130" on="0"/>
        <pt x="1035" y="996" on="1"/>
        <pt x="1035" y="813" on="0"/>
        <pt x="755" y="576" on="0"/>
        <pt x="531" y="576" on="1"/>
        <pt x="361" y="576" on="1"/>
        <pt x="361" y="0" on="1"/>
        <pt x="180" y="0" on="1"/>
      </contour>
      <contour>
        <pt x="361" y="1252" on="1"/>
        <pt x="361" y="716" on="1"/>
        <pt x="427" y="716" on="1"/>
        <pt x="649" y="716" on="0"/>
        <pt x="843" y="847" on="0"/>
        <pt x="843" y="1124" on="0"/>
        <pt x="762" y="1197" on="1"/>
        <pt x="680" y="1270" on="0"/>
        <pt x="520" y="1270" on="1"/>
        <pt x="434" y="1270" on="0"/>
      </contour>
    </TTGlyph>
    <TTGlyph name="Q" xMin="45" yMin="-272" xMax="1399" yMax="1409">
      <contour>
        <pt x="91" y="984" on="1"/>
        <pt x="185" y="1252" on="0"/>
        <pt x="435" y="1356" on="1"/>
        <pt x="565" y="1409" on="0"/>
        <pt x="710" y="1409" on="1"/>
        <pt x="1105" y="1409" on="0"/>
        <pt x="1290" y="1119" on="1"/>
        <pt x="1399" y="943" on="0"/>
        <pt x="1399" y="703" on="1"/>
        <pt x="1399" y="394" on="0"/>
        <pt x="1217" y="190" on="1"/>
        <pt x="1126" y="88" on="0"/>
        <pt x="1000" y="34" on="1"/>
        <pt x="1028" y="19" on="0"/>
        <pt x="1141" y="-50" on="0"/>
        <pt x="1176" y="-70" on="1"/>
        <pt x="1272" y="-125" on="0"/>
        <pt x="1372" y="-142" on="1"/>
        <pt x="1319" y="-272" on="1"/>
        <pt x="1204" y="-253" on="0"/>
        <pt x="1073" y="-171" on="1"/>
        <pt x="924" y="-79" on="0"/>
        <pt x="786" y="-24" on="0"/>
        <pt x="721" y="-18" on="1"/>
        <pt x="333" y="-15" on="0"/>
        <pt x="155" y="276" on="1"/>
        <pt x="45" y="451" on="0"/>
        <pt x="45" y="703" on="1"/>
        <pt x="45" y="855" on="0"/>
      </contour>
      <contour>
        <pt x="992" y="1193" on="1"/>
        <pt x="880" y="1271" on="0"/>
        <pt x="573" y="1271" on="0"/>
        <pt x="460" y="1196" on="1"/>
        <pt x="237" y="1047" on="0"/>
        <pt x="237" y="703" on="1"/>
        <pt x="237" y="354" on="0"/>
        <pt x="458" y="201" on="1"/>
        <pt x="570" y="123" on="0"/>
        <pt x="705" y="123" on="1"/>
        <pt x="954" y="123" on="0"/>
        <pt x="1085" y="297" on="1"/>
        <pt x="1210" y="464" on="0"/>
        <pt x="1210" y="703" on="1"/>
        <pt x="1210" y="1040" on="0"/>
      </contour>
    </TTGlyph>
    <TTGlyph name="R" xMin="180" yMin="0" xMax="1079" yMax="1409">
      <contour>
        <pt x="1079" y="0" on="1"/>
        <pt x="878" y="0" on="1"/>
        <pt x="361" y="628" on="1"/>
        <pt x="361" y="0" on="1"/>
        <pt x="180" y="0" on="1"/>
        <pt x="180" y="1372" on="1"/>
        <pt x="367" y="1409" on="0"/>
        <pt x="500" y="1409" on="1"/>
        <pt x="732" y="1409" on="0"/>
        <pt x="994" y="1196" on="0"/>
        <pt x="994" y="866" on="0"/>
        <pt x="876" y="757" on="1"/>
        <pt x="758" y="648" on="0"/>
        <pt x="559" y="631" on="1"/>
      </contour>
      <contour>
        <pt x="491" y="1270" on="1"/>
        <pt x="411" y="1270" on="0"/>
        <pt x="361" y="1252" on="1"/>
        <pt x="361" y="768" on="1"/>
        <pt x="386" y="768" on="1"/>
        <pt x="802" y="768" on="0"/>
        <pt x="802" y="1024" on="1"/>
        <pt x="802" y="1133" on="0"/>
        <pt x="709" y="1202" on="1"/>
        <pt x="615" y="1270" on="0"/>
      </contour>
    </TTGlyph>
    <TTGlyph name="S" xMin="96" yMin="-18" xMax="911" yMax="1409">
      <contour>
        <pt x="157" y="253" on="1"/>
        <pt x="185" y="233" on="0"/>
        <pt x="232" y="195" on="0"/>
        <pt x="292" y="162" on="0"/>
        <pt x="324" y="150" on="1"/>
        <pt x="394" y="122" on="0"/>
        <pt x="481" y="122" on="1"/>
        <pt x="627" y="122" on="0"/>
        <pt x="682" y="193" on="1"/>
        <pt x="729" y="254" on="0"/>
        <pt x="729" y="373" on="0"/>
        <pt x="717" y="407" on="1"/>
        <pt x="694" y="466" on="0"/>
        <pt x="625" y="518" on="1"/>
        <pt x="596" y="538" on="0"/>
        <pt x="556" y="561" on="1"/>
        <pt x="392" y="642" on="1"/>
        <pt x="300" y="692" on="0"/>
        <pt x="204" y="786" on="0"/>
        <pt x="180" y="826" on="1"/>
        <pt x="127" y="915" on="0"/>
        <pt x="127" y="1199" on="0"/>
        <pt x="230" y="1304" on="1"/>
        <pt x="333" y="1409" on="0"/>
        <pt x="498" y="1409" on="1"/>
        <pt x="603" y="1409" on="0"/>
        <pt x="770" y="1355" on="0"/>
        <pt x="819" y="1317" on="1"/>
        <pt x="781" y="1179" on="1"/>
        <pt x="662" y="1271" on="0"/>
        <pt x="511" y="1271" on="1"/>
        <pt x="416" y="1271" on="0"/>
        <pt x="309" y="1145" on="0"/>
        <pt x="309" y="1046" on="1"/>
        <pt x="309" y="1001" on="0"/>
        <pt x="324" y="964" on="1"/>
        <pt x="349" y="898" on="0"/>
        <pt x="428" y="846" on="1"/>
        <pt x="459" y="824" on="0"/>
        <pt x="514" y="800" on="1"/>
        <pt x="671" y="720" on="1"/>
        <pt x="713" y="697" on="0"/>
        <pt x="778" y="652" on="0"/>
        <pt x="810" y="620" on="1"/>
        <pt x="911" y="519" on="0"/>
        <pt x="911" y="200" on="0"/>
        <pt x="802" y="91" on="1"/>
        <pt x="693" y="-18" on="0"/>
        <pt x="518" y="-18" on="1"/>
        <pt x="326" y="-18" on="0"/>
        <pt x="202" y="50" on="1"/>
        <pt x="135" y="86" on="0"/>
        <pt x="96" y="113" on="1"/>
      </contour>
    </TTGlyph>
    <TTGlyph name="Scaron" xMin="96" yMin="-18" xMax="911" yMax="1902">
      <component glyphName=".ttfautohint" x="96" y="0" flags="0x0"/>
      <component glyphName="S" x="0" y="0" flags="0x1204"/>
      <component glyphName="uni030C" x="504" y="453" flags="0x1004"/>
    </TTGlyph>
    <TTGlyph name="T" xMin="57" yMin="0" xMax="1126" yMax="1391">
      <contour>
        <pt x="57" y="1391" on="1"/>
        <pt x="1126" y="1391" on="1"/>
        <pt x="1126" y="1252" on="1"/>
        <pt x="682" y="1252" on="1"/>
        <pt x="682" y="0" on="1"/>
        <pt x="501" y="0" on="1"/>
        <pt x="501" y="1252" on="1"/>
        <pt x="57" y="1252" on="1"/>
      </contour>
    </TTGlyph>
    <TTGlyph name="Thorn" xMin="180" yMin="0" xMax="1035" yMax="1391">
      <contour>
        <pt x="649" y="416" on="0"/>
        <pt x="843" y="547" on="0"/>
        <pt x="843" y="844" on="0"/>
        <pt x="649" y="976" on="0"/>
        <pt x="427" y="976" on="1"/>
        <pt x="361" y="976" on="1"/>
        <pt x="361" y="416" on="1"/>
        <pt x="427" y="416" on="1"/>
      </contour>
      <contour>
        <pt x="361" y="276" on="1"/>
        <pt x="361" y="0" on="1"/>
        <pt x="180" y="0" on="1"/>
        <pt x="180" y="1391" on="1"/>
        <pt x="361" y="1391" on="1"/>
        <pt x="361" y="1116" on="1"/>
        <pt x="531" y="1116" on="1"/>
        <pt x="679" y="1116" on="0"/>
        <pt x="909" y="1007" on="0"/>
        <pt x="1035" y="816" on="0"/>
        <pt x="1035" y="575" on="0"/>
        <pt x="909" y="384" on="0"/>
        <pt x="679" y="276" on="0"/>
        <pt x="531" y="276" on="1"/>
      </contour>
    </TTGlyph>
    <TTGlyph name="U" xMin="180" yMin="-18" xMax="1130" yMax="1391">
      <contour>
        <pt x="681" y="-18" on="1"/>
        <pt x="180" y="-18" on="0"/>
        <pt x="180" y="438" on="1"/>
        <pt x="180" y="1391" on="1"/>
        <pt x="361" y="1391" on="1"/>
        <pt x="361" y="486" on="1"/>
        <pt x="361" y="299" on="0"/>
        <pt x="447" y="211" on="1"/>
        <pt x="533" y="123" on="0"/>
        <pt x="674" y="123" on="1"/>
        <pt x="959" y="123" on="0"/>
        <pt x="959" y="513" on="1"/>
        <pt x="959" y="1391" on="1"/>
        <pt x="1130" y="1391" on="1"/>
        <pt x="1130" y="469" on="1"/>
        <pt x="1130" y="248" on="0"/>
        <pt x="1012" y="115" on="1"/>
        <pt x="894" y="-18" on="0"/>
      </contour>
    </TTGlyph>
    <TTGlyph name="Uacute" xMin="180" yMin="-18" xMax="1130" yMax="1911">
      <component glyphName=".ttfautohint" x="180" y="0" flags="0x0"/>
      <component glyphName="U" x="0" y="0" flags="0x1204"/>
      <component glyphName="acutecomb" x="655" y="436" flags="0x1004"/>
    </TTGlyph>
    <TTGlyph name="Ucircumflex" xMin="180" yMin="-18" xMax="1130" yMax="1885">
      <component glyphName=".ttfautohint" x="180" y="0" flags="0x0"/>
      <component glyphName="U" x="0" y="0" flags="0x1204"/>
      <component glyphName="uni0302" x="655" y="436" flags="0x1004"/>
    </TTGlyph>
    <TTGlyph name="Udieresis" xMin="180" yMin="-18" xMax="1130" yMax="1866">
      <component glyphName=".ttfautohint" x="180" y="0" flags="0x0"/>
      <component glyphName="U" x="0" y="0" flags="0x1204"/>
      <component glyphName="dieresis" x="183" y="436" flags="0x1004"/>
    </TTGlyph>
    <TTGlyph name="Ugrave" xMin="180" yMin="-18" xMax="1130" yMax="1911">
      <component glyphName=".ttfautohint" x="180" y="0" flags="0x0"/>
      <component glyphName="U" x="0" y="0" flags="0x1204"/>
      <component glyphName="gravecomb" x="655" y="436" flags="0x1004"/>
    </TTGlyph>
    <TTGlyph name="Uhungarumlaut" xMin="180" yMin="-18" xMax="1130" yMax="1911">
      <component glyphName=".ttfautohint" x="180" y="0" flags="0x0"/>
      <component glyphName="U" x="0" y="0" flags="0x1204"/>
      <component glyphName="uni030B" x="655" y="436" flags="0x1004"/>
    </TTGlyph>
    <TTGlyph name="Umacron" xMin="180" yMin="-18" xMax="1130" yMax="1795">
      <component glyphName=".ttfautohint" x="180" y="0" flags="0x0"/>
      <component glyphName="U" x="0" y="0" flags="0x1204"/>
      <component glyphName="uni0304" x="655" y="436" flags="0x1004"/>
    </TTGlyph>
    <TTGlyph name="Utilde" xMin="180" yMin="-18" xMax="1130" yMax="1792">
      <component glyphName=".ttfautohint" x="180" y="0" flags="0x0"/>
      <component glyphName="U" x="0" y="0" flags="0x1204"/>
      <component glyphName="tildecomb" x="655" y="436" flags="0x1004"/>
    </TTGlyph>
    <TTGlyph name="V" xMin="67" yMin="0" xMax="1261" yMax="1391">
      <contour>
        <pt x="669" y="248" on="1"/>
        <pt x="1093" y="1391" on="1"/>
        <pt x="1261" y="1391" on="1"/>
        <pt x="739" y="0" on="1"/>
        <pt x="589" y="0" on="1"/>
        <pt x="67" y="1391" on="1"/>
        <pt x="245" y="1391" on="1"/>
      </contour>
    </TTGlyph>
    <TTGlyph name="W" xMin="67" yMin="0" xMax="1960" yMax="1391">
      <contour>
        <pt x="1792" y="1391" on="1"/>
        <pt x="1960" y="1391" on="1"/>
        <pt x="1499" y="0" on="1"/>
        <pt x="1349" y="0" on="1"/>
        <pt x="1013" y="1014" on="1"/>
        <pt x="677" y="0" on="1"/>
        <pt x="527" y="0" on="1"/>
        <pt x="67" y="1391" on="1"/>
        <pt x="245" y="1391" on="1"/>
        <pt x="607" y="248" on="1"/>
        <pt x="970" y="1391" on="1"/>
        <pt x="1067" y="1391" on="1"/>
        <pt x="1429" y="248" on="1"/>
      </contour>
    </TTGlyph>
    <TTGlyph name="Wcircumflex" xMin="67" yMin="0" xMax="1960" yMax="1902">
      <component glyphName=".ttfautohint" x="67" y="0" flags="0x0"/>
      <component glyphName="W" x="0" y="0" flags="0x1204"/>
      <component glyphName="uni0302" x="1013" y="453" flags="0x1004"/>
    </TTGlyph>
    <TTGlyph name="Wdieresis" xMin="67" yMin="0" xMax="1960" yMax="1883">
      <component glyphName=".ttfautohint" x="67" y="0" flags="0x0"/>
      <component glyphName="W" x="0" y="0" flags="0x1204"/>
      <component glyphName="dieresis" x="541" y="453" flags="0x1004"/>
    </TTGlyph>
    <TTGlyph name="X" xMin="84" yMin="-5" xMax="1204" yMax="1392">
      <contour>
        <pt x="108" y="1392" on="1"/>
        <pt x="319" y="1392" on="1"/>
        <pt x="662" y="854" on="1"/>
        <pt x="1002" y="1391" on="1"/>
        <pt x="1190" y="1391" on="1"/>
        <pt x="756" y="706" on="1"/>
        <pt x="1204" y="1" on="1"/>
        <pt x="992" y="1" on="1"/>
        <pt x="633" y="566" on="1"/>
        <pt x="272" y="-5" on="1"/>
        <pt x="84" y="-5" on="1"/>
        <pt x="539" y="714" on="1"/>
      </contour>
    </TTGlyph>
    <TTGlyph name="Y" xMin="59" yMin="0" xMax="1182" yMax="1391">
      <contour>
        <pt x="1014" y="1391" on="1"/>
        <pt x="1182" y="1391" on="1"/>
        <pt x="711" y="618" on="1"/>
        <pt x="711" y="0" on="1"/>
        <pt x="530" y="0" on="1"/>
        <pt x="530" y="619" on="1"/>
        <pt x="59" y="1391" on="1"/>
        <pt x="237" y="1391" on="1"/>
        <pt x="626" y="754" on="1"/>
      </contour>
    </TTGlyph>
    <TTGlyph name="Yacute" xMin="59" yMin="0" xMax="1182" yMax="1928">
      <component glyphName=".ttfautohint" x="59" y="0" flags="0x0"/>
      <component glyphName="Y" x="0" y="0" flags="0x1204"/>
      <component glyphName="acutecomb" x="620" y="453" flags="0x1004"/>
    </TTGlyph>
    <TTGlyph name="Z" xMin="50" yMin="-1" xMax="1116" yMax="1391">
      <contour>
        <pt x="87" y="1391" on="1"/>
        <pt x="1116" y="1391" on="1"/>
        <pt x="320" y="139" on="1"/>
        <pt x="1116" y="139" on="1"/>
        <pt x="1116" y="-1" on="1"/>
        <pt x="50" y="0" on="1"/>
        <pt x="846" y="1252" on="1"/>
        <pt x="87" y="1252" on="1"/>
      </contour>
    </TTGlyph>
    <TTGlyph name="a" xMin="76" yMin="-21" xMax="786" yMax="956">
      <contour>
        <pt x="605" y="422" on="1"/>
        <pt x="237" y="422" on="0"/>
        <pt x="237" y="239" on="1"/>
        <pt x="237" y="190" on="0"/>
        <pt x="298" y="106" on="0"/>
        <pt x="337" y="106" on="1"/>
        <pt x="376" y="106" on="1"/>
        <pt x="596" y="106" on="0"/>
        <pt x="611" y="337" on="1"/>
        <pt x="611" y="422" on="1"/>
      </contour>
      <contour>
        <pt x="145" y="893" on="1"/>
        <pt x="325" y="956" on="0"/>
        <pt x="555" y="956" on="0"/>
        <pt x="641" y="899" on="1"/>
        <pt x="727" y="842" on="0"/>
        <pt x="756" y="730" on="1"/>
        <pt x="772" y="667" on="0"/>
        <pt x="772" y="473" on="1"/>
        <pt x="772" y="160" on="1"/>
        <pt x="772" y="72" on="0"/>
        <pt x="786" y="0" on="1"/>
        <pt x="624" y="0" on="1"/>
        <pt x="611" y="41" on="0"/>
        <pt x="611" y="93" on="1"/>
        <pt x="611" y="100" on="1"/>
        <pt x="586" y="70" on="0"/>
        <pt x="556" y="48" on="1"/>
        <pt x="462" y="-21" on="0"/>
        <pt x="356" y="-21" on="1"/>
        <pt x="178" y="-21" on="0"/>
        <pt x="111" y="106" on="1"/>
        <pt x="76" y="169" on="0"/>
        <pt x="76" y="235" on="1"/>
        <pt x="76" y="410" on="0"/>
        <pt x="281" y="488" on="1"/>
        <pt x="404" y="535" on="0"/>
        <pt x="593" y="535" on="1"/>
        <pt x="611" y="535" on="1"/>
        <pt x="611" y="636" on="1"/>
        <pt x="611" y="746" on="0"/>
        <pt x="569" y="786" on="1"/>
        <pt x="520" y="832" on="0"/>
        <pt x="292" y="832" on="0"/>
        <pt x="153" y="768" on="1"/>
      </contour>
    </TTGlyph>
    <TTGlyph name="aacute" xMin="76" yMin="-21" xMax="786" yMax="1475">
      <component glyphName=".ttfautohint" x="76" y="0" flags="0x0"/>
      <component glyphName="a" x="0" y="0" flags="0x1204"/>
      <component glyphName="acutecomb" x="439" y="0" flags="0x1004"/>
    </TTGlyph>
    <TTGlyph name="abreve" xMin="76" yMin="-21" xMax="786" yMax="1440">
      <component glyphName=".ttfautohint" x="76" y="0" flags="0x0"/>
      <component glyphName="a" x="0" y="0" flags="0x1204"/>
      <component glyphName="uni0306" x="439" y="0" flags="0x1004"/>
    </TTGlyph>
    <TTGlyph name="acircumflex" xMin="76" yMin="-21" xMax="786" yMax="1449">
      <component glyphName=".ttfautohint" x="76" y="0" flags="0x0"/>
      <component glyphName="a" x="0" y="0" flags="0x1204"/>
      <component glyphName="uni0302" x="439" y="0" flags="0x1004"/>
    </TTGlyph>
    <TTGlyph name="acutecomb" xMin="-82" yMin="1100" xMax="249" yMax="1475">
      <contour>
        <pt x="249" y="1475" on="1"/>
        <pt x="10" y="1100" on="1"/>
        <pt x="-82" y="1144" on="1"/>
        <pt x="61" y="1475" on="1"/>
      </contour>
    </TTGlyph>
    <TTGlyph name="adieresis" xMin="76" yMin="-21" xMax="793" yMax="1430">
      <component glyphName=".ttfautohint" x="76" y="0" flags="0x0"/>
      <component glyphName="a" x="0" y="0" flags="0x1204"/>
      <component glyphName="dieresis" x="-33" y="0" flags="0x1004"/>
    </TTGlyph>
    <TTGlyph name="ae" xMin="68" yMin="-18" xMax="1424" yMax="956">
      <contour>
        <pt x="430" y="828" on="1"/>
        <pt x="300" y="828" on="0"/>
        <pt x="150" y="752" on="1"/>
        <pt x="117" y="866" on="1"/>
        <pt x="209" y="912" on="0"/>
        <pt x="369" y="956" on="0"/>
        <pt x="464" y="956" on="1"/>
        <pt x="641" y="956" on="0"/>
        <pt x="727" y="822" on="1"/>
        <pt x="847" y="956" on="0"/>
        <pt x="1032" y="956" on="1"/>
        <pt x="1230" y="956" on="0"/>
        <pt x="1332" y="822" on="1"/>
        <pt x="1418" y="707" on="0"/>
        <pt x="1424" y="520" on="1"/>
        <pt x="1400" y="460" on="1"/>
        <pt x="774" y="460" on="1"/>
        <pt x="776" y="291" on="0"/>
        <pt x="951" y="111" on="0"/>
        <pt x="1094" y="111" on="1"/>
        <pt x="1204" y="111" on="0"/>
        <pt x="1346" y="170" on="1"/>
        <pt x="1390" y="55" on="1"/>
        <pt x="1282" y="-18" on="0"/>
        <pt x="1098" y="-18" on="1"/>
        <pt x="828" y="-18" on="0"/>
        <pt x="699" y="162" on="1"/>
        <pt x="643" y="81" on="0"/>
        <pt x="452" y="-18" on="0"/>
        <pt x="210" y="-18" on="0"/>
        <pt x="68" y="91" on="0"/>
        <pt x="68" y="200" on="1"/>
        <pt x="68" y="270" on="0"/>
        <pt x="132" y="350" on="0"/>
        <pt x="178" y="395" on="0"/>
        <pt x="255" y="442" on="0"/>
        <pt x="316" y="476" on="0"/>
        <pt x="415" y="519" on="0"/>
        <pt x="477" y="544" on="0"/>
        <pt x="585" y="587" on="0"/>
        <pt x="612" y="598" on="1"/>
        <pt x="613" y="655" on="1"/>
        <pt x="605" y="828" on="0"/>
      </contour>
      <contour>
        <pt x="612" y="481" on="1"/>
        <pt x="557" y="458" on="0"/>
        <pt x="448" y="416" on="0"/>
        <pt x="346" y="364" on="0"/>
        <pt x="308" y="338" on="1"/>
        <pt x="222" y="280" on="0"/>
        <pt x="222" y="210" on="1"/>
        <pt x="222" y="171" on="0"/>
        <pt x="248" y="147" on="1"/>
        <pt x="286" y="111" on="0"/>
        <pt x="424" y="111" on="0"/>
        <pt x="528" y="159" on="0"/>
        <pt x="556" y="193" on="1"/>
        <pt x="612" y="263" on="0"/>
        <pt x="612" y="312" on="1"/>
      </contour>
      <contour>
        <pt x="781" y="580" on="1"/>
        <pt x="1266" y="580" on="1"/>
        <pt x="1257" y="689" on="0"/>
        <pt x="1144" y="828" on="0"/>
        <pt x="1040" y="828" on="1"/>
        <pt x="817" y="828" on="0"/>
      </contour>
    </TTGlyph>
    <TTGlyph name="afii57929" xMin="75" yMin="891" xMax="351" yMax="1409">
      <contour>
        <pt x="205" y="1158" on="1"/>
        <pt x="205" y="1176" on="0"/>
        <pt x="156" y="1200" on="1"/>
        <pt x="138" y="1208" on="0"/>
        <pt x="107" y="1258" on="0"/>
        <pt x="107" y="1338" on="0"/>
        <pt x="170" y="1409" on="0"/>
        <pt x="266" y="1409" on="0"/>
        <pt x="321" y="1374" on="0"/>
        <pt x="332" y="1346" on="1"/>
        <pt x="351" y="1298" on="0"/>
        <pt x="351" y="1237" on="1"/>
        <pt x="351" y="1078" on="0"/>
        <pt x="157" y="891" on="1"/>
        <pt x="75" y="963" on="1"/>
        <pt x="205" y="1087" on="0"/>
      </contour>
    </TTGlyph>
    <TTGlyph name="afii64937" xMin="75" yMin="891" xMax="351" yMax="1409">
      <contour>
        <pt x="221" y="1158" on="1"/>
        <pt x="221" y="1087" on="0"/>
        <pt x="351" y="963" on="1"/>
        <pt x="269" y="891" on="1"/>
        <pt x="153" y="1003" on="0"/>
        <pt x="75" y="1176" on="0"/>
        <pt x="75" y="1254" on="1"/>
        <pt x="75" y="1409" on="0"/>
        <pt x="201" y="1409" on="1"/>
        <pt x="256" y="1409" on="0"/>
        <pt x="319" y="1338" on="0"/>
        <pt x="319" y="1258" on="0"/>
        <pt x="288" y="1208" on="0"/>
        <pt x="270" y="1200" on="1"/>
        <pt x="221" y="1176" on="0"/>
      </contour>
    </TTGlyph>
    <TTGlyph name="agrave" xMin="76" yMin="-21" xMax="786" yMax="1475">
      <component glyphName=".ttfautohint" x="76" y="0" flags="0x0"/>
      <component glyphName="a" x="0" y="0" flags="0x1204"/>
      <component glyphName="gravecomb" x="439" y="0" flags="0x1004"/>
    </TTGlyph>
    <TTGlyph name="amacron" xMin="76" yMin="-21" xMax="786" yMax="1359">
      <component glyphName=".ttfautohint" x="76" y="0" flags="0x0"/>
      <component glyphName="a" x="0" y="0" flags="0x1204"/>
      <component glyphName="uni0304" x="439" y="0" flags="0x1004"/>
    </TTGlyph>
    <TTGlyph name="ampersand" xMin="76" yMin="-18" xMax="1319" yMax="1386">
      <contour>
        <pt x="452" y="714" on="1"/>
        <pt x="354" y="667" on="0"/>
        <pt x="237" y="482" on="0"/>
        <pt x="237" y="258" on="0"/>
        <pt x="411" y="111" on="0"/>
        <pt x="631" y="111" on="0"/>
        <pt x="828" y="190" on="0"/>
        <pt x="876" y="255" on="1"/>
      </contour>
      <contour>
        <pt x="372" y="828" on="1"/>
        <pt x="296" y="941" on="0"/>
        <pt x="296" y="1224" on="0"/>
        <pt x="486" y="1386" on="0"/>
        <pt x="616" y="1386" on="1"/>
        <pt x="812" y="1386" on="0"/>
        <pt x="944" y="1296" on="1"/>
        <pt x="904" y="1156" on="1"/>
        <pt x="878" y="1179" on="0"/>
        <pt x="709" y="1257" on="0"/>
        <pt x="582" y="1257" on="0"/>
        <pt x="544" y="1225" on="1"/>
        <pt x="480" y="1171" on="0"/>
        <pt x="480" y="943" on="0"/>
        <pt x="566" y="828" on="1"/>
        <pt x="711" y="635" on="0"/>
        <pt x="972" y="374" on="1"/>
        <pt x="1030" y="462" on="0"/>
        <pt x="1138" y="793" on="0"/>
        <pt x="1156" y="920" on="1"/>
        <pt x="1262" y="852" on="1"/>
        <pt x="1249" y="729" on="0"/>
        <pt x="1117" y="380" on="0"/>
        <pt x="1052" y="286" on="1"/>
        <pt x="1319" y="0" on="1"/>
        <pt x="1108" y="0" on="1"/>
        <pt x="960" y="160" on="1"/>
        <pt x="930" y="136" on="0"/>
        <pt x="879" y="86" on="0"/>
        <pt x="807" y="40" on="0"/>
        <pt x="767" y="22" on="1"/>
        <pt x="678" y="-18" on="0"/>
        <pt x="447" y="-18" on="0"/>
        <pt x="286" y="29" on="0"/>
        <pt x="154" y="120" on="0"/>
        <pt x="76" y="274" on="0"/>
        <pt x="76" y="474" on="0"/>
        <pt x="165" y="657" on="0"/>
        <pt x="290" y="777" on="0"/>
      </contour>
    </TTGlyph>
    <TTGlyph name="aring" xMin="76" yMin="-21" xMax="786" yMax="1400">
      <component glyphName=".ttfautohint" x="76" y="0" flags="0x0"/>
      <component glyphName="a" x="0" y="0" flags="0x1204"/>
      <component glyphName="uni030A" x="439" y="0" flags="0x1004"/>
    </TTGlyph>
    <TTGlyph name="asciicircum" xMin="65" yMin="795" xMax="1015" yMax="1409">
      <contour>
        <pt x="600" y="1409" on="1"/>
        <pt x="1015" y="828" on="1"/>
        <pt x="915" y="795" on="1"/>
        <pt x="540" y="1310" on="1"/>
        <pt x="165" y="795" on="1"/>
        <pt x="65" y="828" on="1"/>
        <pt x="480" y="1409" on="1"/>
      </contour>
    </TTGlyph>
    <TTGlyph name="asciitilde" xMin="59" yMin="423" xMax="1086" yMax="699">
      <contour>
        <pt x="167" y="423" on="1"/>
        <pt x="59" y="489" on="1"/>
        <pt x="205" y="695" on="0"/>
        <pt x="375" y="695" on="1"/>
        <pt x="437" y="695" on="0"/>
        <pt x="588" y="643" on="0"/>
        <pt x="732" y="591" on="0"/>
        <pt x="785" y="591" on="1"/>
        <pt x="893" y="591" on="0"/>
        <pt x="978" y="699" on="1"/>
        <pt x="1086" y="633" on="1"/>
        <pt x="940" y="427" on="0"/>
        <pt x="770" y="427" on="1"/>
        <pt x="708" y="427" on="0"/>
        <pt x="557" y="479" on="0"/>
        <pt x="413" y="531" on="0"/>
        <pt x="360" y="531" on="1"/>
        <pt x="252" y="531" on="0"/>
      </contour>
    </TTGlyph>
    <TTGlyph name="asterisk" xMin="93" yMin="645" xMax="748" yMax="1315">
      <contour>
        <pt x="454" y="953" on="1"/>
        <pt x="603" y="704" on="1"/>
        <pt x="477" y="645" on="1"/>
        <pt x="398" y="930" on="1"/>
        <pt x="208" y="711" on="1"/>
        <pt x="113" y="813" on="1"/>
        <pt x="360" y="975" on="1"/>
        <pt x="93" y="1088" on="1"/>
        <pt x="161" y="1210" on="1"/>
        <pt x="391" y="1026" on="1"/>
        <pt x="416" y="1315" on="1"/>
        <pt x="553" y="1288" on="1"/>
        <pt x="449" y="1012" on="1"/>
        <pt x="732" y="1078" on="1"/>
        <pt x="748" y="939" on="1"/>
      </contour>
    </TTGlyph>
    <TTGlyph name="at" xMin="90" yMin="-492" xMax="1930" yMax="1408">
      <contour>
        <pt x="1855" y="973" on="0"/>
        <pt x="1930" y="736" on="0"/>
        <pt x="1930" y="511" on="0"/>
        <pt x="1883" y="326" on="0"/>
        <pt x="1791" y="170" on="0"/>
        <pt x="1728" y="111" on="1"/>
        <pt x="1595" y="-15" on="0"/>
        <pt x="1409" y="-15" on="1"/>
        <pt x="1204" y="-15" on="0"/>
        <pt x="1166" y="96" on="1"/>
        <pt x="1160" y="116" on="0"/>
        <pt x="1156" y="144" on="1"/>
        <pt x="1041" y="-18" on="0"/>
        <pt x="848" y="-18" on="1"/>
        <pt x="718" y="-18" on="0"/>
        <pt x="638" y="58" on="1"/>
        <pt x="553" y="137" on="0"/>
        <pt x="553" y="305" on="1"/>
        <pt x="553" y="652" on="0"/>
        <pt x="814" y="848" on="1"/>
        <pt x="960" y="957" on="0"/>
        <pt x="1124" y="957" on="1"/>
        <pt x="1223" y="957" on="0"/>
        <pt x="1369" y="910" on="0"/>
        <pt x="1442" y="859" on="1"/>
        <pt x="1351" y="392" on="1"/>
        <pt x="1327" y="270" on="0"/>
        <pt x="1327" y="144" on="0"/>
        <pt x="1379" y="95" on="0"/>
        <pt x="1526" y="95" on="0"/>
        <pt x="1688" y="243" on="0"/>
        <pt x="1787" y="476" on="0"/>
        <pt x="1787" y="740" on="0"/>
        <pt x="1685" y="996" on="0"/>
        <pt x="1501" y="1188" on="0"/>
        <pt x="1226" y="1300" on="0"/>
        <pt x="940" y="1300" on="0"/>
        <pt x="696" y="1218" on="0"/>
        <pt x="487" y="1060" on="0"/>
        <pt x="325" y="848" on="0"/>
        <pt x="233" y="571" on="0"/>
        <pt x="233" y="250" on="0"/>
        <pt x="354" y="-49" on="0"/>
        <pt x="564" y="-261" on="0"/>
        <pt x="861" y="-384" on="0"/>
        <pt x="1030" y="-384" on="1"/>
        <pt x="1334" y="-384" on="0"/>
        <pt x="1579" y="-194" on="1"/>
        <pt x="1612" y="-169" on="0"/>
        <pt x="1665" y="-125" on="1"/>
        <pt x="1755" y="-195" on="1"/>
        <pt x="1634" y="-324" on="0"/>
        <pt x="1259" y="-492" on="0"/>
        <pt x="866" y="-492" on="0"/>
        <pt x="587" y="-418" on="0"/>
        <pt x="385" y="-286" on="0"/>
        <pt x="230" y="-111" on="0"/>
        <pt x="184" y="-6" on="1"/>
        <pt x="90" y="205" on="0"/>
        <pt x="90" y="436" on="1"/>
        <pt x="90" y="760" on="0"/>
        <pt x="279" y="1010" on="1"/>
        <pt x="470" y="1264" on="0"/>
        <pt x="752" y="1359" on="1"/>
        <pt x="897" y="1408" on="0"/>
        <pt x="1213" y="1408" on="0"/>
        <pt x="1496" y="1323" on="0"/>
        <pt x="1704" y="1174" on="0"/>
      </contour>
      <contour>
        <pt x="1268" y="791" on="1"/>
        <pt x="1217" y="828" on="0"/>
        <pt x="1065" y="828" on="0"/>
        <pt x="946" y="789" on="0"/>
        <pt x="862" y="725" on="0"/>
        <pt x="794" y="637" on="0"/>
        <pt x="753" y="545" on="0"/>
        <pt x="739" y="494" on="1"/>
        <pt x="714" y="404" on="0"/>
        <pt x="714" y="211" on="0"/>
        <pt x="808" y="110" on="0"/>
        <pt x="931" y="110" on="0"/>
        <pt x="1014" y="138" on="0"/>
        <pt x="1050" y="166" on="1"/>
        <pt x="1111" y="215" on="0"/>
        <pt x="1171" y="291" on="1"/>
      </contour>
    </TTGlyph>
    <TTGlyph name="atilde" xMin="76" yMin="-21" xMax="786" yMax="1356">
      <component glyphName=".ttfautohint" x="76" y="0" flags="0x0"/>
      <component glyphName="a" x="0" y="0" flags="0x1204"/>
      <component glyphName="tildecomb" x="439" y="0" flags="0x1004"/>
    </TTGlyph>
    <TTGlyph name="b" xMin="164" yMin="-18" xMax="999" yMax="1475">
      <contour>
        <pt x="594" y="828" on="1"/>
        <pt x="431" y="828" on="0"/>
        <pt x="325" y="648" on="1"/>
        <pt x="325" y="148" on="1"/>
        <pt x="383" y="111" on="0"/>
        <pt x="480" y="111" on="1"/>
        <pt x="742" y="111" on="0"/>
        <pt x="817" y="343" on="1"/>
        <pt x="838" y="411" on="0"/>
        <pt x="838" y="582" on="0"/>
        <pt x="816" y="650" on="1"/>
        <pt x="780" y="768" on="0"/>
        <pt x="681" y="811" on="1"/>
        <pt x="640" y="828" on="0"/>
      </contour>
      <contour>
        <pt x="390" y="901" on="0"/>
        <pt x="524" y="956" on="0"/>
        <pt x="604" y="956" on="1"/>
        <pt x="766" y="956" on="0"/>
        <pt x="878" y="846" on="1"/>
        <pt x="934" y="791" on="0"/>
        <pt x="999" y="604" on="0"/>
        <pt x="999" y="496" on="1"/>
        <pt x="999" y="211" on="0"/>
        <pt x="786" y="64" on="1"/>
        <pt x="665" y="-18" on="0"/>
        <pt x="526" y="-18" on="1"/>
        <pt x="323" y="-18" on="0"/>
        <pt x="164" y="80" on="1"/>
        <pt x="164" y="1475" on="1"/>
        <pt x="325" y="1475" on="1"/>
        <pt x="325" y="828" on="1"/>
      </contour>
    </TTGlyph>
    <TTGlyph name="backslash" xMin="24" yMin="0" xMax="621" yMax="1475">
      <contour>
        <pt x="152" y="1475" on="1"/>
        <pt x="621" y="0" on="1"/>
        <pt x="493" y="0" on="1"/>
        <pt x="24" y="1475" on="1"/>
      </contour>
    </TTGlyph>
    <TTGlyph name="bar" xMin="100" yMin="-488" xMax="210" yMax="1477">
      <contour>
        <pt x="210" y="1477" on="1"/>
        <pt x="210" y="-488" on="1"/>
        <pt x="100" y="-488" on="1"/>
        <pt x="100" y="1477" on="1"/>
      </contour>
    </TTGlyph>
    <TTGlyph name="braceleft" xMin="53" yMin="-522" xMax="546" yMax="1506">
      <contour>
        <pt x="214" y="492" on="1"/>
        <pt x="281" y="470" on="0"/>
        <pt x="320" y="437" on="1"/>
        <pt x="407" y="365" on="0"/>
        <pt x="407" y="174" on="1"/>
        <pt x="407" y="114" on="0"/>
        <pt x="383" y="-138" on="0"/>
        <pt x="383" y="-194" on="0"/>
        <pt x="392" y="-253" on="0"/>
        <pt x="406" y="-293" on="1"/>
        <pt x="436" y="-374" on="0"/>
        <pt x="546" y="-441" on="1"/>
        <pt x="520" y="-522" on="1"/>
        <pt x="222" y="-441" on="0"/>
        <pt x="222" y="-152" on="1"/>
        <pt x="222" y="-76" on="0"/>
        <pt x="246" y="139" on="0"/>
        <pt x="246" y="246" on="0"/>
        <pt x="206" y="358" on="0"/>
        <pt x="176" y="388" on="1"/>
        <pt x="116" y="447" on="0"/>
        <pt x="53" y="447" on="1"/>
        <pt x="53" y="537" on="1"/>
        <pt x="116" y="537" on="0"/>
        <pt x="176" y="596" on="1"/>
        <pt x="246" y="665" on="0"/>
        <pt x="246" y="810" on="1"/>
        <pt x="246" y="845" on="0"/>
        <pt x="222" y="1060" on="0"/>
        <pt x="222" y="1136" on="1"/>
        <pt x="222" y="1425" on="0"/>
        <pt x="520" y="1506" on="1"/>
        <pt x="546" y="1425" on="1"/>
        <pt x="436" y="1358" on="0"/>
        <pt x="406" y="1277" on="1"/>
        <pt x="383" y="1212" on="0"/>
        <pt x="383" y="1122" on="0"/>
        <pt x="407" y="870" on="0"/>
        <pt x="407" y="709" on="0"/>
        <pt x="360" y="580" on="0"/>
        <pt x="281" y="514" on="0"/>
      </contour>
    </TTGlyph>
    <TTGlyph name="braceright" xMin="121" yMin="-522" xMax="614" yMax="1506">
      <contour>
        <pt x="453" y="492" on="1"/>
        <pt x="386" y="514" on="0"/>
        <pt x="346" y="547" on="1"/>
        <pt x="260" y="619" on="0"/>
        <pt x="260" y="810" on="1"/>
        <pt x="260" y="870" on="0"/>
        <pt x="284" y="1122" on="0"/>
        <pt x="284" y="1178" on="0"/>
        <pt x="275" y="1237" on="0"/>
        <pt x="260" y="1277" on="1"/>
        <pt x="231" y="1358" on="0"/>
        <pt x="121" y="1425" on="1"/>
        <pt x="147" y="1506" on="1"/>
        <pt x="445" y="1425" on="0"/>
        <pt x="445" y="1136" on="1"/>
        <pt x="445" y="1060" on="0"/>
        <pt x="421" y="845" on="0"/>
        <pt x="421" y="738" on="0"/>
        <pt x="461" y="626" on="0"/>
        <pt x="492" y="596" on="1"/>
        <pt x="551" y="537" on="0"/>
        <pt x="614" y="537" on="1"/>
        <pt x="614" y="447" on="1"/>
        <pt x="551" y="447" on="0"/>
        <pt x="492" y="388" on="1"/>
        <pt x="421" y="319" on="0"/>
        <pt x="421" y="174" on="1"/>
        <pt x="421" y="139" on="0"/>
        <pt x="445" y="-76" on="0"/>
        <pt x="445" y="-152" on="1"/>
        <pt x="445" y="-441" on="0"/>
        <pt x="147" y="-522" on="1"/>
        <pt x="121" y="-441" on="1"/>
        <pt x="231" y="-374" on="0"/>
        <pt x="260" y="-293" on="1"/>
        <pt x="284" y="-228" on="0"/>
        <pt x="284" y="-138" on="0"/>
        <pt x="260" y="114" on="0"/>
        <pt x="260" y="275" on="0"/>
        <pt x="307" y="404" on="0"/>
        <pt x="386" y="470" on="0"/>
      </contour>
    </TTGlyph>
    <TTGlyph name="bracketleft" xMin="100" yMin="-490" xMax="522" yMax="1475">
      <contour>
        <pt x="100" y="-490" on="1"/>
        <pt x="100" y="1475" on="1"/>
        <pt x="522" y="1475" on="1"/>
        <pt x="522" y="1347" on="1"/>
        <pt x="261" y="1347" on="1"/>
        <pt x="261" y="-362" on="1"/>
        <pt x="522" y="-362" on="1"/>
        <pt x="522" y="-490" on="1"/>
      </contour>
    </TTGlyph>
    <TTGlyph name="bracketright" xMin="100" yMin="-490" xMax="522" yMax="1475">
      <contour>
        <pt x="522" y="-490" on="1"/>
        <pt x="100" y="-490" on="1"/>
        <pt x="100" y="-362" on="1"/>
        <pt x="361" y="-362" on="1"/>
        <pt x="361" y="1347" on="1"/>
        <pt x="100" y="1347" on="1"/>
        <pt x="100" y="1475" on="1"/>
        <pt x="522" y="1475" on="1"/>
      </contour>
    </TTGlyph>
    <TTGlyph name="brokenbar" xMin="100" yMin="-488" xMax="210" yMax="1477">
      <contour>
        <pt x="210" y="298" on="1"/>
        <pt x="210" y="-488" on="1"/>
        <pt x="100" y="-488" on="1"/>
        <pt x="100" y="298" on="1"/>
      </contour>
      <contour>
        <pt x="210" y="1477" on="1"/>
        <pt x="210" y="691" on="1"/>
        <pt x="100" y="691" on="1"/>
        <pt x="100" y="1477" on="1"/>
      </contour>
    </TTGlyph>
    <TTGlyph name="bullet" xMin="63" yMin="330" xMax="403" yMax="678">
      <contour>
        <pt x="63" y="504" on="1"/>
        <pt x="63" y="576" on="0"/>
        <pt x="163" y="678" on="0"/>
        <pt x="233" y="678" on="1"/>
        <pt x="303" y="678" on="0"/>
        <pt x="403" y="576" on="0"/>
        <pt x="403" y="504" on="1"/>
        <pt x="403" y="432" on="0"/>
        <pt x="303" y="330" on="0"/>
        <pt x="233" y="330" on="1"/>
        <pt x="163" y="330" on="0"/>
        <pt x="63" y="432" on="0"/>
      </contour>
    </TTGlyph>
    <TTGlyph name="c" xMin="61" yMin="-18" xMax="836" yMax="956">
      <contour>
        <pt x="549" y="111" on="1"/>
        <pt x="666" y="111" on="0"/>
        <pt x="774" y="190" on="1"/>
        <pt x="836" y="82" on="1"/>
        <pt x="757" y="24" on="0"/>
        <pt x="633" y="-18" on="0"/>
        <pt x="508" y="-18" on="1"/>
        <pt x="302" y="-18" on="0"/>
        <pt x="61" y="248" on="0"/>
        <pt x="61" y="469" on="1"/>
        <pt x="61" y="690" on="0"/>
        <pt x="302" y="956" on="0"/>
        <pt x="508" y="956" on="1"/>
        <pt x="633" y="956" on="0"/>
        <pt x="757" y="914" on="0"/>
        <pt x="836" y="856" on="1"/>
        <pt x="774" y="748" on="1"/>
        <pt x="666" y="827" on="0"/>
        <pt x="549" y="827" on="1"/>
        <pt x="543" y="827" on="1"/>
        <pt x="397" y="827" on="0"/>
        <pt x="222" y="617" on="0"/>
        <pt x="222" y="469" on="1"/>
        <pt x="222" y="321" on="0"/>
        <pt x="397" y="111" on="0"/>
        <pt x="543" y="111" on="1"/>
      </contour>
    </TTGlyph>
    <TTGlyph name="cacute" xMin="61" yMin="-18" xMax="836" yMax="1475">
      <component glyphName=".ttfautohint" x="61" y="0" flags="0x0"/>
      <component glyphName="c" x="0" y="0" flags="0x1204"/>
      <component glyphName="acutecomb" x="486" y="0" flags="0x1004"/>
    </TTGlyph>
    <TTGlyph name="ccaron" xMin="61" yMin="-18" xMax="836" yMax="1449">
      <component glyphName=".ttfautohint" x="61" y="0" flags="0x0"/>
      <component glyphName="c" x="0" y="0" flags="0x1204"/>
      <component glyphName="uni030C" x="486" y="0" flags="0x1004"/>
    </TTGlyph>
    <TTGlyph name="ccedilla" xMin="61" yMin="-494" xMax="836" yMax="956">
      <contour>
        <pt x="549" y="111" on="1"/>
        <pt x="666" y="111" on="0"/>
        <pt x="774" y="190" on="1"/>
        <pt x="836" y="82" on="1"/>
        <pt x="757" y="24" on="0"/>
        <pt x="640" y="-16" on="0"/>
        <pt x="535" y="-18" on="1"/>
        <pt x="519" y="-62" on="0"/>
        <pt x="519" y="-106" on="1"/>
        <pt x="569" y="-119" on="0"/>
        <pt x="641" y="-221" on="0"/>
        <pt x="641" y="-370" on="0"/>
        <pt x="556" y="-459" on="0"/>
        <pt x="470" y="-494" on="1"/>
        <pt x="391" y="-419" on="1"/>
        <pt x="453" y="-393" on="0"/>
        <pt x="520" y="-335" on="0"/>
        <pt x="520" y="-235" on="0"/>
        <pt x="453" y="-172" on="0"/>
        <pt x="395" y="-172" on="1"/>
        <pt x="395" y="-82" on="0"/>
        <pt x="433" y="-13" on="1"/>
        <pt x="279" y="7" on="0"/>
        <pt x="182" y="115" on="1"/>
        <pt x="61" y="248" on="0"/>
        <pt x="61" y="469" on="1"/>
        <pt x="61" y="690" on="0"/>
        <pt x="302" y="956" on="0"/>
        <pt x="508" y="956" on="1"/>
        <pt x="633" y="956" on="0"/>
        <pt x="757" y="914" on="0"/>
        <pt x="836" y="856" on="1"/>
        <pt x="774" y="748" on="1"/>
        <pt x="666" y="827" on="0"/>
        <pt x="549" y="827" on="1"/>
        <pt x="543" y="827" on="1"/>
        <pt x="397" y="827" on="0"/>
        <pt x="222" y="617" on="0"/>
        <pt x="222" y="469" on="1"/>
        <pt x="222" y="321" on="0"/>
        <pt x="397" y="111" on="0"/>
        <pt x="543" y="111" on="1"/>
      </contour>
    </TTGlyph>
    <TTGlyph name="colon" xMin="107" yMin="-18" xMax="343" yMax="875">
      <component glyphName=".ttfautohint" x="107" y="0" flags="0x0"/>
      <component glyphName="period" x="0" y="651" flags="0x1004"/>
      <component glyphName="period" x="0" y="0" flags="0x1004"/>
    </TTGlyph>
    <TTGlyph name="comma" xMin="75" yMin="-294" xMax="351" yMax="224">
      <contour>
        <pt x="205" y="-27" on="1"/>
        <pt x="205" y="-9" on="0"/>
        <pt x="156" y="14" on="1"/>
        <pt x="138" y="23" on="0"/>
        <pt x="107" y="73" on="0"/>
        <pt x="107" y="153" on="0"/>
        <pt x="170" y="224" on="0"/>
        <pt x="266" y="224" on="0"/>
        <pt x="321" y="189" on="0"/>
        <pt x="332" y="161" on="1"/>
        <pt x="351" y="113" on="0"/>
        <pt x="351" y="52" on="1"/>
        <pt x="351" y="-107" on="0"/>
        <pt x="157" y="-294" on="1"/>
        <pt x="75" y="-222" on="1"/>
        <pt x="205" y="-98" on="0"/>
      </contour>
    </TTGlyph>
    <TTGlyph name="currency" xMin="170" yMin="109" xMax="960" yMax="899">
      <contour>
        <pt x="454" y="550" on="0"/>
        <pt x="454" y="504" on="1"/>
        <pt x="454" y="458" on="0"/>
        <pt x="519" y="393" on="0"/>
        <pt x="565" y="393" on="1"/>
        <pt x="611" y="393" on="0"/>
        <pt x="676" y="458" on="0"/>
        <pt x="676" y="504" on="1"/>
        <pt x="676" y="550" on="0"/>
        <pt x="611" y="615" on="0"/>
        <pt x="565" y="615" on="1"/>
        <pt x="519" y="615" on="0"/>
      </contour>
      <contour>
        <pt x="375" y="390" on="1"/>
        <pt x="343" y="442" on="0"/>
        <pt x="343" y="565" on="0"/>
        <pt x="374" y="617" on="1"/>
        <pt x="170" y="821" on="1"/>
        <pt x="248" y="899" on="1"/>
        <pt x="452" y="695" on="1"/>
        <pt x="504" y="726" on="0"/>
        <pt x="627" y="726" on="0"/>
        <pt x="679" y="694" on="1"/>
        <pt x="883" y="899" on="1"/>
        <pt x="960" y="821" on="1"/>
        <pt x="756" y="617" on="1"/>
        <pt x="787" y="565" on="0"/>
        <pt x="787" y="504" on="1"/>
        <pt x="787" y="443" on="0"/>
        <pt x="756" y="391" on="1"/>
        <pt x="960" y="187" on="1"/>
        <pt x="882" y="109" on="1"/>
        <pt x="678" y="313" on="1"/>
        <pt x="626" y="282" on="0"/>
        <pt x="565" y="282" on="1"/>
        <pt x="504" y="282" on="0"/>
        <pt x="452" y="313" on="1"/>
        <pt x="248" y="109" on="1"/>
        <pt x="170" y="186" on="1"/>
      </contour>
    </TTGlyph>
    <TTGlyph name="d" xMin="61" yMin="-18" xMax="899" yMax="1475">
      <contour>
        <pt x="465" y="-18" on="1"/>
        <pt x="349" y="-18" on="0"/>
        <pt x="255" y="46" on="1"/>
        <pt x="161" y="110" on="0"/>
        <pt x="61" y="315" on="0"/>
        <pt x="61" y="432" on="1"/>
        <pt x="61" y="665" on="0"/>
        <pt x="332" y="956" on="0"/>
        <pt x="533" y="956" on="1"/>
        <pt x="617" y="956" on="0"/>
        <pt x="734" y="924" on="1"/>
        <pt x="734" y="1475" on="1"/>
        <pt x="899" y="1475" on="1"/>
        <pt x="899" y="0" on="1"/>
        <pt x="734" y="0" on="1"/>
        <pt x="734" y="110" on="1"/>
        <pt x="621" y="-18" on="0"/>
      </contour>
      <contour>
        <pt x="734" y="784" on="1"/>
        <pt x="651" y="828" on="0"/>
        <pt x="570" y="828" on="1"/>
        <pt x="430" y="828" on="0"/>
        <pt x="328" y="722" on="1"/>
        <pt x="222" y="609" on="0"/>
        <pt x="222" y="297" on="0"/>
        <pt x="371" y="111" on="0"/>
        <pt x="480" y="111" on="1"/>
        <pt x="554" y="111" on="0"/>
        <pt x="688" y="212" on="0"/>
        <pt x="734" y="290" on="1"/>
      </contour>
    </TTGlyph>
    <TTGlyph name="dcroat" xMin="61" yMin="-18" xMax="1063" yMax="1475">
      <contour>
        <pt x="734" y="784" on="1"/>
        <pt x="651" y="828" on="0"/>
        <pt x="488" y="828" on="0"/>
        <pt x="375" y="771" on="0"/>
        <pt x="281" y="672" on="0"/>
        <pt x="222" y="522" on="0"/>
        <pt x="222" y="436" on="1"/>
        <pt x="222" y="297" on="0"/>
        <pt x="371" y="111" on="0"/>
        <pt x="480" y="111" on="1"/>
        <pt x="554" y="111" on="0"/>
        <pt x="688" y="212" on="0"/>
        <pt x="734" y="290" on="1"/>
      </contour>
      <contour>
        <pt x="465" y="-18" on="1"/>
        <pt x="349" y="-18" on="0"/>
        <pt x="161" y="110" on="0"/>
        <pt x="61" y="315" on="0"/>
        <pt x="61" y="432" on="1"/>
        <pt x="61" y="665" on="0"/>
        <pt x="332" y="956" on="0"/>
        <pt x="533" y="956" on="1"/>
        <pt x="617" y="956" on="0"/>
        <pt x="734" y="924" on="1"/>
        <pt x="734" y="1143" on="1"/>
        <pt x="505" y="1143" on="1"/>
        <pt x="505" y="1252" on="1"/>
        <pt x="734" y="1252" on="1"/>
        <pt x="734" y="1475" on="1"/>
        <pt x="899" y="1475" on="1"/>
        <pt x="899" y="1251" on="1"/>
        <pt x="1063" y="1251" on="1"/>
        <pt x="1063" y="1142" on="1"/>
        <pt x="899" y="1142" on="1"/>
        <pt x="899" y="0" on="1"/>
        <pt x="734" y="0" on="1"/>
        <pt x="734" y="110" on="1"/>
        <pt x="621" y="-18" on="0"/>
      </contour>
    </TTGlyph>
    <TTGlyph name="dieresis" xMin="118" yMin="1188" xMax="826" yMax="1430">
      <component glyphName=".ttfautohint" x="118" y="1188" flags="0x0"/>
      <component glyphName="uni0308" x="472" y="0" flags="0x1004"/>
    </TTGlyph>
    <TTGlyph name="divide" xMin="61" yMin="57" xMax="1069" yMax="950">
      <contour>
        <pt x="1069" y="449" on="1"/>
        <pt x="61" y="449" on="1"/>
        <pt x="61" y="558" on="1"/>
        <pt x="1069" y="558" on="1"/>
      </contour>
      <contour>
        <pt x="447" y="829" on="1"/>
        <pt x="447" y="879" on="0"/>
        <pt x="516" y="950" on="0"/>
        <pt x="565" y="950" on="1"/>
        <pt x="614" y="950" on="0"/>
        <pt x="683" y="879" on="0"/>
        <pt x="683" y="829" on="1"/>
        <pt x="683" y="779" on="0"/>
        <pt x="614" y="708" on="0"/>
        <pt x="565" y="708" on="1"/>
        <pt x="516" y="708" on="0"/>
        <pt x="447" y="779" on="0"/>
      </contour>
      <contour>
        <pt x="447" y="178" on="1"/>
        <pt x="447" y="228" on="0"/>
        <pt x="516" y="299" on="0"/>
        <pt x="565" y="299" on="1"/>
        <pt x="614" y="299" on="0"/>
        <pt x="683" y="228" on="0"/>
        <pt x="683" y="178" on="1"/>
        <pt x="683" y="128" on="0"/>
        <pt x="614" y="57" on="0"/>
        <pt x="565" y="57" on="1"/>
        <pt x="516" y="57" on="0"/>
        <pt x="447" y="128" on="0"/>
      </contour>
    </TTGlyph>
    <TTGlyph name="dollar" xMin="96" yMin="-180" xMax="870" yMax="1338">
      <contour>
        <pt x="429" y="683" on="1"/>
        <pt x="429" y="1040" on="1"/>
        <pt x="366" y="1024" on="0"/>
        <pt x="287" y="936" on="0"/>
        <pt x="287" y="872" on="1"/>
        <pt x="287" y="808" on="0"/>
        <pt x="361" y="719" on="0"/>
      </contour>
      <contour>
        <pt x="429" y="1174" on="1"/>
        <pt x="429" y="1338" on="1"/>
        <pt x="546" y="1338" on="1"/>
        <pt x="546" y="1173" on="1"/>
        <pt x="695" y="1159" on="0"/>
        <pt x="783" y="1099" on="1"/>
        <pt x="747" y="971" on="1"/>
        <pt x="659" y="1031" on="0"/>
        <pt x="546" y="1044" on="1"/>
        <pt x="546" y="629" on="1"/>
        <pt x="547" y="628" on="0"/>
        <pt x="585" y="612" on="0"/>
        <pt x="620" y="597" on="0"/>
        <pt x="685" y="566" on="0"/>
        <pt x="720" y="544" on="0"/>
        <pt x="773" y="508" on="0"/>
        <pt x="803" y="476" on="0"/>
        <pt x="839" y="432" on="0"/>
        <pt x="848" y="409" on="1"/>
        <pt x="870" y="353" on="0"/>
        <pt x="870" y="296" on="1"/>
        <pt x="870" y="175" on="0"/>
        <pt x="693" y="-2" on="0"/>
        <pt x="546" y="-16" on="1"/>
        <pt x="546" y="-180" on="1"/>
        <pt x="429" y="-180" on="1"/>
        <pt x="429" y="-16" on="1"/>
        <pt x="268" y="-6" on="0"/>
        <pt x="150" y="62" on="1"/>
        <pt x="125" y="76" on="0"/>
        <pt x="96" y="91" on="1"/>
        <pt x="154" y="211" on="1"/>
        <pt x="262" y="141" on="0"/>
        <pt x="379" y="116" on="0"/>
        <pt x="429" y="113" on="1"/>
        <pt x="429" y="527" on="1"/>
        <pt x="297" y="586" on="0"/>
        <pt x="224" y="646" on="0"/>
        <pt x="174" y="698" on="0"/>
        <pt x="160" y="726" on="1"/>
        <pt x="126" y="791" on="0"/>
        <pt x="126" y="867" on="1"/>
        <pt x="126" y="989" on="0"/>
        <pt x="292" y="1159" on="0"/>
      </contour>
      <contour>
        <pt x="546" y="473" on="1"/>
        <pt x="546" y="117" on="1"/>
        <pt x="625" y="131" on="0"/>
        <pt x="709" y="221" on="0"/>
        <pt x="709" y="281" on="1"/>
        <pt x="709" y="390" on="0"/>
      </contour>
    </TTGlyph>
    <TTGlyph name="dotbelowcomb" xMin="-118" yMin="-304" xMax="118" yMax="-62">
      <contour>
        <pt x="-118" y="-183" on="1"/>
        <pt x="-118" y="-133" on="0"/>
        <pt x="-49" y="-62" on="0"/>
        <pt x="0" y="-62" on="1"/>
        <pt x="49" y="-62" on="0"/>
        <pt x="118" y="-133" on="0"/>
        <pt x="118" y="-183" on="1"/>
        <pt x="118" y="-233" on="0"/>
        <pt x="49" y="-304" on="0"/>
        <pt x="0" y="-304" on="1"/>
        <pt x="-49" y="-304" on="0"/>
        <pt x="-118" y="-233" on="0"/>
      </contour>
    </TTGlyph>
    <TTGlyph name="dotlessi" xMin="56" yMin="0" xMax="383" yMax="938">
      <contour>
        <pt x="383" y="938" on="1"/>
        <pt x="383" y="0" on="1"/>
        <pt x="222" y="0" on="1"/>
        <pt x="222" y="810" on="1"/>
        <pt x="56" y="810" on="1"/>
        <pt x="56" y="938" on="1"/>
      </contour>
    </TTGlyph>
    <TTGlyph name="e" xMin="61" yMin="-18" xMax="872" yMax="956">
      <contour>
        <pt x="500" y="828" on="1"/>
        <pt x="361" y="828" on="0"/>
        <pt x="292" y="744" on="1"/>
        <pt x="244" y="686" on="0"/>
        <pt x="229" y="580" on="1"/>
        <pt x="714" y="580" on="1"/>
        <pt x="705" y="689" on="0"/>
        <pt x="649" y="759" on="1"/>
        <pt x="592" y="828" on="0"/>
      </contour>
      <contour>
        <pt x="838" y="55" on="1"/>
        <pt x="730" y="-18" on="0"/>
        <pt x="546" y="-18" on="1"/>
        <pt x="313" y="-18" on="0"/>
        <pt x="187" y="115" on="1"/>
        <pt x="61" y="248" on="0"/>
        <pt x="61" y="469" on="1"/>
        <pt x="61" y="757" on="0"/>
        <pt x="248" y="886" on="1"/>
        <pt x="352" y="956" on="0"/>
        <pt x="480" y="956" on="1"/>
        <pt x="678" y="956" on="0"/>
        <pt x="780" y="822" on="1"/>
        <pt x="866" y="707" on="0"/>
        <pt x="872" y="520" on="1"/>
        <pt x="848" y="460" on="1"/>
        <pt x="222" y="460" on="1"/>
        <pt x="224" y="294" on="0"/>
        <pt x="398" y="111" on="0"/>
        <pt x="543" y="111" on="1"/>
        <pt x="653" y="111" on="0"/>
        <pt x="795" y="170" on="1"/>
      </contour>
    </TTGlyph>
    <TTGlyph name="eacute" xMin="61" yMin="-18" xMax="872" yMax="1475">
      <component glyphName=".ttfautohint" x="61" y="0" flags="0x0"/>
      <component glyphName="e" x="0" y="0" flags="0x1204"/>
      <component glyphName="acutecomb" x="495" y="0" flags="0x1004"/>
    </TTGlyph>
    <TTGlyph name="ecaron" xMin="61" yMin="-18" xMax="872" yMax="1449">
      <component glyphName=".ttfautohint" x="61" y="0" flags="0x0"/>
      <component glyphName="e" x="0" y="0" flags="0x1204"/>
      <component glyphName="uni030C" x="495" y="0" flags="0x1004"/>
    </TTGlyph>
    <TTGlyph name="ecircumflex" xMin="61" yMin="-18" xMax="872" yMax="1449">
      <component glyphName=".ttfautohint" x="61" y="0" flags="0x0"/>
      <component glyphName="e" x="0" y="0" flags="0x1204"/>
      <component glyphName="uni0302" x="495" y="0" flags="0x1004"/>
    </TTGlyph>
    <TTGlyph name="edieresis" xMin="61" yMin="-18" xMax="872" yMax="1430">
      <component glyphName=".ttfautohint" x="61" y="0" flags="0x0"/>
      <component glyphName="e" x="0" y="0" flags="0x1204"/>
      <component glyphName="dieresis" x="23" y="0" flags="0x1004"/>
    </TTGlyph>
    <TTGlyph name="edotaccent" xMin="61" yMin="-18" xMax="872" yMax="1430">
      <component glyphName=".ttfautohint" x="61" y="0" flags="0x0"/>
      <component glyphName="e" x="0" y="0" flags="0x1204"/>
      <component glyphName="uni0307" x="495" y="0" flags="0x1004"/>
    </TTGlyph>
    <TTGlyph name="egrave" xMin="61" yMin="-18" xMax="872" yMax="1475">
      <component glyphName=".ttfautohint" x="61" y="0" flags="0x0"/>
      <component glyphName="e" x="0" y="0" flags="0x1204"/>
      <component glyphName="gravecomb" x="495" y="0" flags="0x1004"/>
    </TTGlyph>
    <TTGlyph name="eight" xMin="70" yMin="-18" xMax="885" yMax="1305">
      <contour>
        <pt x="658" y="935" on="1"/>
        <pt x="673" y="972" on="0"/>
        <pt x="673" y="1057" on="0"/>
        <pt x="630" y="1125" on="0"/>
        <pt x="597" y="1142" on="1"/>
        <pt x="534" y="1176" on="0"/>
        <pt x="472" y="1176" on="1"/>
        <pt x="410" y="1176" on="0"/>
        <pt x="362" y="1151" on="1"/>
        <pt x="270" y="1104" on="0"/>
        <pt x="270" y="1012" on="1"/>
        <pt x="270" y="922" on="0"/>
        <pt x="334" y="860" on="1"/>
        <pt x="387" y="809" on="0"/>
        <pt x="483" y="757" on="1"/>
        <pt x="624" y="856" on="0"/>
      </contour>
      <contour>
        <pt x="436" y="605" on="1"/>
        <pt x="338" y="549" on="0"/>
        <pt x="231" y="410" on="0"/>
        <pt x="231" y="233" on="0"/>
        <pt x="375" y="111" on="0"/>
        <pt x="574" y="111" on="0"/>
        <pt x="724" y="219" on="0"/>
        <pt x="724" y="312" on="1"/>
        <pt x="724" y="428" on="0"/>
        <pt x="611" y="505" on="1"/>
        <pt x="554" y="544" on="0"/>
        <pt x="467" y="588" on="0"/>
      </contour>
      <contour>
        <pt x="316" y="672" on="1"/>
        <pt x="162" y="773" on="0"/>
        <pt x="124" y="902" on="1"/>
        <pt x="109" y="956" on="0"/>
        <pt x="109" y="1106" on="0"/>
        <pt x="162" y="1172" on="1"/>
        <pt x="269" y="1305" on="0"/>
        <pt x="472" y="1305" on="1"/>
        <pt x="674" y="1305" on="0"/>
        <pt x="780" y="1172" on="1"/>
        <pt x="834" y="1106" on="0"/>
        <pt x="834" y="964" on="0"/>
        <pt x="796" y="865" on="0"/>
        <pt x="762" y="825" on="1"/>
        <pt x="705" y="758" on="0"/>
        <pt x="603" y="694" on="1"/>
        <pt x="766" y="604" on="0"/>
        <pt x="828" y="510" on="1"/>
        <pt x="885" y="423" on="0"/>
        <pt x="885" y="304" on="1"/>
        <pt x="885" y="174" on="0"/>
        <pt x="790" y="82" on="1"/>
        <pt x="686" y="-18" on="0"/>
        <pt x="472" y="-18" on="1"/>
        <pt x="171" y="-18" on="0"/>
        <pt x="92" y="183" on="1"/>
        <pt x="70" y="239" on="0"/>
        <pt x="70" y="347" on="0"/>
        <pt x="85" y="423" on="0"/>
        <pt x="109" y="482" on="0"/>
        <pt x="149" y="538" on="0"/>
        <pt x="186" y="578" on="0"/>
        <pt x="214" y="600" on="1"/>
        <pt x="264" y="639" on="0"/>
      </contour>
    </TTGlyph>
    <TTGlyph name="emacron" xMin="61" yMin="-18" xMax="872" yMax="1359">
      <component glyphName=".ttfautohint" x="61" y="0" flags="0x0"/>
      <component glyphName="e" x="0" y="0" flags="0x1204"/>
      <component glyphName="uni0304" x="495" y="0" flags="0x1004"/>
    </TTGlyph>
    <TTGlyph name="emdash" xMin="68" yMin="449" xMax="1488" yMax="558">
      <contour>
        <pt x="1488" y="449" on="1"/>
        <pt x="68" y="449" on="1"/>
        <pt x="68" y="558" on="1"/>
        <pt x="1488" y="558" on="1"/>
      </contour>
    </TTGlyph>
    <TTGlyph name="endash" xMin="61" yMin="449" xMax="690" yMax="558">
      <component glyphName=".ttfautohint" x="61" y="449" flags="0x0"/>
      <component glyphName="hyphen" x="0" y="0" flags="0x1204"/>
    </TTGlyph>
    <TTGlyph name="eng" xMin="164" yMin="-492" xMax="957" yMax="956">
      <contour>
        <pt x="796" y="507" on="1"/>
        <pt x="796" y="828" on="0"/>
        <pt x="566" y="828" on="1"/>
        <pt x="507" y="828" on="0"/>
        <pt x="409" y="765" on="0"/>
        <pt x="382" y="721" on="1"/>
        <pt x="325" y="628" on="0"/>
        <pt x="325" y="578" on="1"/>
        <pt x="325" y="0" on="1"/>
        <pt x="164" y="0" on="1"/>
        <pt x="164" y="938" on="1"/>
        <pt x="325" y="938" on="1"/>
        <pt x="325" y="766" on="1"/>
        <pt x="415" y="956" on="0"/>
        <pt x="618" y="956" on="1"/>
        <pt x="700" y="956" on="0"/>
        <pt x="831" y="883" on="0"/>
        <pt x="868" y="841" on="1"/>
        <pt x="957" y="742" on="0"/>
        <pt x="957" y="563" on="1"/>
        <pt x="957" y="28" on="1"/>
        <pt x="957" y="-261" on="0"/>
        <pt x="826" y="-388" on="1"/>
        <pt x="718" y="-492" on="0"/>
        <pt x="540" y="-492" on="1"/>
        <pt x="527" y="-364" on="1"/>
        <pt x="653" y="-348" on="0"/>
        <pt x="697" y="-308" on="1"/>
        <pt x="749" y="-260" on="0"/>
        <pt x="765" y="-200" on="1"/>
        <pt x="796" y="-84" on="0"/>
        <pt x="796" y="68" on="1"/>
      </contour>
    </TTGlyph>
    <TTGlyph name="equal" xMin="61" yMin="294" xMax="991" yMax="738">
      <contour>
        <pt x="991" y="630" on="1"/>
        <pt x="61" y="630" on="1"/>
        <pt x="61" y="738" on="1"/>
        <pt x="991" y="738" on="1"/>
      </contour>
      <contour>
        <pt x="991" y="294" on="1"/>
        <pt x="61" y="294" on="1"/>
        <pt x="61" y="402" on="1"/>
        <pt x="991" y="402" on="1"/>
      </contour>
    </TTGlyph>
    <TTGlyph name="eth" xMin="61" yMin="-18" xMax="951" yMax="1475">
      <contour>
        <pt x="222" y="469" on="1"/>
        <pt x="222" y="198" on="0"/>
        <pt x="402" y="130" on="1"/>
        <pt x="451" y="111" on="0"/>
        <pt x="550" y="111" on="0"/>
        <pt x="628" y="135" on="0"/>
        <pt x="703" y="195" on="0"/>
        <pt x="729" y="241" on="1"/>
        <pt x="788" y="345" on="0"/>
        <pt x="788" y="528" on="1"/>
        <pt x="788" y="642" on="0"/>
        <pt x="764" y="752" on="1"/>
        <pt x="663" y="828" on="0"/>
        <pt x="409" y="828" on="0"/>
        <pt x="222" y="636" on="0"/>
      </contour>
      <contour>
        <pt x="707" y="931" on="1"/>
        <pt x="662" y="1037" on="0"/>
        <pt x="597" y="1128" on="1"/>
        <pt x="408" y="1015" on="1"/>
        <pt x="352" y="1108" on="1"/>
        <pt x="527" y="1213" on="1"/>
        <pt x="427" y="1319" on="0"/>
        <pt x="336" y="1350" on="1"/>
        <pt x="416" y="1475" on="1"/>
        <pt x="554" y="1420" on="0"/>
        <pt x="666" y="1297" on="1"/>
        <pt x="823" y="1391" on="1"/>
        <pt x="879" y="1298" on="1"/>
        <pt x="735" y="1211" on="1"/>
        <pt x="840" y="1063" on="0"/>
        <pt x="951" y="695" on="0"/>
        <pt x="951" y="416" on="0"/>
        <pt x="900" y="220" on="0"/>
        <pt x="815" y="96" on="0"/>
        <pt x="756" y="56" on="1"/>
        <pt x="650" y="-18" on="0"/>
        <pt x="506" y="-18" on="1"/>
        <pt x="276" y="-18" on="0"/>
        <pt x="154" y="138" on="1"/>
        <pt x="61" y="257" on="0"/>
        <pt x="61" y="678" on="0"/>
        <pt x="334" y="956" on="0"/>
        <pt x="540" y="956" on="1"/>
        <pt x="637" y="956" on="0"/>
      </contour>
    </TTGlyph>
    <TTGlyph name="exclam" xMin="107" yMin="-18" xMax="347" yMax="1392">
      <contour>
        <pt x="107" y="1392" on="1"/>
        <pt x="347" y="1392" on="1"/>
        <pt x="283" y="460" on="1"/>
        <pt x="191" y="460" on="1"/>
      </contour>
      <contour>
        <pt x="109" y="103" on="1"/>
        <pt x="109" y="153" on="0"/>
        <pt x="178" y="224" on="0"/>
        <pt x="227" y="224" on="1"/>
        <pt x="276" y="224" on="0"/>
        <pt x="345" y="153" on="0"/>
        <pt x="345" y="103" on="1"/>
        <pt x="345" y="53" on="0"/>
        <pt x="276" y="-18" on="0"/>
        <pt x="227" y="-18" on="1"/>
        <pt x="178" y="-18" on="0"/>
        <pt x="109" y="53" on="0"/>
      </contour>
    </TTGlyph>
    <TTGlyph name="exclamdown" xMin="101" yMin="-343" xMax="341" yMax="1067">
      <contour>
        <pt x="339" y="946" on="1"/>
        <pt x="339" y="896" on="0"/>
        <pt x="270" y="825" on="0"/>
        <pt x="221" y="825" on="1"/>
        <pt x="172" y="825" on="0"/>
        <pt x="103" y="896" on="0"/>
        <pt x="103" y="946" on="1"/>
        <pt x="103" y="996" on="0"/>
        <pt x="172" y="1067" on="0"/>
        <pt x="221" y="1067" on="1"/>
        <pt x="270" y="1067" on="0"/>
        <pt x="339" y="996" on="0"/>
      </contour>
      <contour>
        <pt x="341" y="-343" on="1"/>
        <pt x="101" y="-343" on="1"/>
        <pt x="165" y="589" on="1"/>
        <pt x="257" y="589" on="1"/>
      </contour>
    </TTGlyph>
    <TTGlyph name="f" xMin="56" yMin="0" xMax="846" yMax="1464">
      <contour>
        <pt x="222" y="1020" on="1"/>
        <pt x="222" y="1464" on="0"/>
        <pt x="573" y="1464" on="1"/>
        <pt x="683" y="1464" on="0"/>
        <pt x="754" y="1430" on="1"/>
        <pt x="777" y="1418" on="0"/>
        <pt x="837" y="1379" on="0"/>
        <pt x="846" y="1374" on="1"/>
        <pt x="802" y="1247" on="1"/>
        <pt x="761" y="1283" on="0"/>
        <pt x="638" y="1336" on="0"/>
        <pt x="500" y="1336" on="0"/>
        <pt x="383" y="1192" on="0"/>
        <pt x="383" y="1107" on="1"/>
        <pt x="383" y="938" on="1"/>
        <pt x="612" y="938" on="1"/>
        <pt x="612" y="810" on="1"/>
        <pt x="383" y="810" on="1"/>
        <pt x="383" y="0" on="1"/>
        <pt x="222" y="0" on="1"/>
        <pt x="222" y="810" on="1"/>
        <pt x="56" y="810" on="1"/>
        <pt x="56" y="938" on="1"/>
        <pt x="222" y="938" on="1"/>
      </contour>
    </TTGlyph>
    <TTGlyph name="five" xMin="48" yMin="-350" xMax="748" yMax="1049">
      <contour>
        <pt x="120" y="1049" on="1"/>
        <pt x="716" y="1049" on="1"/>
        <pt x="716" y="921" on="1"/>
        <pt x="282" y="921" on="1"/>
        <pt x="264" y="560" on="1"/>
        <pt x="511" y="542" on="0"/>
        <pt x="637" y="416" on="1"/>
        <pt x="685" y="368" on="0"/>
        <pt x="748" y="206" on="0"/>
        <pt x="748" y="102" on="1"/>
        <pt x="748" y="-103" on="0"/>
        <pt x="499" y="-350" on="0"/>
        <pt x="276" y="-350" on="1"/>
        <pt x="228" y="-350" on="0"/>
        <pt x="93" y="-323" on="0"/>
        <pt x="48" y="-298" on="1"/>
        <pt x="104" y="-175" on="1"/>
        <pt x="175" y="-215" on="0"/>
        <pt x="276" y="-215" on="1"/>
        <pt x="429" y="-215" on="0"/>
        <pt x="587" y="-35" on="0"/>
        <pt x="587" y="102" on="1"/>
        <pt x="587" y="318" on="0"/>
        <pt x="384" y="399" on="1"/>
        <pt x="282" y="440" on="0"/>
        <pt x="148" y="440" on="1"/>
        <pt x="85" y="440" on="1"/>
      </contour>
    </TTGlyph>
    <TTGlyph name="florin" xMin="-51" yMin="-488" xMax="846" yMax="1464">
      <contour>
        <pt x="383" y="30" on="1"/>
        <pt x="383" y="-260" on="0"/>
        <pt x="250" y="-385" on="1"/>
        <pt x="140" y="-488" on="0"/>
        <pt x="-38" y="-488" on="1"/>
        <pt x="-51" y="-360" on="1"/>
        <pt x="74" y="-344" on="0"/>
        <pt x="118" y="-304" on="1"/>
        <pt x="170" y="-256" on="0"/>
        <pt x="186" y="-196" on="1"/>
        <pt x="218" y="-76" on="0"/>
        <pt x="218" y="72" on="1"/>
        <pt x="222" y="810" on="1"/>
        <pt x="56" y="810" on="1"/>
        <pt x="56" y="938" on="1"/>
        <pt x="222" y="938" on="1"/>
        <pt x="222" y="1020" on="1"/>
        <pt x="222" y="1464" on="0"/>
        <pt x="573" y="1464" on="1"/>
        <pt x="683" y="1464" on="0"/>
        <pt x="754" y="1430" on="1"/>
        <pt x="777" y="1418" on="0"/>
        <pt x="837" y="1379" on="0"/>
        <pt x="846" y="1374" on="1"/>
        <pt x="802" y="1247" on="1"/>
        <pt x="761" y="1283" on="0"/>
        <pt x="638" y="1336" on="0"/>
        <pt x="500" y="1336" on="0"/>
        <pt x="383" y="1192" on="0"/>
        <pt x="383" y="1107" on="1"/>
        <pt x="383" y="938" on="1"/>
        <pt x="612" y="938" on="1"/>
        <pt x="612" y="810" on="1"/>
        <pt x="383" y="810" on="1"/>
      </contour>
    </TTGlyph>
    <TTGlyph name="four" xMin="62" yMin="-256" xMax="969" yMax="1067">
      <contour>
        <pt x="591" y="259" on="1"/>
        <pt x="591" y="822" on="1"/>
        <pt x="232" y="259" on="1"/>
      </contour>
      <contour>
        <pt x="62" y="236" on="1"/>
        <pt x="591" y="1067" on="1"/>
        <pt x="752" y="1067" on="1"/>
        <pt x="752" y="259" on="1"/>
        <pt x="969" y="259" on="1"/>
        <pt x="969" y="131" on="1"/>
        <pt x="752" y="131" on="1"/>
        <pt x="752" y="-256" on="1"/>
        <pt x="591" y="-256" on="1"/>
        <pt x="591" y="131" on="1"/>
        <pt x="62" y="131" on="1"/>
      </contour>
    </TTGlyph>
    <TTGlyph name="g" xMin="66" yMin="-492" xMax="938" yMax="956">
      <contour>
        <pt x="492" y="827" on="1"/>
        <pt x="334" y="827" on="0"/>
        <pt x="290" y="680" on="1"/>
        <pt x="278" y="642" on="0"/>
        <pt x="278" y="602" on="1"/>
        <pt x="278" y="519" on="0"/>
        <pt x="380" y="414" on="0"/>
        <pt x="492" y="414" on="1"/>
        <pt x="650" y="414" on="0"/>
        <pt x="694" y="550" on="1"/>
        <pt x="706" y="585" on="0"/>
        <pt x="706" y="620" on="1"/>
        <pt x="706" y="693" on="0"/>
        <pt x="659" y="756" on="1"/>
        <pt x="604" y="827" on="0"/>
      </contour>
      <contour>
        <pt x="805" y="810" on="1"/>
        <pt x="867" y="722" on="0"/>
        <pt x="867" y="621" on="1"/>
        <pt x="867" y="457" on="0"/>
        <pt x="745" y="360" on="1"/>
        <pt x="652" y="285" on="0"/>
        <pt x="492" y="285" on="1"/>
        <pt x="406" y="285" on="0"/>
        <pt x="338" y="303" on="1"/>
        <pt x="279" y="258" on="0"/>
        <pt x="279" y="201" on="1"/>
        <pt x="279" y="122" on="0"/>
        <pt x="536" y="122" on="1"/>
        <pt x="832" y="122" on="0"/>
        <pt x="913" y="-21" on="1"/>
        <pt x="938" y="-65" on="0"/>
        <pt x="938" y="-121" on="1"/>
        <pt x="938" y="-244" on="0"/>
        <pt x="869" y="-329" on="1"/>
        <pt x="737" y="-492" on="0"/>
        <pt x="424" y="-492" on="1"/>
        <pt x="265" y="-492" on="0"/>
        <pt x="66" y="-364" on="0"/>
        <pt x="66" y="-241" on="1"/>
        <pt x="66" y="-116" on="0"/>
        <pt x="168" y="-33" on="1"/>
        <pt x="198" y="-9" on="0"/>
        <pt x="242" y="18" on="1"/>
        <pt x="118" y="60" on="0"/>
        <pt x="118" y="170" on="1"/>
        <pt x="118" y="211" on="0"/>
        <pt x="174" y="313" on="0"/>
        <pt x="231" y="353" on="1"/>
        <pt x="120" y="433" on="0"/>
        <pt x="117" y="598" on="1"/>
        <pt x="117" y="604" on="1"/>
        <pt x="117" y="733" on="0"/>
        <pt x="198" y="837" on="1"/>
        <pt x="240" y="891" on="0"/>
        <pt x="392" y="956" on="0"/>
        <pt x="563" y="956" on="0"/>
        <pt x="624" y="938" on="1"/>
        <pt x="938" y="938" on="1"/>
        <pt x="938" y="810" on="1"/>
      </contour>
      <contour>
        <pt x="396" y="-6" on="1"/>
        <pt x="299" y="-60" on="0"/>
        <pt x="266" y="-105" on="1"/>
        <pt x="227" y="-157" on="0"/>
        <pt x="227" y="-273" on="0"/>
        <pt x="262" y="-306" on="1"/>
        <pt x="322" y="-363" on="0"/>
        <pt x="454" y="-363" on="1"/>
        <pt x="636" y="-363" on="0"/>
        <pt x="728" y="-273" on="1"/>
        <pt x="777" y="-225" on="0"/>
        <pt x="777" y="-156" on="1"/>
        <pt x="777" y="-85" on="0"/>
        <pt x="721" y="-53" on="1"/>
        <pt x="661" y="-21" on="0"/>
        <pt x="605" y="-15" on="1"/>
        <pt x="529" y="-7" on="0"/>
        <pt x="418" y="-7" on="0"/>
      </contour>
    </TTGlyph>
    <TTGlyph name="gcircumflex" xMin="66" yMin="-492" xMax="938" yMax="1449">
      <component glyphName=".ttfautohint" x="66" y="0" flags="0x0"/>
      <component glyphName="g" x="0" y="0" flags="0x1204"/>
      <component glyphName="uni0302" x="516" y="0" flags="0x1004"/>
    </TTGlyph>
    <TTGlyph name="germandbls" xMin="164" yMin="-18" xMax="1062" yMax="1464">
      <contour>
        <pt x="505" y="1336" on="1"/>
        <pt x="416" y="1336" on="0"/>
        <pt x="325" y="1202" on="0"/>
        <pt x="325" y="1082" on="1"/>
        <pt x="325" y="0" on="1"/>
        <pt x="164" y="0" on="1"/>
        <pt x="164" y="1044" on="1"/>
        <pt x="164" y="1464" on="0"/>
        <pt x="503" y="1464" on="1"/>
        <pt x="728" y="1464" on="0"/>
        <pt x="816" y="1362" on="1"/>
        <pt x="897" y="1268" on="0"/>
        <pt x="897" y="1086" on="1"/>
        <pt x="897" y="985" on="0"/>
        <pt x="840" y="924" on="1"/>
        <pt x="794" y="874" on="0"/>
        <pt x="694" y="812" on="0"/>
        <pt x="669" y="792" on="1"/>
        <pt x="612" y="748" on="0"/>
        <pt x="612" y="643" on="0"/>
        <pt x="679" y="581" on="0"/>
        <pt x="774" y="549" on="1"/>
        <pt x="852" y="522" on="1"/>
        <pt x="959" y="485" on="0"/>
        <pt x="1062" y="364" on="0"/>
        <pt x="1062" y="134" on="0"/>
        <pt x="886" y="-18" on="0"/>
        <pt x="734" y="-18" on="1"/>
        <pt x="653" y="-18" on="0"/>
        <pt x="504" y="15" on="0"/>
        <pt x="412" y="68" on="1"/>
        <pt x="470" y="192" on="1"/>
        <pt x="547" y="146" on="0"/>
        <pt x="655" y="111" on="0"/>
        <pt x="728" y="111" on="1"/>
        <pt x="901" y="111" on="0"/>
        <pt x="901" y="260" on="1"/>
        <pt x="901" y="350" on="0"/>
        <pt x="736" y="404" on="1"/>
        <pt x="658" y="431" on="1"/>
        <pt x="553" y="468" on="0"/>
        <pt x="452" y="611" on="0"/>
        <pt x="452" y="744" on="0"/>
        <pt x="483" y="823" on="0"/>
        <pt x="533" y="874" on="0"/>
        <pt x="594" y="917" on="0"/>
        <pt x="654" y="956" on="0"/>
        <pt x="680" y="978" on="1"/>
        <pt x="736" y="1025" on="0"/>
        <pt x="736" y="1098" on="1"/>
        <pt x="736" y="1336" on="0"/>
      </contour>
    </TTGlyph>
    <TTGlyph name="glyph371" xMin="164" yMin="-18" xMax="957" yMax="938">
      <contour>
        <pt x="796" y="172" on="1"/>
        <pt x="706" y="-18" on="0"/>
        <pt x="503" y="-18" on="1"/>
        <pt x="421" y="-18" on="0"/>
        <pt x="290" y="55" on="0"/>
        <pt x="215" y="139" on="0"/>
        <pt x="190" y="211" on="1"/>
        <pt x="164" y="283" on="0"/>
        <pt x="164" y="375" on="1"/>
        <pt x="164" y="938" on="1"/>
        <pt x="325" y="938" on="1"/>
        <pt x="325" y="431" on="1"/>
        <pt x="325" y="110" on="0"/>
        <pt x="555" y="110" on="1"/>
        <pt x="614" y="110" on="0"/>
        <pt x="663" y="142" on="1"/>
        <pt x="739" y="190" on="0"/>
        <pt x="781" y="300" on="1"/>
        <pt x="796" y="338" on="0"/>
        <pt x="796" y="360" on="1"/>
        <pt x="796" y="938" on="1"/>
        <pt x="957" y="938" on="1"/>
        <pt x="957" y="0" on="1"/>
        <pt x="796" y="0" on="1"/>
      </contour>
    </TTGlyph>
    <TTGlyph name="grave" xMin="10" yMin="1100" xMax="360" yMax="1475">
      <contour>
        <pt x="10" y="1475" on="1"/>
        <pt x="198" y="1475" on="1"/>
        <pt x="360" y="1100" on="1"/>
        <pt x="249" y="1100" on="1"/>
      </contour>
    </TTGlyph>
    <TTGlyph name="gravecomb" xMin="-249" yMin="1100" xMax="82" yMax="1475">
      <contour>
        <pt x="-249" y="1475" on="1"/>
        <pt x="-61" y="1475" on="1"/>
        <pt x="82" y="1144" on="1"/>
        <pt x="-10" y="1100" on="1"/>
      </contour>
    </TTGlyph>
    <TTGlyph name="greater" xMin="88" yMin="-105" xMax="967" yMax="1155">
      <contour>
        <pt x="967" y="525" on="1"/>
        <pt x="167" y="-105" on="1"/>
        <pt x="88" y="-21" on="1"/>
        <pt x="780" y="525" on="1"/>
        <pt x="88" y="1071" on="1"/>
        <pt x="167" y="1155" on="1"/>
      </contour>
    </TTGlyph>
    <TTGlyph name="guillemotleft" xMin="18" yMin="168" xMax="873" yMax="882">
      <contour>
        <pt x="646" y="525" on="1"/>
        <pt x="873" y="268" on="1"/>
        <pt x="840" y="168" on="1"/>
        <pt x="488" y="525" on="1"/>
        <pt x="840" y="882" on="1"/>
        <pt x="873" y="782" on="1"/>
      </contour>
      <contour>
        <pt x="187" y="525" on="1"/>
        <pt x="467" y="268" on="1"/>
        <pt x="434" y="168" on="1"/>
        <pt x="18" y="525" on="1"/>
        <pt x="434" y="882" on="1"/>
        <pt x="467" y="782" on="1"/>
      </contour>
    </TTGlyph>
    <TTGlyph name="guillemotright" xMin="105" yMin="168" xMax="960" yMax="882">
      <contour>
        <pt x="332" y="525" on="1"/>
        <pt x="105" y="782" on="1"/>
        <pt x="138" y="882" on="1"/>
        <pt x="490" y="525" on="1"/>
        <pt x="138" y="168" on="1"/>
        <pt x="105" y="268" on="1"/>
      </contour>
      <contour>
        <pt x="791" y="525" on="1"/>
        <pt x="511" y="782" on="1"/>
        <pt x="544" y="882" on="1"/>
        <pt x="960" y="525" on="1"/>
        <pt x="544" y="168" on="1"/>
        <pt x="511" y="268" on="1"/>
      </contour>
    </TTGlyph>
    <TTGlyph name="guilsinglleft" xMin="18" yMin="168" xMax="467" yMax="882">
      <contour>
        <pt x="187" y="525" on="1"/>
        <pt x="467" y="268" on="1"/>
        <pt x="434" y="168" on="1"/>
        <pt x="18" y="525" on="1"/>
        <pt x="434" y="882" on="1"/>
        <pt x="467" y="782" on="1"/>
      </contour>
    </TTGlyph>
    <TTGlyph name="guilsinglright" xMin="105" yMin="168" xMax="554" yMax="882">
      <contour>
        <pt x="385" y="525" on="1"/>
        <pt x="105" y="782" on="1"/>
        <pt x="138" y="882" on="1"/>
        <pt x="554" y="525" on="1"/>
        <pt x="138" y="168" on="1"/>
        <pt x="105" y="268" on="1"/>
      </contour>
    </TTGlyph>
    <TTGlyph name="h" xMin="164" yMin="0" xMax="957" yMax="1475">
      <contour>
        <pt x="796" y="507" on="1"/>
        <pt x="796" y="828" on="0"/>
        <pt x="566" y="828" on="1"/>
        <pt x="507" y="828" on="0"/>
        <pt x="458" y="796" on="1"/>
        <pt x="383" y="748" on="0"/>
        <pt x="340" y="638" on="1"/>
        <pt x="325" y="600" on="0"/>
        <pt x="325" y="578" on="1"/>
        <pt x="325" y="0" on="1"/>
        <pt x="164" y="0" on="1"/>
        <pt x="164" y="1475" on="1"/>
        <pt x="325" y="1475" on="1"/>
        <pt x="325" y="766" on="1"/>
        <pt x="415" y="956" on="0"/>
        <pt x="618" y="956" on="1"/>
        <pt x="700" y="956" on="0"/>
        <pt x="831" y="883" on="0"/>
        <pt x="868" y="841" on="1"/>
        <pt x="957" y="742" on="0"/>
        <pt x="957" y="563" on="1"/>
        <pt x="957" y="0" on="1"/>
        <pt x="796" y="0" on="1"/>
      </contour>
    </TTGlyph>
    <TTGlyph name="hookabovecomb" xMin="-150" yMin="1020" xMax="165" yMax="1440">
      <contour>
        <pt x="-24" y="1020" on="1"/>
        <pt x="-56" y="1062" on="0"/>
        <pt x="-56" y="1136" on="0"/>
        <pt x="-33" y="1177" on="0"/>
        <pt x="-1" y="1203" on="0"/>
        <pt x="15" y="1214" on="1"/>
        <pt x="54" y="1241" on="0"/>
        <pt x="54" y="1296" on="0"/>
        <pt x="24" y="1332" on="0"/>
        <pt x="-2" y="1332" on="1"/>
        <pt x="-55" y="1332" on="0"/>
        <pt x="-81" y="1295" on="1"/>
        <pt x="-150" y="1350" on="1"/>
        <pt x="-130" y="1382" on="0"/>
        <pt x="-47" y="1440" on="0"/>
        <pt x="81" y="1440" on="0"/>
        <pt x="165" y="1347" on="0"/>
        <pt x="165" y="1278" on="1"/>
        <pt x="165" y="1221" on="0"/>
        <pt x="122" y="1188" on="1"/>
        <pt x="104" y="1175" on="0"/>
        <pt x="86" y="1163" on="1"/>
        <pt x="42" y="1135" on="0"/>
        <pt x="42" y="1100" on="1"/>
        <pt x="42" y="1077" on="0"/>
        <pt x="58" y="1031" on="0"/>
        <pt x="61" y="1020" on="1"/>
      </contour>
    </TTGlyph>
    <TTGlyph name="hyphen" xMin="61" yMin="449" xMax="690" yMax="558">
      <contour>
        <pt x="690" y="449" on="1"/>
        <pt x="61" y="449" on="1"/>
        <pt x="61" y="558" on="1"/>
        <pt x="690" y="558" on="1"/>
      </contour>
    </TTGlyph>
    <TTGlyph name="i" xMin="56" yMin="0" xMax="420" yMax="1430">
      <component glyphName=".ttfautohint" x="56" y="0" flags="0x0"/>
      <component glyphName="dotlessi" x="0" y="0" flags="0x1204"/>
      <component glyphName="uni0307" x="302" y="0" flags="0x1004"/>
    </TTGlyph>
    <TTGlyph name="iacute" xMin="56" yMin="0" xMax="551" yMax="1475">
      <component glyphName=".ttfautohint" x="56" y="0" flags="0x0"/>
      <component glyphName="dotlessi" x="0" y="0" flags="0x1204"/>
      <component glyphName="acutecomb" x="302" y="0" flags="0x1004"/>
    </TTGlyph>
    <TTGlyph name="icircumflex" xMin="-7" yMin="0" xMax="611" yMax="1449">
      <component glyphName=".ttfautohint" x="0" y="0" flags="0x0"/>
      <component glyphName="dotlessi" x="0" y="0" flags="0x1204"/>
      <component glyphName="uni0302" x="302" y="0" flags="0x1004"/>
    </TTGlyph>
    <TTGlyph name="idieresis" xMin="-52" yMin="0" xMax="656" yMax="1430">
      <component glyphName=".ttfautohint" x="0" y="0" flags="0x0"/>
      <component glyphName="dotlessi" x="0" y="0" flags="0x1204"/>
      <component glyphName="dieresis" x="-170" y="0" flags="0x1004"/>
    </TTGlyph>
    <TTGlyph name="igrave" xMin="53" yMin="0" xMax="384" yMax="1475">
      <component glyphName=".ttfautohint" x="53" y="0" flags="0x0"/>
      <component glyphName="dotlessi" x="0" y="0" flags="0x1204"/>
      <component glyphName="gravecomb" x="302" y="0" flags="0x1004"/>
    </TTGlyph>
    <TTGlyph name="itilde" xMin="-40" yMin="0" xMax="623" yMax="1356">
      <component glyphName=".ttfautohint" x="0" y="0" flags="0x0"/>
      <component glyphName="dotlessi" x="0" y="0" flags="0x1204"/>
      <component glyphName="tildecomb" x="302" y="0" flags="0x1004"/>
    </TTGlyph>
    <TTGlyph name="j" xMin="10" yMin="-492" xMax="420" yMax="1430">
      <component glyphName=".ttfautohint" x="10" y="0" flags="0x0"/>
      <component glyphName="uni0237" x="0" y="0" flags="0x1204"/>
      <component glyphName="uni0307" x="302" y="0" flags="0x1004"/>
    </TTGlyph>
    <TTGlyph name="k" xMin="164" yMin="0" xMax="913" yMax="1475">
      <contour>
        <pt x="325" y="0" on="1"/>
        <pt x="164" y="0" on="1"/>
        <pt x="164" y="1475" on="1"/>
        <pt x="325" y="1475" on="1"/>
        <pt x="325" y="624" on="1"/>
        <pt x="644" y="938" on="1"/>
        <pt x="844" y="938" on="1"/>
        <pt x="458" y="562" on="1"/>
        <pt x="913" y="0" on="1"/>
        <pt x="714" y="0" on="1"/>
        <pt x="325" y="479" on="1"/>
      </contour>
    </TTGlyph>
    <TTGlyph name="l" xMin="164" yMin="-18" xMax="539" yMax="1475">
      <contour>
        <pt x="372" y="-18" on="1"/>
        <pt x="164" y="-18" on="0"/>
        <pt x="164" y="246" on="1"/>
        <pt x="164" y="1475" on="1"/>
        <pt x="325" y="1475" on="1"/>
        <pt x="325" y="256" on="1"/>
        <pt x="325" y="179" on="0"/>
        <pt x="386" y="112" on="0"/>
        <pt x="438" y="112" on="0"/>
        <pt x="526" y="120" on="1"/>
        <pt x="539" y="3" on="1"/>
        <pt x="439" y="-18" on="0"/>
      </contour>
    </TTGlyph>
    <TTGlyph name="less" xMin="0" yMin="-105" xMax="879" yMax="1155">
      <contour>
        <pt x="0" y="525" on="1"/>
        <pt x="800" y="1155" on="1"/>
        <pt x="879" y="1071" on="1"/>
        <pt x="187" y="525" on="1"/>
        <pt x="879" y="-21" on="1"/>
        <pt x="800" y="-105" on="1"/>
      </contour>
    </TTGlyph>
    <TTGlyph name="longs" xMin="56" yMin="0" xMax="846" yMax="1464">
      <contour>
        <pt x="383" y="0" on="1"/>
        <pt x="222" y="0" on="1"/>
        <pt x="222" y="810" on="1"/>
        <pt x="56" y="810" on="1"/>
        <pt x="56" y="938" on="1"/>
        <pt x="222" y="938" on="1"/>
        <pt x="222" y="1020" on="1"/>
        <pt x="222" y="1464" on="0"/>
        <pt x="573" y="1464" on="1"/>
        <pt x="683" y="1464" on="0"/>
        <pt x="754" y="1430" on="1"/>
        <pt x="777" y="1418" on="0"/>
        <pt x="837" y="1379" on="0"/>
        <pt x="846" y="1374" on="1"/>
        <pt x="802" y="1247" on="1"/>
        <pt x="761" y="1283" on="0"/>
        <pt x="638" y="1336" on="0"/>
        <pt x="500" y="1336" on="0"/>
        <pt x="383" y="1195" on="0"/>
        <pt x="383" y="1107" on="1"/>
      </contour>
    </TTGlyph>
    <TTGlyph name="m" xMin="164" yMin="0" xMax="1481" yMax="956">
      <contour>
        <pt x="747" y="469" on="1"/>
        <pt x="747" y="828" on="0"/>
        <pt x="533" y="828" on="1"/>
        <pt x="475" y="828" on="0"/>
        <pt x="381" y="742" on="0"/>
        <pt x="356" y="680" on="1"/>
        <pt x="325" y="617" on="0"/>
        <pt x="325" y="549" on="1"/>
        <pt x="325" y="0" on="1"/>
        <pt x="164" y="0" on="1"/>
        <pt x="164" y="938" on="1"/>
        <pt x="325" y="938" on="1"/>
        <pt x="325" y="789" on="1"/>
        <pt x="356" y="862" on="0"/>
        <pt x="477" y="956" on="0"/>
        <pt x="567" y="956" on="1"/>
        <pt x="793" y="956" on="0"/>
        <pt x="867" y="731" on="1"/>
        <pt x="946" y="956" on="0"/>
        <pt x="1145" y="956" on="1"/>
        <pt x="1310" y="956" on="0"/>
        <pt x="1481" y="710" on="0"/>
        <pt x="1481" y="469" on="1"/>
        <pt x="1481" y="1" on="1"/>
        <pt x="1325" y="0" on="1"/>
        <pt x="1325" y="469" on="1"/>
        <pt x="1325" y="828" on="0"/>
        <pt x="1111" y="828" on="1"/>
        <pt x="1053" y="828" on="0"/>
        <pt x="959" y="742" on="0"/>
        <pt x="934" y="680" on="1"/>
        <pt x="903" y="617" on="0"/>
        <pt x="903" y="549" on="1"/>
        <pt x="903" y="0" on="1"/>
        <pt x="747" y="0" on="1"/>
      </contour>
    </TTGlyph>
    <TTGlyph name="multiply" xMin="170" yMin="109" xMax="960" yMax="899">
      <contour>
        <pt x="566" y="581" on="1"/>
        <pt x="883" y="899" on="1"/>
        <pt x="960" y="821" on="1"/>
        <pt x="643" y="504" on="1"/>
        <pt x="960" y="187" on="1"/>
        <pt x="882" y="109" on="1"/>
        <pt x="565" y="426" on="1"/>
        <pt x="248" y="109" on="1"/>
        <pt x="170" y="186" on="1"/>
        <pt x="488" y="503" on="1"/>
        <pt x="170" y="821" on="1"/>
        <pt x="248" y="899" on="1"/>
      </contour>
    </TTGlyph>
    <TTGlyph name="n" xMin="164" yMin="0" xMax="957" yMax="956">
      <contour>
        <pt x="796" y="507" on="1"/>
        <pt x="796" y="828" on="0"/>
        <pt x="566" y="828" on="1"/>
        <pt x="507" y="828" on="0"/>
        <pt x="458" y="796" on="1"/>
        <pt x="383" y="748" on="0"/>
        <pt x="340" y="638" on="1"/>
        <pt x="325" y="600" on="0"/>
        <pt x="325" y="578" on="1"/>
        <pt x="325" y="0" on="1"/>
        <pt x="164" y="0" on="1"/>
        <pt x="164" y="938" on="1"/>
        <pt x="325" y="938" on="1"/>
        <pt x="325" y="766" on="1"/>
        <pt x="415" y="956" on="0"/>
        <pt x="618" y="956" on="1"/>
        <pt x="700" y="956" on="0"/>
        <pt x="831" y="883" on="0"/>
        <pt x="868" y="841" on="1"/>
        <pt x="957" y="742" on="0"/>
        <pt x="957" y="563" on="1"/>
        <pt x="957" y="0" on="1"/>
        <pt x="796" y="0" on="1"/>
      </contour>
    </TTGlyph>
    <TTGlyph name="nine" xMin="70" yMin="-256" xMax="942" yMax="1067">
      <contour>
        <pt x="388" y="938" on="0"/>
        <pt x="235" y="792" on="0"/>
        <pt x="231" y="662" on="1"/>
        <pt x="231" y="645" on="1"/>
        <pt x="231" y="516" on="0"/>
        <pt x="380" y="368" on="0"/>
        <pt x="504" y="368" on="1"/>
        <pt x="661" y="368" on="0"/>
        <pt x="776" y="477" on="1"/>
        <pt x="781" y="509" on="0"/>
        <pt x="781" y="634" on="0"/>
        <pt x="739" y="782" on="0"/>
        <pt x="676" y="866" on="0"/>
        <pt x="634" y="893" on="1"/>
        <pt x="565" y="938" on="0"/>
      </contour>
      <contour>
        <pt x="487" y="1067" on="1"/>
        <pt x="619" y="1067" on="0"/>
        <pt x="728" y="1002" on="1"/>
        <pt x="860" y="924" on="0"/>
        <pt x="912" y="756" on="1"/>
        <pt x="942" y="661" on="0"/>
        <pt x="942" y="465" on="0"/>
        <pt x="922" y="323" on="0"/>
        <pt x="872" y="171" on="0"/>
        <pt x="795" y="39" on="0"/>
        <pt x="673" y="-84" on="0"/>
        <pt x="595" y="-130" on="1"/>
        <pt x="424" y="-233" on="0"/>
        <pt x="172" y="-256" on="1"/>
        <pt x="157" y="-127" on="1"/>
        <pt x="401" y="-105" on="0"/>
        <pt x="713" y="127" on="0"/>
        <pt x="759" y="336" on="1"/>
        <pt x="717" y="291" on="0"/>
        <pt x="559" y="239" on="0"/>
        <pt x="476" y="239" on="1"/>
        <pt x="301" y="239" on="0"/>
        <pt x="70" y="458" on="0"/>
        <pt x="70" y="817" on="0"/>
        <pt x="292" y="1067" on="0"/>
      </contour>
    </TTGlyph>
    <TTGlyph name="ntilde" xMin="164" yMin="0" xMax="957" yMax="1356">
      <component glyphName=".ttfautohint" x="164" y="0" flags="0x0"/>
      <component glyphName="n" x="0" y="0" flags="0x1204"/>
      <component glyphName="tildecomb" x="555" y="0" flags="0x1004"/>
    </TTGlyph>
    <TTGlyph name="numbersign" xMin="84" yMin="0" xMax="1187" yMax="1475">
      <contour>
        <pt x="524" y="1475" on="1"/>
        <pt x="652" y="1475" on="1"/>
        <pt x="554" y="1011" on="1"/>
        <pt x="850" y="1011" on="1"/>
        <pt x="948" y="1475" on="1"/>
        <pt x="1076" y="1475" on="1"/>
        <pt x="978" y="1010" on="1"/>
        <pt x="1187" y="1010" on="1"/>
        <pt x="1187" y="901" on="1"/>
        <pt x="955" y="901" on="1"/>
        <pt x="878" y="539" on="1"/>
        <pt x="1087" y="539" on="1"/>
        <pt x="1087" y="430" on="1"/>
        <pt x="855" y="430" on="1"/>
        <pt x="764" y="0" on="1"/>
        <pt x="636" y="0" on="1"/>
        <pt x="727" y="431" on="1"/>
        <pt x="431" y="431" on="1"/>
        <pt x="340" y="0" on="1"/>
        <pt x="212" y="0" on="1"/>
        <pt x="303" y="432" on="1"/>
        <pt x="84" y="432" on="1"/>
        <pt x="84" y="541" on="1"/>
        <pt x="326" y="541" on="1"/>
        <pt x="403" y="903" on="1"/>
        <pt x="184" y="903" on="1"/>
        <pt x="184" y="1012" on="1"/>
        <pt x="426" y="1012" on="1"/>
      </contour>
      <contour>
        <pt x="454" y="540" on="1"/>
        <pt x="750" y="540" on="1"/>
        <pt x="827" y="902" on="1"/>
        <pt x="531" y="902" on="1"/>
      </contour>
    </TTGlyph>
    <TTGlyph name="o" xMin="61" yMin="-18" xMax="951" yMax="956">
      <contour>
        <pt x="222" y="469" on="1"/>
        <pt x="222" y="372" on="0"/>
        <pt x="271" y="227" on="0"/>
        <pt x="354" y="148" on="0"/>
        <pt x="451" y="111" on="0"/>
        <pt x="506" y="111" on="1"/>
        <pt x="618" y="111" on="0"/>
        <pt x="699" y="188" on="1"/>
        <pt x="788" y="273" on="0"/>
        <pt x="788" y="469" on="1"/>
        <pt x="788" y="664" on="0"/>
        <pt x="699" y="751" on="1"/>
        <pt x="617" y="827" on="0"/>
        <pt x="506" y="827" on="1"/>
        <pt x="393" y="827" on="0"/>
        <pt x="313" y="751" on="1"/>
        <pt x="222" y="664" on="0"/>
      </contour>
      <contour>
        <pt x="61" y="469" on="1"/>
        <pt x="61" y="772" on="0"/>
        <pt x="256" y="891" on="1"/>
        <pt x="364" y="956" on="0"/>
        <pt x="506" y="956" on="1"/>
        <pt x="647" y="956" on="0"/>
        <pt x="757" y="891" on="1"/>
        <pt x="815" y="855" on="0"/>
        <pt x="858" y="801" on="1"/>
        <pt x="951" y="679" on="0"/>
        <pt x="951" y="469" on="1"/>
        <pt x="951" y="165" on="0"/>
        <pt x="757" y="48" on="1"/>
        <pt x="649" y="-18" on="0"/>
        <pt x="506" y="-18" on="1"/>
        <pt x="362" y="-18" on="0"/>
        <pt x="256" y="48" on="1"/>
        <pt x="197" y="83" on="0"/>
        <pt x="154" y="138" on="1"/>
        <pt x="61" y="257" on="0"/>
      </contour>
    </TTGlyph>
    <TTGlyph name="oacute" xMin="61" yMin="-18" xMax="951" yMax="1475">
      <component glyphName=".ttfautohint" x="61" y="0" flags="0x0"/>
      <component glyphName="o" x="0" y="0" flags="0x1204"/>
      <component glyphName="acutecomb" x="506" y="0" flags="0x1004"/>
    </TTGlyph>
    <TTGlyph name="ocircumflex" xMin="61" yMin="-18" xMax="951" yMax="1449">
      <component glyphName=".ttfautohint" x="61" y="0" flags="0x0"/>
      <component glyphName="o" x="0" y="0" flags="0x1204"/>
      <component glyphName="uni0302" x="506" y="0" flags="0x1004"/>
    </TTGlyph>
    <TTGlyph name="odieresis" xMin="61" yMin="-18" xMax="951" yMax="1430">
      <component glyphName=".ttfautohint" x="61" y="0" flags="0x0"/>
      <component glyphName="o" x="0" y="0" flags="0x1204"/>
      <component glyphName="dieresis" x="34" y="0" flags="0x1004"/>
    </TTGlyph>
    <TTGlyph name="oe" xMin="61" yMin="-18" xMax="1599" yMax="956">
      <contour>
        <pt x="956" y="580" on="1"/>
        <pt x="1441" y="580" on="1"/>
        <pt x="1432" y="689" on="0"/>
        <pt x="1319" y="828" on="0"/>
        <pt x="1214" y="828" on="1"/>
        <pt x="992" y="828" on="0"/>
      </contour>
      <contour>
        <pt x="222" y="469" on="1"/>
        <pt x="222" y="198" on="0"/>
        <pt x="402" y="130" on="1"/>
        <pt x="451" y="111" on="0"/>
        <pt x="506" y="111" on="1"/>
        <pt x="618" y="111" on="0"/>
        <pt x="698" y="188" on="1"/>
        <pt x="788" y="273" on="0"/>
        <pt x="788" y="469" on="1"/>
        <pt x="788" y="740" on="0"/>
        <pt x="609" y="808" on="1"/>
        <pt x="561" y="827" on="0"/>
        <pt x="506" y="827" on="1"/>
        <pt x="393" y="827" on="0"/>
        <pt x="312" y="750" on="1"/>
        <pt x="222" y="664" on="0"/>
      </contour>
      <contour>
        <pt x="875" y="163" on="1"/>
        <pt x="759" y="-18" on="0"/>
        <pt x="506" y="-18" on="1"/>
        <pt x="276" y="-18" on="0"/>
        <pt x="154" y="138" on="1"/>
        <pt x="61" y="257" on="0"/>
        <pt x="61" y="469" on="1"/>
        <pt x="61" y="772" on="0"/>
        <pt x="256" y="890" on="1"/>
        <pt x="363" y="956" on="0"/>
        <pt x="506" y="956" on="1"/>
        <pt x="754" y="956" on="0"/>
        <pt x="871" y="781" on="1"/>
        <pt x="930" y="869" on="0"/>
        <pt x="1110" y="956" on="0"/>
        <pt x="1279" y="956" on="0"/>
        <pt x="1397" y="920" on="0"/>
        <pt x="1476" y="862" on="0"/>
        <pt x="1537" y="781" on="0"/>
        <pt x="1570" y="703" on="0"/>
        <pt x="1581" y="658" on="1"/>
        <pt x="1597" y="596" on="0"/>
        <pt x="1599" y="520" on="1"/>
        <pt x="1575" y="460" on="1"/>
        <pt x="951" y="460" on="1"/>
        <pt x="951" y="441" on="0"/>
        <pt x="950" y="431" on="1"/>
        <pt x="960" y="276" on="0"/>
        <pt x="1134" y="111" on="0"/>
        <pt x="1270" y="111" on="1"/>
        <pt x="1380" y="111" on="0"/>
        <pt x="1522" y="170" on="1"/>
        <pt x="1565" y="55" on="1"/>
        <pt x="1457" y="-18" on="0"/>
        <pt x="1273" y="-18" on="1"/>
        <pt x="1002" y="-18" on="0"/>
      </contour>
    </TTGlyph>
    <TTGlyph name="ograve" xMin="61" yMin="-18" xMax="951" yMax="1475">
      <component glyphName=".ttfautohint" x="61" y="0" flags="0x0"/>
      <component glyphName="o" x="0" y="0" flags="0x1204"/>
      <component glyphName="gravecomb" x="506" y="0" flags="0x1004"/>
    </TTGlyph>
    <TTGlyph name="omacron" xMin="61" yMin="-18" xMax="951" yMax="1359">
      <component glyphName=".ttfautohint" x="61" y="0" flags="0x0"/>
      <component glyphName="o" x="0" y="0" flags="0x1204"/>
      <component glyphName="uni0304" x="506" y="0" flags="0x1004"/>
    </TTGlyph>
    <TTGlyph name="one" xMin="34" yMin="0" xMax="436" yMax="1049">
      <contour>
        <pt x="436" y="1049" on="1"/>
        <pt x="436" y="0" on="1"/>
        <pt x="275" y="0" on="1"/>
        <pt x="275" y="906" on="1"/>
        <pt x="87" y="810" on="1"/>
        <pt x="34" y="925" on="1"/>
        <pt x="275" y="1049" on="1"/>
      </contour>
    </TTGlyph>
    <TTGlyph name="oslash" xMin="61" yMin="-18" xMax="951" yMax="956">
      <contour>
        <pt x="61" y="469" on="1"/>
        <pt x="61" y="772" on="0"/>
        <pt x="256" y="890" on="1"/>
        <pt x="363" y="956" on="0"/>
        <pt x="680" y="956" on="0"/>
        <pt x="794" y="864" on="1"/>
        <pt x="860" y="938" on="1"/>
        <pt x="927" y="870" on="1"/>
        <pt x="860" y="796" on="1"/>
        <pt x="951" y="673" on="0"/>
        <pt x="951" y="469" on="1"/>
        <pt x="951" y="166" on="0"/>
        <pt x="756" y="48" on="1"/>
        <pt x="649" y="-18" on="0"/>
        <pt x="332" y="-18" on="0"/>
        <pt x="218" y="74" on="1"/>
        <pt x="152" y="0" on="1"/>
        <pt x="85" y="68" on="1"/>
        <pt x="152" y="142" on="1"/>
        <pt x="61" y="265" on="0"/>
      </contour>
      <contour>
        <pt x="751" y="672" on="1"/>
        <pt x="316" y="184" on="1"/>
        <pt x="390" y="111" on="0"/>
        <pt x="506" y="111" on="1"/>
        <pt x="618" y="111" on="0"/>
        <pt x="698" y="188" on="1"/>
        <pt x="788" y="273" on="0"/>
        <pt x="788" y="469" on="1"/>
        <pt x="788" y="590" on="0"/>
      </contour>
      <contour>
        <pt x="696" y="753" on="1"/>
        <pt x="622" y="827" on="0"/>
        <pt x="506" y="827" on="1"/>
        <pt x="393" y="827" on="0"/>
        <pt x="312" y="750" on="1"/>
        <pt x="222" y="664" on="0"/>
        <pt x="222" y="469" on="1"/>
        <pt x="222" y="348" on="0"/>
        <pt x="260" y="265" on="1"/>
      </contour>
    </TTGlyph>
    <TTGlyph name="otilde" xMin="61" yMin="-18" xMax="951" yMax="1356">
      <component glyphName=".ttfautohint" x="61" y="0" flags="0x0"/>
      <component glyphName="o" x="0" y="0" flags="0x1204"/>
      <component glyphName="tildecomb" x="506" y="0" flags="0x1004"/>
    </TTGlyph>
    <TTGlyph name="p" xMin="164" yMin="-492" xMax="1002" yMax="956">
      <contour>
        <pt x="329" y="154" on="1"/>
        <pt x="409" y="110" on="0"/>
        <pt x="492" y="110" on="1"/>
        <pt x="634" y="110" on="0"/>
        <pt x="735" y="217" on="1"/>
        <pt x="841" y="328" on="0"/>
        <pt x="841" y="641" on="0"/>
        <pt x="767" y="734" on="1"/>
        <pt x="692" y="827" on="0"/>
        <pt x="583" y="827" on="1"/>
        <pt x="509" y="827" on="0"/>
        <pt x="375" y="726" on="0"/>
        <pt x="329" y="648" on="1"/>
      </contour>
      <contour>
        <pt x="598" y="956" on="1"/>
        <pt x="714" y="956" on="0"/>
        <pt x="808" y="892" on="1"/>
        <pt x="902" y="828" on="0"/>
        <pt x="1002" y="623" on="0"/>
        <pt x="1002" y="506" on="1"/>
        <pt x="1002" y="273" on="0"/>
        <pt x="731" y="-18" on="0"/>
        <pt x="530" y="-18" on="1"/>
        <pt x="446" y="-18" on="0"/>
        <pt x="329" y="14" on="1"/>
        <pt x="329" y="-492" on="1"/>
        <pt x="164" y="-492" on="1"/>
        <pt x="164" y="938" on="1"/>
        <pt x="329" y="938" on="1"/>
        <pt x="329" y="828" on="1"/>
        <pt x="442" y="956" on="0"/>
      </contour>
    </TTGlyph>
    <TTGlyph name="paragraph" xMin="67" yMin="0" xMax="774" yMax="1049">
      <contour>
        <pt x="662" y="940" on="1"/>
        <pt x="662" y="0" on="1"/>
        <pt x="552" y="0" on="1"/>
        <pt x="552" y="940" on="1"/>
        <pt x="442" y="940" on="1"/>
        <pt x="442" y="0" on="1"/>
        <pt x="332" y="0" on="1"/>
        <pt x="332" y="468" on="1"/>
        <pt x="266" y="468" on="0"/>
        <pt x="143" y="550" on="0"/>
        <pt x="67" y="689" on="0"/>
        <pt x="67" y="764" on="1"/>
        <pt x="67" y="878" on="0"/>
        <pt x="228" y="1049" on="0"/>
        <pt x="332" y="1049" on="1"/>
        <pt x="774" y="1049" on="1"/>
        <pt x="774" y="940" on="1"/>
      </contour>
    </TTGlyph>
    <TTGlyph name="parenleft" xMin="110" yMin="-493" xMax="581" yMax="1477">
      <contour>
        <pt x="271" y="492" on="1"/>
        <pt x="271" y="107" on="0"/>
        <pt x="454" y="-264" on="1"/>
        <pt x="508" y="-374" on="0"/>
        <pt x="581" y="-493" on="1"/>
        <pt x="471" y="-493" on="1"/>
        <pt x="257" y="-186" on="0"/>
        <pt x="180" y="54" on="1"/>
        <pt x="110" y="276" on="0"/>
        <pt x="110" y="492" on="1"/>
        <pt x="110" y="842" on="0"/>
        <pt x="292" y="1188" on="1"/>
        <pt x="365" y="1326" on="0"/>
        <pt x="471" y="1477" on="1"/>
        <pt x="581" y="1477" on="1"/>
        <pt x="349" y="1099" on="0"/>
        <pt x="293" y="764" on="1"/>
        <pt x="271" y="632" on="0"/>
      </contour>
    </TTGlyph>
    <TTGlyph name="parenright" xMin="53" yMin="-493" xMax="524" yMax="1477">
      <contour>
        <pt x="363" y="492" on="1"/>
        <pt x="363" y="877" on="0"/>
        <pt x="180" y="1248" on="1"/>
        <pt x="126" y="1358" on="0"/>
        <pt x="53" y="1477" on="1"/>
        <pt x="163" y="1477" on="1"/>
        <pt x="375" y="1174" on="0"/>
        <pt x="454" y="927" on="1"/>
        <pt x="524" y="704" on="0"/>
        <pt x="524" y="492" on="1"/>
        <pt x="524" y="138" on="0"/>
        <pt x="342" y="-204" on="1"/>
        <pt x="269" y="-341" on="0"/>
        <pt x="163" y="-493" on="1"/>
        <pt x="53" y="-493" on="1"/>
        <pt x="285" y="-115" on="0"/>
        <pt x="341" y="220" on="1"/>
        <pt x="363" y="352" on="0"/>
      </contour>
    </TTGlyph>
    <TTGlyph name="percent" xMin="41" yMin="-18" xMax="1486" yMax="1392">
      <contour>
        <pt x="1117" y="1391" on="1"/>
        <pt x="1245" y="1391" on="1"/>
        <pt x="458" y="0" on="1"/>
        <pt x="330" y="0" on="1"/>
      </contour>
      <contour>
        <pt x="208" y="1358" on="0"/>
        <pt x="318" y="1392" on="0"/>
        <pt x="431" y="1392" on="0"/>
        <pt x="541" y="1358" on="0"/>
        <pt x="644" y="1286" on="0"/>
        <pt x="708" y="1153" on="0"/>
        <pt x="708" y="1065" on="1"/>
        <pt x="708" y="977" on="0"/>
        <pt x="644" y="844" on="0"/>
        <pt x="592" y="808" on="1"/>
        <pt x="492" y="739" on="0"/>
        <pt x="375" y="739" on="1"/>
        <pt x="257" y="739" on="0"/>
        <pt x="156" y="808" on="1"/>
        <pt x="105" y="844" on="0"/>
        <pt x="41" y="977" on="0"/>
        <pt x="41" y="1065" on="1"/>
        <pt x="41" y="1153" on="0"/>
        <pt x="105" y="1286" on="0"/>
      </contour>
      <contour>
        <pt x="375" y="846" on="1"/>
        <pt x="441" y="846" on="0"/>
        <pt x="484" y="882" on="1"/>
        <pt x="565" y="947" on="0"/>
        <pt x="565" y="1065" on="1"/>
        <pt x="565" y="1225" on="0"/>
        <pt x="438" y="1272" on="1"/>
        <pt x="407" y="1284" on="0"/>
        <pt x="375" y="1284" on="1"/>
        <pt x="308" y="1284" on="0"/>
        <pt x="265" y="1248" on="1"/>
        <pt x="184" y="1183" on="0"/>
        <pt x="184" y="1065" on="1"/>
        <pt x="184" y="904" on="0"/>
        <pt x="312" y="858" on="1"/>
        <pt x="343" y="846" on="0"/>
      </contour>
      <contour>
        <pt x="986" y="601" on="0"/>
        <pt x="1096" y="635" on="0"/>
        <pt x="1209" y="635" on="0"/>
        <pt x="1319" y="601" on="0"/>
        <pt x="1422" y="529" on="0"/>
        <pt x="1486" y="396" on="0"/>
        <pt x="1486" y="308" on="1"/>
        <pt x="1486" y="220" on="0"/>
        <pt x="1422" y="87" on="0"/>
        <pt x="1370" y="52" on="1"/>
        <pt x="1270" y="-18" on="0"/>
        <pt x="1153" y="-18" on="1"/>
        <pt x="1035" y="-18" on="0"/>
        <pt x="934" y="52" on="1"/>
        <pt x="883" y="87" on="0"/>
        <pt x="819" y="220" on="0"/>
        <pt x="819" y="308" on="1"/>
        <pt x="819" y="396" on="0"/>
        <pt x="883" y="529" on="0"/>
      </contour>
      <contour>
        <pt x="1153" y="89" on="1"/>
        <pt x="1219" y="89" on="0"/>
        <pt x="1262" y="124" on="1"/>
        <pt x="1343" y="190" on="0"/>
        <pt x="1343" y="308" on="1"/>
        <pt x="1343" y="468" on="0"/>
        <pt x="1216" y="516" on="1"/>
        <pt x="1185" y="527" on="0"/>
        <pt x="1153" y="527" on="1"/>
        <pt x="1086" y="527" on="0"/>
        <pt x="1043" y="492" on="1"/>
        <pt x="962" y="426" on="0"/>
        <pt x="962" y="308" on="1"/>
        <pt x="962" y="147" on="0"/>
        <pt x="1090" y="100" on="1"/>
        <pt x="1121" y="89" on="0"/>
      </contour>
    </TTGlyph>
    <TTGlyph name="period" xMin="107" yMin="-18" xMax="343" yMax="224">
      <contour>
        <pt x="107" y="103" on="1"/>
        <pt x="107" y="153" on="0"/>
        <pt x="176" y="224" on="0"/>
        <pt x="225" y="224" on="1"/>
        <pt x="274" y="224" on="0"/>
        <pt x="343" y="153" on="0"/>
        <pt x="343" y="103" on="1"/>
        <pt x="343" y="53" on="0"/>
        <pt x="274" y="-18" on="0"/>
        <pt x="225" y="-18" on="1"/>
        <pt x="176" y="-18" on="0"/>
        <pt x="107" y="53" on="0"/>
      </contour>
    </TTGlyph>
    <TTGlyph name="plus" xMin="61" yMin="0" xMax="1069" yMax="1008">
      <contour>
        <pt x="620" y="558" on="1"/>
        <pt x="1069" y="558" on="1"/>
        <pt x="1069" y="449" on="1"/>
        <pt x="620" y="449" on="1"/>
        <pt x="620" y="0" on="1"/>
        <pt x="510" y="0" on="1"/>
        <pt x="510" y="449" on="1"/>
        <pt x="61" y="449" on="1"/>
        <pt x="61" y="558" on="1"/>
        <pt x="510" y="558" on="1"/>
        <pt x="510" y="1008" on="1"/>
        <pt x="620" y="1008" on="1"/>
      </contour>
    </TTGlyph>
    <TTGlyph name="q" xMin="61" yMin="-492" xMax="896" yMax="956">
      <contour>
        <pt x="670" y="37" on="0"/>
        <pt x="536" y="-18" on="0"/>
        <pt x="456" y="-18" on="1"/>
        <pt x="294" y="-18" on="0"/>
        <pt x="182" y="92" on="1"/>
        <pt x="126" y="147" on="0"/>
        <pt x="61" y="334" on="0"/>
        <pt x="61" y="442" on="1"/>
        <pt x="61" y="729" on="0"/>
        <pt x="275" y="874" on="1"/>
        <pt x="394" y="956" on="0"/>
        <pt x="534" y="956" on="1"/>
        <pt x="737" y="956" on="0"/>
        <pt x="896" y="858" on="1"/>
        <pt x="896" y="-492" on="1"/>
        <pt x="735" y="-492" on="1"/>
        <pt x="735" y="110" on="1"/>
      </contour>
      <contour>
        <pt x="464" y="110" on="1"/>
        <pt x="628" y="110" on="0"/>
        <pt x="735" y="290" on="1"/>
        <pt x="735" y="790" on="1"/>
        <pt x="677" y="827" on="0"/>
        <pt x="580" y="827" on="1"/>
        <pt x="316" y="827" on="0"/>
        <pt x="244" y="595" on="1"/>
        <pt x="222" y="527" on="0"/>
        <pt x="222" y="357" on="0"/>
        <pt x="265" y="220" on="0"/>
        <pt x="301" y="182" on="1"/>
        <pt x="371" y="110" on="0"/>
      </contour>
    </TTGlyph>
    <TTGlyph name="question" xMin="108" yMin="-18" xMax="764" yMax="1464">
      <contour>
        <pt x="302" y="103" on="1"/>
        <pt x="302" y="153" on="0"/>
        <pt x="371" y="224" on="0"/>
        <pt x="420" y="224" on="1"/>
        <pt x="469" y="224" on="0"/>
        <pt x="538" y="153" on="0"/>
        <pt x="538" y="103" on="1"/>
        <pt x="538" y="53" on="0"/>
        <pt x="469" y="-18" on="0"/>
        <pt x="420" y="-18" on="1"/>
        <pt x="371" y="-18" on="0"/>
        <pt x="302" y="53" on="0"/>
      </contour>
      <contour>
        <pt x="368" y="388" on="1"/>
        <pt x="315" y="487" on="0"/>
        <pt x="315" y="635" on="0"/>
        <pt x="374" y="765" on="0"/>
        <pt x="459" y="880" on="0"/>
        <pt x="502" y="937" on="1"/>
        <pt x="603" y="1073" on="0"/>
        <pt x="603" y="1180" on="1"/>
        <pt x="603" y="1242" on="0"/>
        <pt x="485" y="1335" on="0"/>
        <pt x="374" y="1335" on="1"/>
        <pt x="263" y="1335" on="0"/>
        <pt x="158" y="1272" on="1"/>
        <pt x="108" y="1380" on="1"/>
        <pt x="207" y="1443" on="0"/>
        <pt x="355" y="1464" on="0"/>
        <pt x="420" y="1464" on="1"/>
        <pt x="556" y="1464" on="0"/>
        <pt x="764" y="1305" on="0"/>
        <pt x="764" y="1180" on="1"/>
        <pt x="764" y="1053" on="0"/>
        <pt x="662" y="906" on="1"/>
        <pt x="620" y="845" on="0"/>
        <pt x="578" y="788" on="1"/>
        <pt x="476" y="650" on="0"/>
        <pt x="476" y="496" on="0"/>
        <pt x="502" y="408" on="1"/>
      </contour>
    </TTGlyph>
    <TTGlyph name="questiondown" xMin="107" yMin="-492" xMax="763" yMax="990">
      <contour>
        <pt x="503" y="584" on="1"/>
        <pt x="556" y="485" on="0"/>
        <pt x="556" y="337" on="0"/>
        <pt x="497" y="207" on="0"/>
        <pt x="412" y="92" on="0"/>
        <pt x="370" y="35" on="1"/>
        <pt x="268" y="-101" on="0"/>
        <pt x="268" y="-208" on="1"/>
        <pt x="268" y="-270" on="0"/>
        <pt x="386" y="-363" on="0"/>
        <pt x="497" y="-363" on="1"/>
        <pt x="608" y="-363" on="0"/>
        <pt x="713" y="-300" on="1"/>
        <pt x="763" y="-408" on="1"/>
        <pt x="664" y="-471" on="0"/>
        <pt x="516" y="-492" on="0"/>
        <pt x="364" y="-492" on="0"/>
        <pt x="208" y="-424" on="0"/>
        <pt x="107" y="-292" on="0"/>
        <pt x="107" y="-141" on="0"/>
        <pt x="166" y="4" on="0"/>
        <pt x="251" y="127" on="0"/>
        <pt x="294" y="184" on="1"/>
        <pt x="395" y="322" on="0"/>
        <pt x="395" y="474" on="0"/>
        <pt x="369" y="564" on="1"/>
      </contour>
      <contour>
        <pt x="569" y="869" on="1"/>
        <pt x="569" y="819" on="0"/>
        <pt x="500" y="748" on="0"/>
        <pt x="451" y="748" on="1"/>
        <pt x="402" y="748" on="0"/>
        <pt x="333" y="819" on="0"/>
        <pt x="333" y="869" on="1"/>
        <pt x="333" y="919" on="0"/>
        <pt x="402" y="990" on="0"/>
        <pt x="451" y="990" on="1"/>
        <pt x="500" y="990" on="0"/>
        <pt x="569" y="919" on="0"/>
      </contour>
    </TTGlyph>
    <TTGlyph name="quotedbl" xMin="64" yMin="980" xMax="513" yMax="1428">
      <component glyphName=".ttfautohint" x="64" y="980" flags="0x0"/>
      <component glyphName="quotesingle" x="0" y="0" flags="0x1004"/>
      <component glyphName="quotesingle" x="297" y="0" flags="0x1004"/>
    </TTGlyph>
    <TTGlyph name="quotedblbase" xMin="75" yMin="-271" xMax="726" yMax="247">
      <component glyphName=".ttfautohint" x="75" y="0" flags="0x0"/>
      <component glyphName="quoteright" x="375" y="-1162" flags="0x1004"/>
      <component glyphName="quoteright" x="0" y="-1162" flags="0x1004"/>
    </TTGlyph>
    <TTGlyph name="quotedblleft" xMin="75" yMin="891" xMax="726" yMax="1409">
      <component glyphName=".ttfautohint" x="75" y="891" flags="0x0"/>
      <component glyphName="quoteleft" x="0" y="0" flags="0x1004"/>
      <component glyphName="quoteleft" x="375" y="0" flags="0x1004"/>
    </TTGlyph>
    <TTGlyph name="quotedblright" xMin="75" yMin="891" xMax="726" yMax="1409">
      <component glyphName=".ttfautohint" x="75" y="891" flags="0x0"/>
      <component glyphName="quoteright" x="0" y="0" flags="0x1004"/>
      <component glyphName="quoteright" x="375" y="0" flags="0x1004"/>
    </TTGlyph>
    <TTGlyph name="quoteleft" xMin="75" yMin="891" xMax="351" yMax="1409">
      <contour>
        <pt x="221" y="1142" on="1"/>
        <pt x="221" y="1124" on="0"/>
        <pt x="270" y="1100" on="1"/>
        <pt x="288" y="1092" on="0"/>
        <pt x="319" y="1042" on="0"/>
        <pt x="319" y="962" on="0"/>
        <pt x="256" y="891" on="0"/>
        <pt x="160" y="891" on="0"/>
        <pt x="105" y="926" on="0"/>
        <pt x="94" y="954" on="1"/>
        <pt x="75" y="1002" on="0"/>
        <pt x="75" y="1063" on="1"/>
        <pt x="75" y="1222" on="0"/>
        <pt x="269" y="1409" on="1"/>
        <pt x="351" y="1337" on="1"/>
        <pt x="221" y="1213" on="0"/>
      </contour>
    </TTGlyph>
    <TTGlyph name="quotereversed" xMin="75" yMin="891" xMax="351" yMax="1409">
      <contour>
        <pt x="221" y="1158" on="1"/>
        <pt x="221" y="1087" on="0"/>
        <pt x="351" y="963" on="1"/>
        <pt x="269" y="891" on="1"/>
        <pt x="153" y="1003" on="0"/>
        <pt x="75" y="1176" on="0"/>
        <pt x="75" y="1254" on="1"/>
        <pt x="75" y="1409" on="0"/>
        <pt x="201" y="1409" on="1"/>
        <pt x="256" y="1409" on="0"/>
        <pt x="319" y="1338" on="0"/>
        <pt x="319" y="1258" on="0"/>
        <pt x="288" y="1208" on="0"/>
        <pt x="270" y="1200" on="1"/>
        <pt x="221" y="1176" on="0"/>
      </contour>
    </TTGlyph>
    <TTGlyph name="quoteright" xMin="75" yMin="891" xMax="351" yMax="1409">
      <contour>
        <pt x="205" y="1158" on="1"/>
        <pt x="205" y="1176" on="0"/>
        <pt x="156" y="1200" on="1"/>
        <pt x="138" y="1208" on="0"/>
        <pt x="107" y="1258" on="0"/>
        <pt x="107" y="1338" on="0"/>
        <pt x="170" y="1409" on="0"/>
        <pt x="266" y="1409" on="0"/>
        <pt x="321" y="1374" on="0"/>
        <pt x="332" y="1346" on="1"/>
        <pt x="351" y="1298" on="0"/>
        <pt x="351" y="1237" on="1"/>
        <pt x="351" y="1078" on="0"/>
        <pt x="157" y="891" on="1"/>
        <pt x="75" y="963" on="1"/>
        <pt x="205" y="1087" on="0"/>
      </contour>
    </TTGlyph>
    <TTGlyph name="quotesinglbase" xMin="75" yMin="-271" xMax="351" yMax="247">
      <component glyphName=".ttfautohint" x="75" y="0" flags="0x0"/>
      <component glyphName="quoteright" x="0" y="-1162" flags="0x1004"/>
    </TTGlyph>
    <TTGlyph name="quotesingle" xMin="64" yMin="980" xMax="216" yMax="1428">
      <contour>
        <pt x="216" y="1428" on="1"/>
        <pt x="168" y="980" on="1"/>
        <pt x="64" y="980" on="1"/>
        <pt x="64" y="1428" on="1"/>
      </contour>
    </TTGlyph>
    <TTGlyph name="r" xMin="164" yMin="0" xMax="790" yMax="956">
      <contour>
        <pt x="164" y="0" on="1"/>
        <pt x="164" y="938" on="1"/>
        <pt x="325" y="938" on="1"/>
        <pt x="325" y="766" on="1"/>
        <pt x="361" y="844" on="0"/>
        <pt x="494" y="956" on="0"/>
        <pt x="663" y="956" on="0"/>
        <pt x="772" y="897" on="0"/>
        <pt x="790" y="864" on="1"/>
        <pt x="722" y="762" on="1"/>
        <pt x="708" y="780" on="0"/>
        <pt x="695" y="792" on="1"/>
        <pt x="658" y="828" on="0"/>
        <pt x="514" y="828" on="0"/>
        <pt x="456" y="782" on="1"/>
        <pt x="398" y="735" on="0"/>
        <pt x="364" y="668" on="1"/>
        <pt x="330" y="601" on="0"/>
        <pt x="325" y="534" on="1"/>
        <pt x="325" y="0" on="1"/>
      </contour>
    </TTGlyph>
    <TTGlyph name="s" xMin="66" yMin="-18" xMax="716" yMax="956">
      <contour>
        <pt x="382" y="111" on="1"/>
        <pt x="555" y="111" on="0"/>
        <pt x="555" y="260" on="1"/>
        <pt x="555" y="350" on="0"/>
        <pt x="390" y="404" on="1"/>
        <pt x="292" y="438" on="1"/>
        <pt x="187" y="475" on="0"/>
        <pt x="86" y="612" on="0"/>
        <pt x="86" y="799" on="0"/>
        <pt x="260" y="956" on="0"/>
        <pt x="396" y="956" on="1"/>
        <pt x="486" y="956" on="0"/>
        <pt x="626" y="909" on="0"/>
        <pt x="664" y="879" on="1"/>
        <pt x="607" y="759" on="1"/>
        <pt x="576" y="784" on="0"/>
        <pt x="462" y="828" on="0"/>
        <pt x="331" y="828" on="0"/>
        <pt x="289" y="789" on="1"/>
        <pt x="247" y="750" on="0"/>
        <pt x="247" y="654" on="0"/>
        <pt x="279" y="622" on="1"/>
        <pt x="311" y="590" on="0"/>
        <pt x="408" y="556" on="1"/>
        <pt x="506" y="522" on="1"/>
        <pt x="613" y="485" on="0"/>
        <pt x="665" y="425" on="1"/>
        <pt x="716" y="364" on="0"/>
        <pt x="716" y="134" on="0"/>
        <pt x="628" y="58" on="1"/>
        <pt x="540" y="-18" on="0"/>
        <pt x="388" y="-18" on="1"/>
        <pt x="307" y="-18" on="0"/>
        <pt x="158" y="15" on="0"/>
        <pt x="66" y="68" on="1"/>
        <pt x="124" y="192" on="1"/>
        <pt x="201" y="146" on="0"/>
        <pt x="309" y="111" on="0"/>
      </contour>
    </TTGlyph>
    <TTGlyph name="scaron" xMin="66" yMin="-18" xMax="716" yMax="1449">
      <component glyphName=".ttfautohint" x="66" y="0" flags="0x0"/>
      <component glyphName="s" x="0" y="0" flags="0x1204"/>
      <component glyphName="uni030C" x="400" y="0" flags="0x1004"/>
    </TTGlyph>
    <TTGlyph name="semicolon" xMin="75" yMin="-294" xMax="351" yMax="875">
      <component glyphName=".ttfautohint" x="75" y="0" flags="0x0"/>
      <component glyphName="comma" x="0" y="0" flags="0x1004"/>
      <component glyphName="period" x="0" y="651" flags="0x1004"/>
    </TTGlyph>
    <TTGlyph name="seven" xMin="35" yMin="-257" xMax="771" yMax="1049">
      <contour>
        <pt x="379" y="636" on="1"/>
        <pt x="544" y="921" on="1"/>
        <pt x="35" y="921" on="1"/>
        <pt x="35" y="1049" on="1"/>
        <pt x="771" y="1049" on="1"/>
        <pt x="607" y="764" on="1"/>
        <pt x="475" y="535" on="0"/>
        <pt x="310" y="-7" on="0"/>
        <pt x="285" y="-257" on="1"/>
        <pt x="124" y="-257" on="1"/>
        <pt x="145" y="-39" on="0"/>
        <pt x="301" y="499" on="0"/>
      </contour>
    </TTGlyph>
    <TTGlyph name="six" xMin="70" yMin="-18" xMax="942" yMax="1305">
      <contour>
        <pt x="624" y="111" on="0"/>
        <pt x="777" y="257" on="0"/>
        <pt x="781" y="387" on="1"/>
        <pt x="781" y="404" on="1"/>
        <pt x="781" y="533" on="0"/>
        <pt x="632" y="681" on="0"/>
        <pt x="508" y="681" on="1"/>
        <pt x="351" y="681" on="0"/>
        <pt x="236" y="572" on="1"/>
        <pt x="231" y="540" on="0"/>
        <pt x="231" y="415" on="0"/>
        <pt x="273" y="267" on="0"/>
        <pt x="336" y="183" on="0"/>
        <pt x="378" y="156" on="1"/>
        <pt x="447" y="111" on="0"/>
      </contour>
      <contour>
        <pt x="525" y="-18" on="1"/>
        <pt x="393" y="-18" on="0"/>
        <pt x="284" y="47" on="1"/>
        <pt x="152" y="125" on="0"/>
        <pt x="100" y="294" on="1"/>
        <pt x="70" y="388" on="0"/>
        <pt x="70" y="584" on="0"/>
        <pt x="90" y="726" on="0"/>
        <pt x="140" y="878" on="0"/>
        <pt x="217" y="1010" on="0"/>
        <pt x="339" y="1133" on="0"/>
        <pt x="417" y="1180" on="1"/>
        <pt x="588" y="1282" on="0"/>
        <pt x="840" y="1305" on="1"/>
        <pt x="855" y="1176" on="1"/>
        <pt x="611" y="1154" on="0"/>
        <pt x="299" y="922" on="0"/>
        <pt x="253" y="713" on="1"/>
        <pt x="295" y="758" on="0"/>
        <pt x="453" y="810" on="0"/>
        <pt x="536" y="810" on="1"/>
        <pt x="711" y="810" on="0"/>
        <pt x="942" y="591" on="0"/>
        <pt x="942" y="232" on="0"/>
        <pt x="720" y="-18" on="0"/>
      </contour>
    </TTGlyph>
    <TTGlyph name="slash" xMin="24" yMin="0" xMax="621" yMax="1475">
      <contour>
        <pt x="493" y="1475" on="1"/>
        <pt x="621" y="1475" on="1"/>
        <pt x="152" y="0" on="1"/>
        <pt x="24" y="0" on="1"/>
      </contour>
    </TTGlyph>
    <TTGlyph name="sterling" xMin="129" yMin="-18" xMax="976" yMax="1178">
      <contour>
        <pt x="361" y="867" on="1"/>
        <pt x="361" y="786" on="0"/>
        <pt x="416" y="672" on="1"/>
        <pt x="785" y="672" on="1"/>
        <pt x="785" y="563" on="1"/>
        <pt x="467" y="563" on="1"/>
        <pt x="489" y="505" on="0"/>
        <pt x="489" y="358" on="0"/>
        <pt x="416" y="230" on="0"/>
        <pt x="336" y="153" on="1"/>
        <pt x="458" y="200" on="0"/>
        <pt x="574" y="200" on="1"/>
        <pt x="778" y="200" on="0"/>
        <pt x="976" y="93" on="1"/>
        <pt x="896" y="-18" on="1"/>
        <pt x="720" y="71" on="0"/>
        <pt x="570" y="71" on="1"/>
        <pt x="429" y="71" on="0"/>
        <pt x="302" y="26" on="1"/>
        <pt x="266" y="13" on="0"/>
        <pt x="189" y="-18" on="1"/>
        <pt x="129" y="111" on="1"/>
        <pt x="208" y="170" on="0"/>
        <pt x="328" y="331" on="0"/>
        <pt x="328" y="489" on="0"/>
        <pt x="299" y="563" on="1"/>
        <pt x="156" y="563" on="1"/>
        <pt x="156" y="672" on="1"/>
        <pt x="250" y="672" on="1"/>
        <pt x="200" y="781" on="0"/>
        <pt x="200" y="869" on="1"/>
        <pt x="200" y="1002" on="0"/>
        <pt x="395" y="1178" on="0"/>
        <pt x="552" y="1178" on="1"/>
        <pt x="746" y="1178" on="0"/>
        <pt x="857" y="1101" on="1"/>
        <pt x="821" y="973" on="1"/>
        <pt x="709" y="1049" on="0"/>
        <pt x="564" y="1049" on="1"/>
        <pt x="480" y="1049" on="0"/>
        <pt x="362" y="953" on="0"/>
        <pt x="361" y="874" on="1"/>
      </contour>
    </TTGlyph>
    <TTGlyph name="t" xMin="8" yMin="-18" xMax="626" yMax="1188">
      <contour>
        <pt x="412" y="-18" on="1"/>
        <pt x="174" y="-18" on="0"/>
        <pt x="174" y="246" on="1"/>
        <pt x="174" y="810" on="1"/>
        <pt x="8" y="810" on="1"/>
        <pt x="8" y="938" on="1"/>
        <pt x="174" y="938" on="1"/>
        <pt x="174" y="1128" on="1"/>
        <pt x="335" y="1188" on="1"/>
        <pt x="335" y="938" on="1"/>
        <pt x="564" y="938" on="1"/>
        <pt x="564" y="810" on="1"/>
        <pt x="335" y="810" on="1"/>
        <pt x="335" y="256" on="1"/>
        <pt x="335" y="179" on="0"/>
        <pt x="413" y="112" on="0"/>
        <pt x="461" y="112" on="1"/>
        <pt x="554" y="112" on="0"/>
        <pt x="606" y="128" on="1"/>
        <pt x="626" y="15" on="1"/>
        <pt x="534" y="-18" on="0"/>
      </contour>
    </TTGlyph>
    <TTGlyph name="thorn" xMin="164" yMin="-492" xMax="1002" yMax="1475">
      <contour>
        <pt x="329" y="154" on="1"/>
        <pt x="409" y="110" on="0"/>
        <pt x="575" y="110" on="0"/>
        <pt x="688" y="167" on="0"/>
        <pt x="782" y="266" on="0"/>
        <pt x="841" y="416" on="0"/>
        <pt x="841" y="502" on="1"/>
        <pt x="841" y="641" on="0"/>
        <pt x="692" y="827" on="0"/>
        <pt x="583" y="827" on="1"/>
        <pt x="509" y="827" on="0"/>
        <pt x="375" y="726" on="0"/>
        <pt x="329" y="648" on="1"/>
      </contour>
      <contour>
        <pt x="598" y="956" on="1"/>
        <pt x="714" y="956" on="0"/>
        <pt x="902" y="828" on="0"/>
        <pt x="1002" y="623" on="0"/>
        <pt x="1002" y="506" on="1"/>
        <pt x="1002" y="273" on="0"/>
        <pt x="731" y="-18" on="0"/>
        <pt x="530" y="-18" on="1"/>
        <pt x="446" y="-18" on="0"/>
        <pt x="329" y="14" on="1"/>
        <pt x="329" y="-492" on="1"/>
        <pt x="164" y="-492" on="1"/>
        <pt x="164" y="1475" on="1"/>
        <pt x="329" y="1475" on="1"/>
        <pt x="329" y="828" on="1"/>
        <pt x="442" y="956" on="0"/>
      </contour>
    </TTGlyph>
    <TTGlyph name="three" xMin="36" yMin="-350" xMax="788" yMax="1067">
      <contour>
        <pt x="717" y="747" on="1"/>
        <pt x="717" y="562" on="0"/>
        <pt x="536" y="462" on="1"/>
        <pt x="664" y="413" on="0"/>
        <pt x="725" y="326" on="1"/>
        <pt x="788" y="230" on="0"/>
        <pt x="788" y="81" on="1"/>
        <pt x="788" y="-98" on="0"/>
        <pt x="666" y="-222" on="1"/>
        <pt x="540" y="-350" on="0"/>
        <pt x="153" y="-350" on="0"/>
        <pt x="36" y="-258" on="1"/>
        <pt x="101" y="-154" on="1"/>
        <pt x="201" y="-221" on="0"/>
        <pt x="462" y="-221" on="0"/>
        <pt x="625" y="-46" on="0"/>
        <pt x="625" y="224" on="0"/>
        <pt x="534" y="302" on="1"/>
        <pt x="443" y="380" on="0"/>
        <pt x="316" y="380" on="1"/>
        <pt x="234" y="380" on="1"/>
        <pt x="234" y="508" on="1"/>
        <pt x="288" y="508" on="1"/>
        <pt x="380" y="508" on="0"/>
        <pt x="462" y="560" on="1"/>
        <pt x="503" y="586" on="0"/>
        <pt x="554" y="684" on="0"/>
        <pt x="554" y="740" on="1"/>
        <pt x="554" y="846" on="0"/>
        <pt x="484" y="896" on="1"/>
        <pt x="418" y="939" on="0"/>
        <pt x="247" y="939" on="0"/>
        <pt x="144" y="894" on="1"/>
        <pt x="102" y="1006" on="1"/>
        <pt x="153" y="1032" on="0"/>
        <pt x="293" y="1067" on="0"/>
        <pt x="433" y="1067" on="0"/>
        <pt x="500" y="1047" on="1"/>
        <pt x="619" y="1012" on="0"/>
        <pt x="673" y="920" on="1"/>
        <pt x="717" y="847" on="0"/>
      </contour>
    </TTGlyph>
    <TTGlyph name="tildecomb" xMin="-342" yMin="1107" xMax="321" yMax="1356">
      <contour>
        <pt x="-272" y="1107" on="1"/>
        <pt x="-342" y="1167" on="1"/>
        <pt x="-271" y="1306" on="0"/>
        <pt x="-168" y="1338" on="1"/>
        <pt x="-143" y="1346" on="0"/>
        <pt x="-78" y="1346" on="0"/>
        <pt x="73" y="1258" on="0"/>
        <pt x="141" y="1258" on="0"/>
        <pt x="223" y="1306" on="0"/>
        <pt x="251" y="1356" on="1"/>
        <pt x="321" y="1296" on="1"/>
        <pt x="251" y="1159" on="0"/>
        <pt x="148" y="1124" on="1"/>
        <pt x="122" y="1116" on="0"/>
        <pt x="57" y="1116" on="0"/>
        <pt x="-94" y="1206" on="0"/>
        <pt x="-161" y="1206" on="0"/>
        <pt x="-244" y="1157" on="0"/>
      </contour>
    </TTGlyph>
    <TTGlyph name="two" xMin="90" yMin="0" xMax="802" yMax="1067">
      <contour>
        <pt x="547" y="893" on="1"/>
        <pt x="497" y="938" on="0"/>
        <pt x="280" y="938" on="0"/>
        <pt x="150" y="854" on="1"/>
        <pt x="90" y="959" on="1"/>
        <pt x="139" y="999" on="0"/>
        <pt x="304" y="1067" on="0"/>
        <pt x="400" y="1067" on="1"/>
        <pt x="563" y="1067" on="0"/>
        <pt x="758" y="923" on="0"/>
        <pt x="758" y="780" on="1"/>
        <pt x="758" y="623" on="0"/>
        <pt x="562" y="416" on="1"/>
        <pt x="531" y="382" on="0"/>
        <pt x="478" y="328" on="1"/>
        <pt x="282" y="128" on="1"/>
        <pt x="802" y="128" on="1"/>
        <pt x="802" y="0" on="1"/>
        <pt x="90" y="0" on="1"/>
        <pt x="90" y="128" on="1"/>
        <pt x="286" y="328" on="1"/>
        <pt x="341" y="385" on="0"/>
        <pt x="388" y="432" on="1"/>
        <pt x="545" y="592" on="0"/>
        <pt x="581" y="696" on="1"/>
        <pt x="596" y="740" on="0"/>
        <pt x="596" y="847" on="0"/>
      </contour>
    </TTGlyph>
    <TTGlyph name="u" xMin="164" yMin="-18" xMax="957" yMax="938">
      <contour>
        <pt x="796" y="172" on="1"/>
        <pt x="706" y="-18" on="0"/>
        <pt x="503" y="-18" on="1"/>
        <pt x="421" y="-18" on="0"/>
        <pt x="290" y="55" on="0"/>
        <pt x="215" y="139" on="0"/>
        <pt x="190" y="211" on="1"/>
        <pt x="164" y="283" on="0"/>
        <pt x="164" y="375" on="1"/>
        <pt x="164" y="938" on="1"/>
        <pt x="325" y="938" on="1"/>
        <pt x="325" y="431" on="1"/>
        <pt x="325" y="110" on="0"/>
        <pt x="555" y="110" on="1"/>
        <pt x="614" y="110" on="0"/>
        <pt x="663" y="142" on="1"/>
        <pt x="738" y="190" on="0"/>
        <pt x="781" y="300" on="1"/>
        <pt x="796" y="338" on="0"/>
        <pt x="796" y="360" on="1"/>
        <pt x="796" y="938" on="1"/>
        <pt x="957" y="938" on="1"/>
        <pt x="957" y="0" on="1"/>
        <pt x="796" y="0" on="1"/>
      </contour>
    </TTGlyph>
    <TTGlyph name="uacute" xMin="164" yMin="-18" xMax="957" yMax="1475">
      <component glyphName=".ttfautohint" x="164" y="0" flags="0x0"/>
      <component glyphName="u" x="0" y="0" flags="0x1204"/>
      <component glyphName="acutecomb" x="555" y="0" flags="0x1004"/>
    </TTGlyph>
    <TTGlyph name="ucircumflex" xMin="164" yMin="-18" xMax="957" yMax="1449">
      <component glyphName=".ttfautohint" x="164" y="0" flags="0x0"/>
      <component glyphName="u" x="0" y="0" flags="0x1204"/>
      <component glyphName="uni0302" x="555" y="0" flags="0x1004"/>
    </TTGlyph>
    <TTGlyph name="udieresis" xMin="164" yMin="-18" xMax="957" yMax="1430">
      <component glyphName=".ttfautohint" x="164" y="0" flags="0x0"/>
      <component glyphName="u" x="0" y="0" flags="0x1200"/>
      <component glyphName="dieresis" x="83" y="0" flags="0x1000"/>
    </TTGlyph>
    <TTGlyph name="ugrave" xMin="164" yMin="-18" xMax="957" yMax="1475">
      <component glyphName=".ttfautohint" x="164" y="0" flags="0x0"/>
      <component glyphName="u" x="0" y="0" flags="0x1204"/>
      <component glyphName="gravecomb" x="555" y="0" flags="0x1004"/>
    </TTGlyph>
    <TTGlyph name="uhungarumlaut" xMin="164" yMin="-18" xMax="957" yMax="1475">
      <component glyphName=".ttfautohint" x="164" y="0" flags="0x0"/>
      <component glyphName="u" x="0" y="0" flags="0x1204"/>
      <component glyphName="uni030B" x="555" y="0" flags="0x1004"/>
    </TTGlyph>
    <TTGlyph name="umacron" xMin="164" yMin="-18" xMax="957" yMax="1359">
      <component glyphName=".ttfautohint" x="164" y="0" flags="0x0"/>
      <component glyphName="u" x="0" y="0" flags="0x1204"/>
      <component glyphName="uni0304" x="555" y="0" flags="0x1004"/>
    </TTGlyph>
    <TTGlyph name="underscore" xMin="65" yMin="-297" xMax="983" yMax="-188">
      <contour>
        <pt x="983" y="-297" on="1"/>
        <pt x="65" y="-297" on="1"/>
        <pt x="65" y="-188" on="1"/>
        <pt x="983" y="-188" on="1"/>
      </contour>
    </TTGlyph>
    <TTGlyph name="uni0181" xMin="-207" yMin="-18" xMax="1068" yMax="1409">
      <contour>
        <pt x="917" y="73" on="0"/>
        <pt x="669" y="-18" on="0"/>
        <pt x="316" y="-18" on="0"/>
        <pt x="180" y="13" on="1"/>
        <pt x="180" y="1202" on="1"/>
        <pt x="-22" y="1125" on="0"/>
        <pt x="-22" y="1018" on="1"/>
        <pt x="-22" y="953" on="0"/>
        <pt x="0" y="896" on="1"/>
        <pt x="-174" y="870" on="1"/>
        <pt x="-207" y="932" on="0"/>
        <pt x="-207" y="1128" on="0"/>
        <pt x="-70" y="1283" on="0"/>
        <pt x="40" y="1326" on="1"/>
        <pt x="255" y="1409" on="0"/>
        <pt x="702" y="1409" on="0"/>
        <pt x="963" y="1235" on="0"/>
        <pt x="963" y="953" on="0"/>
        <pt x="825" y="781" on="0"/>
        <pt x="717" y="752" on="1"/>
        <pt x="979" y="717" on="0"/>
        <pt x="1046" y="538" on="1"/>
        <pt x="1068" y="482" on="0"/>
        <pt x="1068" y="413" on="1"/>
        <pt x="1068" y="271" on="0"/>
      </contour>
      <contour>
        <pt x="361" y="1252" on="1"/>
        <pt x="361" y="795" on="1"/>
        <pt x="427" y="795" on="1"/>
        <pt x="594" y="795" on="0"/>
        <pt x="771" y="921" on="0"/>
        <pt x="771" y="1040" on="1"/>
        <pt x="771" y="1187" on="0"/>
        <pt x="626" y="1244" on="1"/>
        <pt x="559" y="1270" on="0"/>
        <pt x="420" y="1270" on="0"/>
      </contour>
      <contour>
        <pt x="361" y="140" on="1"/>
        <pt x="415" y="122" on="0"/>
        <pt x="499" y="122" on="1"/>
        <pt x="687" y="122" on="0"/>
        <pt x="883" y="261" on="0"/>
        <pt x="883" y="390" on="1"/>
        <pt x="883" y="655" on="0"/>
        <pt x="421" y="655" on="1"/>
        <pt x="361" y="655" on="1"/>
      </contour>
    </TTGlyph>
    <TTGlyph name="uni0186" xMin="61" yMin="-18" xMax="1206" yMax="1409">
      <contour>
        <pt x="515" y="1269" on="1"/>
        <pt x="340" y="1269" on="0"/>
        <pt x="177" y="1146" on="1"/>
        <pt x="89" y="1265" on="1"/>
        <pt x="195" y="1342" on="0"/>
        <pt x="264" y="1368" on="1"/>
        <pt x="374" y="1409" on="0"/>
        <pt x="758" y="1409" on="0"/>
        <pt x="1052" y="1229" on="0"/>
        <pt x="1206" y="906" on="0"/>
        <pt x="1206" y="695" on="1"/>
        <pt x="1206" y="374" on="0"/>
        <pt x="853" y="-18" on="0"/>
        <pt x="549" y="-18" on="1"/>
        <pt x="198" y="-18" on="0"/>
        <pt x="61" y="276" on="1"/>
        <pt x="176" y="340" on="1"/>
        <pt x="219" y="242" on="0"/>
        <pt x="401" y="122" on="0"/>
        <pt x="543" y="122" on="1"/>
        <pt x="777" y="122" on="0"/>
        <pt x="1014" y="428" on="0"/>
        <pt x="1014" y="696" on="1"/>
        <pt x="1014" y="923" on="0"/>
        <pt x="886" y="1092" on="1"/>
        <pt x="826" y="1173" on="0"/>
        <pt x="639" y="1269" on="0"/>
        <pt x="527" y="1269" on="1"/>
      </contour>
    </TTGlyph>
    <TTGlyph name="uni018A" xMin="-207" yMin="-18" xMax="1330" yMax="1409">
      <contour>
        <pt x="309" y="1395" on="0"/>
        <pt x="465" y="1409" on="0"/>
        <pt x="663" y="1409" on="0"/>
        <pt x="891" y="1349" on="0"/>
        <pt x="1091" y="1228" on="0"/>
        <pt x="1242" y="1059" on="0"/>
        <pt x="1330" y="825" on="0"/>
        <pt x="1330" y="524" on="0"/>
        <pt x="1205" y="250" on="0"/>
        <pt x="1100" y="163" on="1"/>
        <pt x="883" y="-18" on="0"/>
        <pt x="584" y="-18" on="1"/>
        <pt x="367" y="-18" on="0"/>
        <pt x="180" y="13" on="1"/>
        <pt x="180" y="1210" on="1"/>
        <pt x="-22" y="1141" on="0"/>
        <pt x="-22" y="1018" on="1"/>
        <pt x="-22" y="952" on="0"/>
        <pt x="0" y="896" on="1"/>
        <pt x="-174" y="870" on="1"/>
        <pt x="-207" y="932" on="0"/>
        <pt x="-207" y="1101" on="0"/>
        <pt x="-137" y="1224" on="0"/>
        <pt x="-15" y="1305" on="0"/>
        <pt x="133" y="1364" on="0"/>
      </contour>
      <contour>
        <pt x="361" y="1252" on="1"/>
        <pt x="360" y="140" on="1"/>
        <pt x="452" y="122" on="0"/>
        <pt x="665" y="122" on="0"/>
        <pt x="871" y="196" on="0"/>
        <pt x="1039" y="333" on="0"/>
        <pt x="1142" y="554" on="0"/>
        <pt x="1142" y="799" on="0"/>
        <pt x="1069" y="991" on="0"/>
        <pt x="949" y="1126" on="0"/>
        <pt x="872" y="1175" on="1"/>
        <pt x="721" y="1270" on="0"/>
        <pt x="546" y="1270" on="1"/>
        <pt x="439" y="1270" on="0"/>
      </contour>
    </TTGlyph>
    <TTGlyph name="uni018E" xMin="102" yMin="0" xMax="897" yMax="1391">
      <contour>
        <pt x="716" y="747" on="1"/>
        <pt x="716" y="1252" on="1"/>
        <pt x="102" y="1251" on="1"/>
        <pt x="102" y="1391" on="1"/>
        <pt x="897" y="1391" on="1"/>
        <pt x="897" y="0" on="1"/>
        <pt x="102" y="0" on="1"/>
        <pt x="102" y="139" on="1"/>
        <pt x="716" y="139" on="1"/>
        <pt x="716" y="608" on="1"/>
        <pt x="298" y="607" on="1"/>
        <pt x="298" y="747" on="1"/>
      </contour>
    </TTGlyph>
    <TTGlyph name="uni018F" xMin="40" yMin="-18" xMax="1284" yMax="1409">
      <contour>
        <pt x="646" y="-18" on="1"/>
        <pt x="382" y="-18" on="0"/>
        <pt x="215" y="138" on="1"/>
        <pt x="40" y="301" on="0"/>
        <pt x="40" y="627" on="1"/>
        <pt x="128" y="720" on="1"/>
        <pt x="1092" y="720" on="1"/>
        <pt x="1082" y="993" on="0"/>
        <pt x="913" y="1154" on="1"/>
        <pt x="793" y="1269" on="0"/>
        <pt x="615" y="1269" on="1"/>
        <pt x="499" y="1269" on="0"/>
        <pt x="314" y="1195" on="0"/>
        <pt x="222" y="1132" on="1"/>
        <pt x="134" y="1251" on="1"/>
        <pt x="235" y="1323" on="0"/>
        <pt x="458" y="1409" on="0"/>
        <pt x="778" y="1409" on="0"/>
        <pt x="1038" y="1295" on="0"/>
        <pt x="1119" y="1196" on="1"/>
        <pt x="1284" y="994" on="0"/>
        <pt x="1284" y="363" on="0"/>
        <pt x="951" y="-18" on="0"/>
      </contour>
      <contour>
        <pt x="1087" y="580" on="1"/>
        <pt x="222" y="580" on="1"/>
        <pt x="222" y="320" on="0"/>
        <pt x="410" y="194" on="1"/>
        <pt x="517" y="122" on="0"/>
        <pt x="733" y="122" on="0"/>
        <pt x="873" y="167" on="0"/>
        <pt x="971" y="247" on="0"/>
        <pt x="1006" y="306" on="1"/>
        <pt x="1071" y="413" on="0"/>
      </contour>
    </TTGlyph>
    <TTGlyph name="uni0190" xMin="49" yMin="-18" xMax="912" yMax="1409">
      <contour>
        <pt x="564" y="122" on="1"/>
        <pt x="629" y="122" on="0"/>
        <pt x="782" y="185" on="0"/>
        <pt x="834" y="232" on="1"/>
        <pt x="912" y="111" on="1"/>
        <pt x="755" y="-18" on="0"/>
        <pt x="548" y="-18" on="1"/>
        <pt x="436" y="-18" on="0"/>
        <pt x="246" y="54" on="0"/>
        <pt x="182" y="115" on="1"/>
        <pt x="49" y="243" on="0"/>
        <pt x="49" y="426" on="1"/>
        <pt x="49" y="652" on="0"/>
        <pt x="296" y="764" on="1"/>
        <pt x="219" y="792" on="0"/>
        <pt x="84" y="942" on="0"/>
        <pt x="84" y="1123" on="0"/>
        <pt x="143" y="1256" on="0"/>
        <pt x="235" y="1336" on="0"/>
        <pt x="298" y="1362" on="1"/>
        <pt x="410" y="1409" on="0"/>
        <pt x="651" y="1409" on="0"/>
        <pt x="844" y="1337" on="0"/>
        <pt x="884" y="1304" on="1"/>
        <pt x="806" y="1188" on="1"/>
        <pt x="757" y="1222" on="0"/>
        <pt x="617" y="1269" on="0"/>
        <pt x="488" y="1269" on="0"/>
        <pt x="382" y="1235" on="0"/>
        <pt x="324" y="1185" on="0"/>
        <pt x="306" y="1151" on="1"/>
        <pt x="276" y="1097" on="0"/>
        <pt x="276" y="975" on="0"/>
        <pt x="337" y="883" on="0"/>
        <pt x="383" y="858" on="1"/>
        <pt x="474" y="810" on="0"/>
        <pt x="558" y="810" on="1"/>
        <pt x="700" y="810" on="1"/>
        <pt x="700" y="670" on="1"/>
        <pt x="543" y="670" on="1"/>
        <pt x="396" y="670" on="0"/>
        <pt x="241" y="526" on="0"/>
        <pt x="241" y="292" on="0"/>
        <pt x="419" y="122" on="0"/>
      </contour>
    </TTGlyph>
    <TTGlyph name="uni0191" xMin="-159" yMin="-492" xMax="975" yMax="1391">
      <contour>
        <pt x="180" y="1391" on="1"/>
        <pt x="975" y="1391" on="1"/>
        <pt x="975" y="1252" on="1"/>
        <pt x="361" y="1252" on="1"/>
        <pt x="361" y="783" on="1"/>
        <pt x="779" y="784" on="1"/>
        <pt x="779" y="644" on="1"/>
        <pt x="361" y="644" on="1"/>
        <pt x="361" y="28" on="1"/>
        <pt x="361" y="-211" on="0"/>
        <pt x="278" y="-330" on="1"/>
        <pt x="223" y="-408" on="0"/>
        <pt x="120" y="-460" on="0"/>
        <pt x="60" y="-479" on="0"/>
        <pt x="18" y="-484" on="1"/>
        <pt x="-38" y="-492" on="0"/>
        <pt x="-114" y="-492" on="1"/>
        <pt x="-159" y="-354" on="1"/>
        <pt x="34" y="-346" on="0"/>
        <pt x="98" y="-281" on="1"/>
        <pt x="165" y="-212" on="0"/>
        <pt x="175" y="-42" on="1"/>
        <pt x="180" y="40" on="0"/>
        <pt x="180" y="166" on="1"/>
      </contour>
    </TTGlyph>
    <TTGlyph name="uni0194" xMin="59" yMin="-492" xMax="1182" yMax="1410">
      <contour>
        <pt x="704" y="169" on="1"/>
        <pt x="751" y="63" on="0"/>
        <pt x="787" y="-16" on="1"/>
        <pt x="868" y="-192" on="0"/>
        <pt x="868" y="-394" on="0"/>
        <pt x="724" y="-492" on="0"/>
        <pt x="620" y="-492" on="1"/>
        <pt x="528" y="-492" on="0"/>
        <pt x="475" y="-460" on="1"/>
        <pt x="378" y="-401" on="0"/>
        <pt x="378" y="-290" on="1"/>
        <pt x="378" y="-234" on="0"/>
        <pt x="447" y="-46" on="0"/>
        <pt x="539" y="162" on="1"/>
        <pt x="59" y="1391" on="1"/>
        <pt x="232" y="1391" on="1"/>
        <pt x="623" y="378" on="1"/>
        <pt x="1020" y="1410" on="1"/>
        <pt x="1182" y="1410" on="1"/>
      </contour>
      <contour>
        <pt x="621" y="-50" on="1"/>
        <pt x="566" y="-207" on="0"/>
        <pt x="566" y="-312" on="0"/>
        <pt x="599" y="-352" on="0"/>
        <pt x="620" y="-352" on="1"/>
        <pt x="680" y="-352" on="0"/>
        <pt x="680" y="-261" on="1"/>
        <pt x="680" y="-206" on="0"/>
      </contour>
    </TTGlyph>
    <TTGlyph name="uni0196" xMin="180" yMin="-18" xMax="668" yMax="1392">
      <contour>
        <pt x="668" y="13" on="1"/>
        <pt x="580" y="-18" on="0"/>
        <pt x="392" y="-18" on="0"/>
        <pt x="304" y="12" on="0"/>
        <pt x="264" y="47" on="1"/>
        <pt x="180" y="122" on="0"/>
        <pt x="180" y="313" on="1"/>
        <pt x="180" y="1392" on="1"/>
        <pt x="361" y="1392" on="1"/>
        <pt x="361" y="334" on="1"/>
        <pt x="361" y="123" on="0"/>
        <pt x="496" y="123" on="1"/>
        <pt x="564" y="123" on="0"/>
        <pt x="646" y="140" on="1"/>
      </contour>
    </TTGlyph>
    <TTGlyph name="uni0197" xMin="61" yMin="0" xMax="602" yMax="1391">
      <contour>
        <pt x="241" y="664" on="1"/>
        <pt x="61" y="664" on="1"/>
        <pt x="61" y="803" on="1"/>
        <pt x="241" y="803" on="1"/>
        <pt x="241" y="1391" on="1"/>
        <pt x="422" y="1391" on="1"/>
        <pt x="422" y="804" on="1"/>
        <pt x="602" y="804" on="1"/>
        <pt x="602" y="664" on="1"/>
        <pt x="422" y="664" on="1"/>
        <pt x="422" y="0" on="1"/>
        <pt x="241" y="0" on="1"/>
      </contour>
    </TTGlyph>
    <TTGlyph name="uni0198" xMin="180" yMin="0" xMax="1332" yMax="1409">
      <contour>
        <pt x="1103" y="1" on="1"/>
        <pt x="892" y="1" on="1"/>
        <pt x="361" y="679" on="1"/>
        <pt x="361" y="0" on="1"/>
        <pt x="180" y="0" on="1"/>
        <pt x="180" y="1391" on="1"/>
        <pt x="361" y="1391" on="1"/>
        <pt x="361" y="693" on="1"/>
        <pt x="637" y="1071" on="1"/>
        <pt x="756" y="1232" on="0"/>
        <pt x="861" y="1344" on="0"/>
        <pt x="894" y="1366" on="1"/>
        <pt x="962" y="1409" on="0"/>
        <pt x="1019" y="1409" on="1"/>
        <pt x="1170" y="1409" on="0"/>
        <pt x="1246" y="1328" on="1"/>
        <pt x="1316" y="1258" on="0"/>
        <pt x="1332" y="1119" on="1"/>
        <pt x="1171" y="1095" on="1"/>
        <pt x="1160" y="1177" on="0"/>
        <pt x="1096" y="1269" on="0"/>
        <pt x="1032" y="1269" on="1"/>
        <pt x="974" y="1269" on="0"/>
        <pt x="883" y="1151" on="1"/>
        <pt x="873" y="1137" on="0"/>
        <pt x="825" y="1071" on="0"/>
        <pt x="822" y="1066" on="1"/>
        <pt x="555" y="701" on="1"/>
      </contour>
    </TTGlyph>
    <TTGlyph name="uni0199" xMin="164" yMin="0" xMax="914" yMax="1464">
      <contour>
        <pt x="325" y="0" on="1"/>
        <pt x="164" y="0" on="1"/>
        <pt x="164" y="1020" on="1"/>
        <pt x="164" y="1464" on="0"/>
        <pt x="515" y="1464" on="1"/>
        <pt x="625" y="1464" on="0"/>
        <pt x="696" y="1430" on="1"/>
        <pt x="719" y="1418" on="0"/>
        <pt x="779" y="1379" on="0"/>
        <pt x="788" y="1374" on="1"/>
        <pt x="744" y="1247" on="1"/>
        <pt x="703" y="1283" on="0"/>
        <pt x="580" y="1336" on="0"/>
        <pt x="442" y="1336" on="0"/>
        <pt x="325" y="1195" on="0"/>
        <pt x="325" y="1107" on="1"/>
        <pt x="325" y="624" on="1"/>
        <pt x="644" y="938" on="1"/>
        <pt x="844" y="938" on="1"/>
        <pt x="459" y="562" on="1"/>
        <pt x="914" y="0" on="1"/>
        <pt x="714" y="0" on="1"/>
        <pt x="325" y="479" on="1"/>
      </contour>
    </TTGlyph>
    <TTGlyph name="uni019D" xMin="-159" yMin="-492" xMax="1205" yMax="1391">
      <contour>
        <pt x="180" y="1391" on="1"/>
        <pt x="361" y="1391" on="1"/>
        <pt x="1024" y="348" on="1"/>
        <pt x="1024" y="1391" on="1"/>
        <pt x="1205" y="1391" on="1"/>
        <pt x="1205" y="0" on="1"/>
        <pt x="1024" y="0" on="1"/>
        <pt x="361" y="1042" on="1"/>
        <pt x="361" y="28" on="1"/>
        <pt x="361" y="-211" on="0"/>
        <pt x="278" y="-330" on="1"/>
        <pt x="223" y="-408" on="0"/>
        <pt x="120" y="-460" on="0"/>
        <pt x="60" y="-479" on="0"/>
        <pt x="18" y="-484" on="1"/>
        <pt x="-38" y="-492" on="0"/>
        <pt x="-114" y="-492" on="1"/>
        <pt x="-159" y="-354" on="1"/>
        <pt x="34" y="-346" on="0"/>
        <pt x="98" y="-281" on="1"/>
        <pt x="165" y="-212" on="0"/>
        <pt x="175" y="-42" on="1"/>
        <pt x="180" y="40" on="0"/>
        <pt x="180" y="166" on="1"/>
      </contour>
    </TTGlyph>
    <TTGlyph name="uni019F" xMin="45" yMin="-18" xMax="1399" yMax="1409">
      <contour>
        <pt x="305" y="1302" on="0"/>
        <pt x="565" y="1409" on="0"/>
        <pt x="856" y="1409" on="0"/>
        <pt x="1075" y="1337" on="0"/>
        <pt x="1234" y="1207" on="0"/>
        <pt x="1290" y="1118" on="1"/>
        <pt x="1399" y="944" on="0"/>
        <pt x="1399" y="703" on="1"/>
        <pt x="1399" y="334" on="0"/>
        <pt x="1150" y="124" on="1"/>
        <pt x="981" y="-18" on="0"/>
        <pt x="727" y="-18" on="1"/>
        <pt x="562" y="-18" on="0"/>
        <pt x="300" y="93" on="0"/>
        <pt x="216" y="190" on="1"/>
        <pt x="45" y="391" on="0"/>
        <pt x="45" y="703" on="1"/>
        <pt x="45" y="1011" on="0"/>
        <pt x="220" y="1208" on="1"/>
      </contour>
      <contour>
        <pt x="1209" y="664" on="1"/>
        <pt x="238" y="664" on="1"/>
        <pt x="248" y="427" on="0"/>
        <pt x="370" y="279" on="1"/>
        <pt x="498" y="123" on="0"/>
        <pt x="727" y="123" on="1"/>
        <pt x="835" y="123" on="0"/>
        <pt x="1014" y="209" on="0"/>
        <pt x="1074" y="284" on="1"/>
        <pt x="1199" y="439" on="0"/>
      </contour>
      <contour>
        <pt x="1204" y="804" on="1"/>
        <pt x="1180" y="1005" on="0"/>
        <pt x="1060" y="1136" on="1"/>
        <pt x="935" y="1271" on="0"/>
        <pt x="727" y="1271" on="1"/>
        <pt x="589" y="1271" on="0"/>
        <pt x="484" y="1210" on="1"/>
        <pt x="276" y="1091" on="0"/>
        <pt x="243" y="803" on="1"/>
      </contour>
    </TTGlyph>
    <TTGlyph name="uni01A9" xMin="55" yMin="1" xMax="938" yMax="1392">
      <contour>
        <pt x="55" y="1" on="1"/>
        <pt x="583" y="696" on="1"/>
        <pt x="55" y="1392" on="1"/>
        <pt x="938" y="1392" on="1"/>
        <pt x="938" y="1253" on="1"/>
        <pt x="349" y="1253" on="1"/>
        <pt x="770" y="696" on="1"/>
        <pt x="350" y="140" on="1"/>
        <pt x="938" y="141" on="1"/>
        <pt x="938" y="1" on="1"/>
      </contour>
    </TTGlyph>
    <TTGlyph name="uni01B2" xMin="180" yMin="-18" xMax="1280" yMax="1409">
      <contour>
        <pt x="681" y="-18" on="1"/>
        <pt x="180" y="-18" on="0"/>
        <pt x="180" y="438" on="1"/>
        <pt x="180" y="1391" on="1"/>
        <pt x="361" y="1391" on="1"/>
        <pt x="361" y="486" on="1"/>
        <pt x="361" y="204" on="0"/>
        <pt x="560" y="140" on="1"/>
        <pt x="614" y="123" on="0"/>
        <pt x="749" y="123" on="0"/>
        <pt x="888" y="179" on="0"/>
        <pt x="1012" y="286" on="0"/>
        <pt x="1091" y="469" on="0"/>
        <pt x="1091" y="688" on="0"/>
        <pt x="1044" y="875" on="0"/>
        <pt x="995" y="960" on="1"/>
        <pt x="905" y="1118" on="0"/>
        <pt x="733" y="1284" on="1"/>
        <pt x="874" y="1409" on="1"/>
        <pt x="1046" y="1229" on="0"/>
        <pt x="1186" y="1020" on="0"/>
        <pt x="1216" y="945" on="1"/>
        <pt x="1280" y="781" on="0"/>
        <pt x="1280" y="405" on="0"/>
        <pt x="1123" y="130" on="0"/>
        <pt x="851" y="-18" on="0"/>
      </contour>
    </TTGlyph>
    <TTGlyph name="uni01B3" xMin="59" yMin="0" xMax="1478" yMax="1409">
      <contour>
        <pt x="985" y="1068" on="1"/>
        <pt x="711" y="618" on="1"/>
        <pt x="711" y="0" on="1"/>
        <pt x="530" y="0" on="1"/>
        <pt x="530" y="619" on="1"/>
        <pt x="59" y="1391" on="1"/>
        <pt x="237" y="1391" on="1"/>
        <pt x="626" y="754" on="1"/>
        <pt x="817" y="1068" on="1"/>
        <pt x="977" y="1328" on="0"/>
        <pt x="1081" y="1381" on="1"/>
        <pt x="1136" y="1409" on="0"/>
        <pt x="1206" y="1409" on="1"/>
        <pt x="1444" y="1409" on="0"/>
        <pt x="1478" y="1119" on="1"/>
        <pt x="1317" y="1095" on="1"/>
        <pt x="1299" y="1232" on="0"/>
        <pt x="1254" y="1257" on="1"/>
        <pt x="1232" y="1269" on="0"/>
        <pt x="1179" y="1269" on="0"/>
        <pt x="1138" y="1252" on="0"/>
        <pt x="1107" y="1232" on="0"/>
        <pt x="1068" y="1189" on="0"/>
        <pt x="1047" y="1165" on="0"/>
        <pt x="1010" y="1108" on="0"/>
        <pt x="1002" y="1095" on="0"/>
      </contour>
    </TTGlyph>
    <TTGlyph name="uni01B4" xMin="-1" yMin="-496" xMax="1301" yMax="956">
      <contour>
        <pt x="57" y="-322" on="1"/>
        <pt x="110" y="-367" on="0"/>
        <pt x="181" y="-367" on="0"/>
        <pt x="229" y="-341" on="0"/>
        <pt x="277" y="-286" on="0"/>
        <pt x="319" y="-225" on="0"/>
        <pt x="344" y="-178" on="1"/>
        <pt x="372" y="-122" on="0"/>
        <pt x="433" y="11" on="1"/>
        <pt x="24" y="938" on="1"/>
        <pt x="197" y="938" on="1"/>
        <pt x="520" y="207" on="1"/>
        <pt x="708" y="636" on="1"/>
        <pt x="817" y="880" on="0"/>
        <pt x="916" y="928" on="1"/>
        <pt x="972" y="956" on="0"/>
        <pt x="1059" y="956" on="1"/>
        <pt x="1204" y="956" on="0"/>
        <pt x="1270" y="804" on="1"/>
        <pt x="1295" y="747" on="0"/>
        <pt x="1301" y="672" on="1"/>
        <pt x="1140" y="642" on="1"/>
        <pt x="1137" y="695" on="0"/>
        <pt x="1072" y="816" on="0"/>
        <pt x="1027" y="816" on="1"/>
        <pt x="989" y="816" on="0"/>
        <pt x="939" y="761" on="0"/>
        <pt x="909" y="716" on="0"/>
        <pt x="897" y="692" on="1"/>
        <pt x="871" y="640" on="0"/>
        <pt x="853" y="598" on="1"/>
        <pt x="592" y="18" on="1"/>
        <pt x="417" y="-371" on="0"/>
        <pt x="302" y="-453" on="1"/>
        <pt x="243" y="-496" on="0"/>
        <pt x="70" y="-496" on="0"/>
        <pt x="-1" y="-420" on="1"/>
      </contour>
    </TTGlyph>
    <TTGlyph name="uni01B5" xMin="50" yMin="-1" xMax="1116" yMax="1391">
      <contour>
        <pt x="654" y="664" on="1"/>
        <pt x="320" y="139" on="1"/>
        <pt x="1116" y="139" on="1"/>
        <pt x="1116" y="-1" on="1"/>
        <pt x="50" y="0" on="1"/>
        <pt x="472" y="664" on="1"/>
        <pt x="215" y="664" on="1"/>
        <pt x="215" y="803" on="1"/>
        <pt x="561" y="803" on="1"/>
        <pt x="847" y="1252" on="1"/>
        <pt x="87" y="1252" on="1"/>
        <pt x="87" y="1391" on="1"/>
        <pt x="1116" y="1391" on="1"/>
        <pt x="743" y="804" on="1"/>
        <pt x="1008" y="804" on="1"/>
        <pt x="1008" y="664" on="1"/>
      </contour>
    </TTGlyph>
    <TTGlyph name="uni01B6" xMin="67" yMin="0" xMax="905" yMax="938">
      <contour>
        <pt x="111" y="938" on="1"/>
        <pt x="889" y="938" on="1"/>
        <pt x="631" y="558" on="1"/>
        <pt x="863" y="558" on="1"/>
        <pt x="863" y="449" on="1"/>
        <pt x="557" y="449" on="1"/>
        <pt x="340" y="128" on="1"/>
        <pt x="905" y="128" on="1"/>
        <pt x="905" y="0" on="1"/>
        <pt x="67" y="0" on="1"/>
        <pt x="371" y="449" on="1"/>
        <pt x="128" y="449" on="1"/>
        <pt x="128" y="558" on="1"/>
        <pt x="445" y="558" on="1"/>
        <pt x="616" y="810" on="1"/>
        <pt x="111" y="810" on="1"/>
      </contour>
    </TTGlyph>
    <TTGlyph name="uni01CD" xMin="67" yMin="0" xMax="1261" yMax="1902">
      <component glyphName=".ttfautohint" x="67" y="0" flags="0x0"/>
      <component glyphName="A" x="0" y="0" flags="0x1204"/>
      <component glyphName="uni030C" x="664" y="453" flags="0x1004"/>
    </TTGlyph>
    <TTGlyph name="uni01CE" xMin="76" yMin="-21" xMax="786" yMax="1449">
      <component glyphName=".ttfautohint" x="76" y="0" flags="0x0"/>
      <component glyphName="a" x="0" y="0" flags="0x1204"/>
      <component glyphName="uni030C" x="439" y="0" flags="0x1004"/>
    </TTGlyph>
    <TTGlyph name="uni01CF" xMin="-39" yMin="0" xMax="579" yMax="1902">
      <component glyphName=".ttfautohint" x="0" y="0" flags="0x0"/>
      <component glyphName="I" x="0" y="0" flags="0x1204"/>
      <component glyphName="uni030C" x="270" y="453" flags="0x1004"/>
    </TTGlyph>
    <TTGlyph name="uni01D0" xMin="-7" yMin="0" xMax="611" yMax="1449">
      <component glyphName=".ttfautohint" x="0" y="0" flags="0x0"/>
      <component glyphName="dotlessi" x="0" y="0" flags="0x1204"/>
      <component glyphName="uni030C" x="302" y="0" flags="0x1004"/>
    </TTGlyph>
    <TTGlyph name="uni01D1" xMin="45" yMin="-18" xMax="1399" yMax="1902">
      <component glyphName=".ttfautohint" x="45" y="0" flags="0x0"/>
      <component glyphName="O" x="0" y="0" flags="0x1204"/>
      <component glyphName="uni030C" x="727" y="453" flags="0x1004"/>
    </TTGlyph>
    <TTGlyph name="uni01D2" xMin="61" yMin="-18" xMax="951" yMax="1449">
      <component glyphName=".ttfautohint" x="61" y="0" flags="0x0"/>
      <component glyphName="o" x="0" y="0" flags="0x1204"/>
      <component glyphName="uni030C" x="506" y="0" flags="0x1004"/>
    </TTGlyph>
    <TTGlyph name="uni01D3" xMin="180" yMin="-18" xMax="1130" yMax="1885">
      <component glyphName=".ttfautohint" x="180" y="0" flags="0x0"/>
      <component glyphName="U" x="0" y="0" flags="0x1204"/>
      <component glyphName="uni030C" x="655" y="436" flags="0x1004"/>
    </TTGlyph>
    <TTGlyph name="uni01D4" xMin="164" yMin="-18" xMax="957" yMax="1449">
      <component glyphName=".ttfautohint" x="164" y="0" flags="0x0"/>
      <component glyphName="u" x="0" y="0" flags="0x1204"/>
      <component glyphName="uni030C" x="555" y="0" flags="0x1004"/>
    </TTGlyph>
    <TTGlyph name="uni01DD" xMin="61" yMin="-18" xMax="872" yMax="956">
      <contour>
        <pt x="433" y="110" on="1"/>
        <pt x="572" y="110" on="0"/>
        <pt x="641" y="194" on="1"/>
        <pt x="689" y="252" on="0"/>
        <pt x="704" y="358" on="1"/>
        <pt x="219" y="358" on="1"/>
        <pt x="228" y="249" on="0"/>
        <pt x="341" y="110" on="0"/>
      </contour>
      <contour>
        <pt x="95" y="883" on="1"/>
        <pt x="203" y="956" on="0"/>
        <pt x="387" y="956" on="1"/>
        <pt x="620" y="956" on="0"/>
        <pt x="872" y="690" on="0"/>
        <pt x="872" y="469" on="1"/>
        <pt x="872" y="180" on="0"/>
        <pt x="685" y="52" on="1"/>
        <pt x="582" y="-18" on="0"/>
        <pt x="453" y="-18" on="1"/>
        <pt x="255" y="-18" on="0"/>
        <pt x="154" y="116" on="1"/>
        <pt x="67" y="231" on="0"/>
        <pt x="61" y="418" on="1"/>
        <pt x="85" y="478" on="1"/>
        <pt x="711" y="478" on="1"/>
        <pt x="709" y="644" on="0"/>
        <pt x="535" y="827" on="0"/>
        <pt x="390" y="827" on="1"/>
        <pt x="280" y="827" on="0"/>
        <pt x="138" y="768" on="1"/>
      </contour>
    </TTGlyph>
    <TTGlyph name="uni0228" xMin="180" yMin="-494" xMax="975" yMax="1391">
      <contour>
        <pt x="493" y="0" on="1"/>
        <pt x="180" y="0" on="1"/>
        <pt x="180" y="1391" on="1"/>
        <pt x="975" y="1391" on="1"/>
        <pt x="975" y="1252" on="1"/>
        <pt x="361" y="1252" on="1"/>
        <pt x="361" y="784" on="1"/>
        <pt x="779" y="784" on="1"/>
        <pt x="779" y="644" on="1"/>
        <pt x="361" y="644" on="1"/>
        <pt x="361" y="140" on="1"/>
        <pt x="975" y="140" on="1"/>
        <pt x="975" y="0" on="1"/>
        <pt x="595" y="0" on="1"/>
        <pt x="571" y="-54" on="0"/>
        <pt x="571" y="-106" on="1"/>
        <pt x="621" y="-119" on="0"/>
        <pt x="693" y="-221" on="0"/>
        <pt x="693" y="-370" on="0"/>
        <pt x="608" y="-459" on="0"/>
        <pt x="522" y="-494" on="1"/>
        <pt x="443" y="-419" on="1"/>
        <pt x="505" y="-393" on="0"/>
        <pt x="572" y="-335" on="0"/>
        <pt x="572" y="-235" on="0"/>
        <pt x="505" y="-172" on="0"/>
        <pt x="447" y="-172" on="1"/>
        <pt x="447" y="-73" on="0"/>
      </contour>
    </TTGlyph>
    <TTGlyph name="uni0229" xMin="61" yMin="-494" xMax="872" yMax="956">
      <contour>
        <pt x="500" y="828" on="1"/>
        <pt x="361" y="828" on="0"/>
        <pt x="292" y="744" on="1"/>
        <pt x="244" y="686" on="0"/>
        <pt x="229" y="580" on="1"/>
        <pt x="714" y="580" on="1"/>
        <pt x="705" y="689" on="0"/>
        <pt x="592" y="828" on="0"/>
      </contour>
      <contour>
        <pt x="838" y="55" on="1"/>
        <pt x="730" y="-18" on="0"/>
        <pt x="546" y="-18" on="1"/>
        <pt x="530" y="-18" on="0"/>
        <pt x="515" y="-17" on="1"/>
        <pt x="498" y="-62" on="0"/>
        <pt x="498" y="-106" on="1"/>
        <pt x="548" y="-119" on="0"/>
        <pt x="620" y="-221" on="0"/>
        <pt x="620" y="-370" on="0"/>
        <pt x="535" y="-459" on="0"/>
        <pt x="449" y="-494" on="1"/>
        <pt x="370" y="-419" on="1"/>
        <pt x="432" y="-393" on="0"/>
        <pt x="499" y="-335" on="0"/>
        <pt x="499" y="-235" on="0"/>
        <pt x="432" y="-172" on="0"/>
        <pt x="374" y="-172" on="1"/>
        <pt x="374" y="-77" on="0"/>
        <pt x="416" y="-6" on="1"/>
        <pt x="275" y="22" on="0"/>
        <pt x="187" y="115" on="1"/>
        <pt x="61" y="248" on="0"/>
        <pt x="61" y="469" on="1"/>
        <pt x="61" y="758" on="0"/>
        <pt x="248" y="886" on="1"/>
        <pt x="351" y="956" on="0"/>
        <pt x="480" y="956" on="1"/>
        <pt x="678" y="956" on="0"/>
        <pt x="780" y="822" on="1"/>
        <pt x="866" y="707" on="0"/>
        <pt x="872" y="520" on="1"/>
        <pt x="848" y="460" on="1"/>
        <pt x="222" y="460" on="1"/>
        <pt x="224" y="294" on="0"/>
        <pt x="398" y="111" on="0"/>
        <pt x="543" y="111" on="1"/>
        <pt x="653" y="111" on="0"/>
        <pt x="795" y="170" on="1"/>
      </contour>
    </TTGlyph>
    <TTGlyph name="uni0237" xMin="10" yMin="-492" xMax="383" yMax="938">
      <contour>
        <pt x="383" y="938" on="1"/>
        <pt x="383" y="111" on="1"/>
        <pt x="383" y="-95" on="0"/>
        <pt x="343" y="-204" on="1"/>
        <pt x="281" y="-372" on="0"/>
        <pt x="100" y="-492" on="1"/>
        <pt x="10" y="-420" on="1"/>
        <pt x="119" y="-314" on="0"/>
        <pt x="160" y="-230" on="1"/>
        <pt x="222" y="-103" on="0"/>
        <pt x="222" y="111" on="1"/>
        <pt x="222" y="810" on="1"/>
        <pt x="56" y="810" on="1"/>
        <pt x="56" y="938" on="1"/>
      </contour>
    </TTGlyph>
    <TTGlyph name="uni0244" xMin="61" yMin="-18" xMax="1371" yMax="1391">
      <contour>
        <pt x="422" y="486" on="1"/>
        <pt x="422" y="204" on="0"/>
        <pt x="620" y="140" on="1"/>
        <pt x="675" y="123" on="0"/>
        <pt x="742" y="123" on="1"/>
        <pt x="875" y="123" on="0"/>
        <pt x="1020" y="314" on="0"/>
        <pt x="1020" y="513" on="1"/>
        <pt x="1020" y="664" on="1"/>
        <pt x="422" y="664" on="1"/>
      </contour>
      <contour>
        <pt x="241" y="664" on="1"/>
        <pt x="61" y="664" on="1"/>
        <pt x="61" y="803" on="1"/>
        <pt x="241" y="803" on="1"/>
        <pt x="241" y="1391" on="1"/>
        <pt x="422" y="1391" on="1"/>
        <pt x="422" y="803" on="1"/>
        <pt x="1020" y="804" on="1"/>
        <pt x="1020" y="1391" on="1"/>
        <pt x="1191" y="1391" on="1"/>
        <pt x="1191" y="804" on="1"/>
        <pt x="1371" y="804" on="1"/>
        <pt x="1371" y="664" on="1"/>
        <pt x="1191" y="664" on="1"/>
        <pt x="1191" y="469" on="1"/>
        <pt x="1191" y="248" on="0"/>
        <pt x="955" y="-18" on="0"/>
        <pt x="742" y="-18" on="1"/>
        <pt x="241" y="-18" on="0"/>
        <pt x="241" y="438" on="1"/>
      </contour>
    </TTGlyph>
    <TTGlyph name="uni0245" xMin="67" yMin="0" xMax="1261" yMax="1391">
      <contour>
        <pt x="659" y="1143" on="1"/>
        <pt x="235" y="0" on="1"/>
        <pt x="67" y="0" on="1"/>
        <pt x="589" y="1391" on="1"/>
        <pt x="739" y="1391" on="1"/>
        <pt x="1261" y="0" on="1"/>
        <pt x="1083" y="0" on="1"/>
      </contour>
    </TTGlyph>
    <TTGlyph name="uni0251" xMin="61" yMin="-18" xMax="929" yMax="956">
      <contour>
        <pt x="735" y="156" on="1"/>
        <pt x="680" y="74" on="0"/>
        <pt x="655" y="53" on="0"/>
        <pt x="618" y="19" on="0"/>
        <pt x="585" y="6" on="0"/>
        <pt x="562" y="-3" on="1"/>
        <pt x="524" y="-18" on="0"/>
        <pt x="376" y="-18" on="0"/>
        <pt x="238" y="37" on="0"/>
        <pt x="182" y="92" on="1"/>
        <pt x="61" y="211" on="0"/>
        <pt x="61" y="456" on="1"/>
        <pt x="61" y="728" on="0"/>
        <pt x="274" y="874" on="1"/>
        <pt x="395" y="956" on="0"/>
        <pt x="534" y="956" on="1"/>
        <pt x="737" y="956" on="0"/>
        <pt x="896" y="858" on="1"/>
        <pt x="896" y="209" on="1"/>
        <pt x="896" y="126" on="0"/>
        <pt x="910" y="49" on="0"/>
        <pt x="929" y="0" on="1"/>
        <pt x="768" y="0" on="1"/>
        <pt x="749" y="27" on="0"/>
        <pt x="735" y="86" on="0"/>
      </contour>
      <contour>
        <pt x="464" y="110" on="1"/>
        <pt x="628" y="110" on="0"/>
        <pt x="735" y="290" on="1"/>
        <pt x="735" y="790" on="1"/>
        <pt x="677" y="827" on="0"/>
        <pt x="484" y="827" on="0"/>
        <pt x="349" y="767" on="0"/>
        <pt x="307" y="715" on="1"/>
        <pt x="222" y="610" on="0"/>
        <pt x="222" y="448" on="1"/>
        <pt x="222" y="195" on="0"/>
        <pt x="378" y="128" on="1"/>
        <pt x="418" y="110" on="0"/>
      </contour>
    </TTGlyph>
    <TTGlyph name="uni0253" xMin="164" yMin="-18" xMax="999" yMax="1464">
      <contour>
        <pt x="594" y="828" on="1"/>
        <pt x="431" y="827" on="0"/>
        <pt x="325" y="648" on="1"/>
        <pt x="325" y="148" on="1"/>
        <pt x="383" y="111" on="0"/>
        <pt x="576" y="111" on="0"/>
        <pt x="711" y="171" on="0"/>
        <pt x="753" y="223" on="1"/>
        <pt x="838" y="328" on="0"/>
        <pt x="838" y="490" on="1"/>
        <pt x="838" y="743" on="0"/>
        <pt x="681" y="810" on="1"/>
        <pt x="640" y="828" on="0"/>
      </contour>
      <contour>
        <pt x="325" y="828" on="1"/>
        <pt x="390" y="901" on="0"/>
        <pt x="524" y="956" on="0"/>
        <pt x="684" y="956" on="0"/>
        <pt x="822" y="901" on="0"/>
        <pt x="878" y="846" on="1"/>
        <pt x="999" y="727" on="0"/>
        <pt x="999" y="482" on="1"/>
        <pt x="999" y="210" on="0"/>
        <pt x="786" y="64" on="1"/>
        <pt x="665" y="-18" on="0"/>
        <pt x="526" y="-18" on="1"/>
        <pt x="323" y="-18" on="0"/>
        <pt x="164" y="80" on="1"/>
        <pt x="164" y="1020" on="1"/>
        <pt x="164" y="1464" on="0"/>
        <pt x="515" y="1464" on="1"/>
        <pt x="625" y="1464" on="0"/>
        <pt x="696" y="1430" on="1"/>
        <pt x="719" y="1418" on="0"/>
        <pt x="779" y="1379" on="0"/>
        <pt x="788" y="1374" on="1"/>
        <pt x="744" y="1247" on="1"/>
        <pt x="703" y="1283" on="0"/>
        <pt x="580" y="1336" on="0"/>
        <pt x="442" y="1336" on="0"/>
        <pt x="325" y="1192" on="0"/>
        <pt x="325" y="1107" on="1"/>
      </contour>
    </TTGlyph>
    <TTGlyph name="uni0254" xMin="61" yMin="-18" xMax="860" yMax="956">
      <contour>
        <pt x="372" y="827" on="1"/>
        <pt x="255" y="827" on="0"/>
        <pt x="147" y="748" on="1"/>
        <pt x="85" y="856" on="1"/>
        <pt x="231" y="956" on="0"/>
        <pt x="392" y="956" on="1"/>
        <pt x="607" y="956" on="0"/>
        <pt x="860" y="685" on="0"/>
        <pt x="860" y="248" on="0"/>
        <pt x="619" y="-18" on="0"/>
        <pt x="413" y="-18" on="1"/>
        <pt x="155" y="-18" on="0"/>
        <pt x="61" y="220" on="1"/>
        <pt x="173" y="282" on="1"/>
        <pt x="241" y="111" on="0"/>
        <pt x="411" y="111" on="1"/>
        <pt x="554" y="111" on="0"/>
        <pt x="699" y="316" on="0"/>
        <pt x="699" y="617" on="0"/>
        <pt x="524" y="827" on="0"/>
        <pt x="378" y="827" on="1"/>
      </contour>
    </TTGlyph>
    <TTGlyph name="uni0256" xMin="61" yMin="-492" xMax="1168" yMax="1475">
      <contour>
        <pt x="899" y="68" on="1"/>
        <pt x="899" y="-168" on="0"/>
        <pt x="958" y="-258" on="1"/>
        <pt x="997" y="-317" on="0"/>
        <pt x="1039" y="-334" on="1"/>
        <pt x="1092" y="-354" on="0"/>
        <pt x="1168" y="-364" on="1"/>
        <pt x="1155" y="-492" on="1"/>
        <pt x="1030" y="-492" on="0"/>
        <pt x="945" y="-447" on="1"/>
        <pt x="909" y="-428" on="0"/>
        <pt x="826" y="-350" on="0"/>
        <pt x="798" y="-297" on="1"/>
        <pt x="734" y="-173" on="0"/>
        <pt x="734" y="26" on="1"/>
        <pt x="734" y="110" on="1"/>
        <pt x="621" y="-18" on="0"/>
        <pt x="465" y="-18" on="1"/>
        <pt x="349" y="-18" on="0"/>
        <pt x="161" y="110" on="0"/>
        <pt x="61" y="315" on="0"/>
        <pt x="61" y="432" on="1"/>
        <pt x="61" y="665" on="0"/>
        <pt x="332" y="956" on="0"/>
        <pt x="533" y="956" on="1"/>
        <pt x="617" y="956" on="0"/>
        <pt x="734" y="924" on="1"/>
        <pt x="734" y="1475" on="1"/>
        <pt x="899" y="1475" on="1"/>
      </contour>
      <contour>
        <pt x="734" y="784" on="1"/>
        <pt x="651" y="828" on="0"/>
        <pt x="488" y="828" on="0"/>
        <pt x="375" y="771" on="0"/>
        <pt x="281" y="672" on="0"/>
        <pt x="222" y="522" on="0"/>
        <pt x="222" y="436" on="1"/>
        <pt x="222" y="297" on="0"/>
        <pt x="371" y="111" on="0"/>
        <pt x="480" y="111" on="1"/>
        <pt x="554" y="111" on="0"/>
        <pt x="688" y="212" on="0"/>
        <pt x="734" y="290" on="1"/>
      </contour>
    </TTGlyph>
    <TTGlyph name="uni0257" xMin="61" yMin="-18" xMax="1246" yMax="1464">
      <contour>
        <pt x="734" y="924" on="1"/>
        <pt x="734" y="1016" on="1"/>
        <pt x="734" y="1314" on="0"/>
        <pt x="866" y="1414" on="1"/>
        <pt x="931" y="1464" on="0"/>
        <pt x="1081" y="1464" on="0"/>
        <pt x="1134" y="1440" on="1"/>
        <pt x="1212" y="1406" on="0"/>
        <pt x="1246" y="1349" on="1"/>
        <pt x="1162" y="1254" on="1"/>
        <pt x="1102" y="1336" on="0"/>
        <pt x="1024" y="1336" on="1"/>
        <pt x="970" y="1336" on="0"/>
        <pt x="899" y="1199" on="0"/>
        <pt x="899" y="1067" on="1"/>
        <pt x="899" y="0" on="1"/>
        <pt x="734" y="0" on="1"/>
        <pt x="734" y="110" on="1"/>
        <pt x="621" y="-18" on="0"/>
        <pt x="465" y="-18" on="1"/>
        <pt x="349" y="-18" on="0"/>
        <pt x="161" y="110" on="0"/>
        <pt x="61" y="315" on="0"/>
        <pt x="61" y="432" on="1"/>
        <pt x="61" y="665" on="0"/>
        <pt x="332" y="956" on="0"/>
        <pt x="533" y="956" on="1"/>
        <pt x="617" y="956" on="0"/>
      </contour>
      <contour>
        <pt x="734" y="784" on="1"/>
        <pt x="651" y="828" on="0"/>
        <pt x="488" y="828" on="0"/>
        <pt x="375" y="771" on="0"/>
        <pt x="281" y="672" on="0"/>
        <pt x="222" y="522" on="0"/>
        <pt x="222" y="436" on="1"/>
        <pt x="222" y="297" on="0"/>
        <pt x="371" y="111" on="0"/>
        <pt x="480" y="111" on="1"/>
        <pt x="554" y="111" on="0"/>
        <pt x="688" y="212" on="0"/>
        <pt x="734" y="290" on="1"/>
      </contour>
    </TTGlyph>
    <TTGlyph name="uni0259" xMin="61" yMin="-18" xMax="872" yMax="956">
      <component glyphName=".ttfautohint" x="61" y="0" flags="0x0"/>
      <component glyphName="uni01DD" x="0" y="0" flags="0x1004"/>
    </TTGlyph>
    <TTGlyph name="uni025B" xMin="61" yMin="-18" xMax="762" yMax="956">
      <contour>
        <pt x="680" y="768" on="1"/>
        <pt x="576" y="828" on="0"/>
        <pt x="466" y="828" on="1"/>
        <pt x="363" y="828" on="0"/>
        <pt x="303" y="778" on="1"/>
        <pt x="266" y="748" on="0"/>
        <pt x="266" y="637" on="0"/>
        <pt x="388" y="565" on="0"/>
        <pt x="502" y="565" on="1"/>
        <pt x="588" y="565" on="1"/>
        <pt x="572" y="445" on="1"/>
        <pt x="472" y="445" on="1"/>
        <pt x="351" y="445" on="0"/>
        <pt x="222" y="361" on="0"/>
        <pt x="222" y="226" on="0"/>
        <pt x="260" y="184" on="1"/>
        <pt x="326" y="111" on="0"/>
        <pt x="440" y="111" on="1"/>
        <pt x="504" y="111" on="0"/>
        <pt x="616" y="149" on="0"/>
        <pt x="665" y="184" on="0"/>
        <pt x="698" y="213" on="1"/>
        <pt x="762" y="111" on="1"/>
        <pt x="716" y="57" on="0"/>
        <pt x="549" y="-18" on="0"/>
        <pt x="338" y="-18" on="0"/>
        <pt x="170" y="47" on="0"/>
        <pt x="61" y="182" on="0"/>
        <pt x="61" y="363" on="0"/>
        <pt x="154" y="479" on="0"/>
        <pt x="222" y="505" on="1"/>
        <pt x="100" y="557" on="0"/>
        <pt x="100" y="702" on="1"/>
        <pt x="100" y="777" on="0"/>
        <pt x="152" y="836" on="1"/>
        <pt x="256" y="956" on="0"/>
        <pt x="450" y="956" on="1"/>
        <pt x="554" y="956" on="0"/>
        <pt x="708" y="911" on="0"/>
        <pt x="741" y="884" on="1"/>
      </contour>
    </TTGlyph>
</ttFont>
